<?xml version="1.0" standalone="no"?>
<!DOCTYPE svg PUBLIC "-//W3C//DTD SVG 1.1//EN" "http://www.w3.org/Graphics/SVG/1.1/DTD/svg11.dtd" >
<svg>
<metadata>
Created by FontForge 20090622 at Thu Oct 27 07:16:28 2016
 By deploy user
Copyright (c) 2010 by Hannes von Doehren. All rights reserved.
</metadata>
<defs>
<font id="SupriaSans-MediumItalic" horiz-adv-x="670" >
  <font-face 
    font-family="Supria Sans Medium"
    font-weight="500"
    font-style="italic"
    font-stretch="normal"
    units-per-em="1000"
    panose-1="2 11 6 3 3 2 3 12 2 3"
    ascent="750"
    descent="-250"
    x-height="490"
    cap-height="690"
    bbox="-221 -302.34 1014 949"
    underline-thickness="30"
    underline-position="-50"
    slope="-10"
    unicode-range="U+0020-U+FB02"
  />
<missing-glyph horiz-adv-x="612" 
d="M50 720h512v-720h-512v720zM262 283h48v18q0 14 22 33.5t48 38t48 48.5t22 62q0 51 -36.5 83.5t-101.5 32.5q-39 0 -67 -14t-41.5 -36t-19 -41.5t-5.5 -38.5q0 -10 1 -15l47 -3q-1 6 -1 15q0 38 21.5 64t64.5 26q41 0 64 -20.5t23 -52.5q0 -25 -21.5 -50t-47 -42.5
t-47 -42t-21.5 -47.5v-18zM255 194v-71h68v71h-68z" />
    <glyph glyph-name=".notdef" horiz-adv-x="612" 
d="M50 720h512v-720h-512v720zM262 283h48v18q0 14 22 33.5t48 38t48 48.5t22 62q0 51 -36.5 83.5t-101.5 32.5q-39 0 -67 -14t-41.5 -36t-19 -41.5t-5.5 -38.5q0 -10 1 -15l47 -3q-1 6 -1 15q0 38 21.5 64t64.5 26q41 0 64 -20.5t23 -52.5q0 -25 -21.5 -50t-47 -42.5
t-47 -42t-21.5 -47.5v-18zM255 194v-71h68v71h-68z" />
    <glyph glyph-name=".null" horiz-adv-x="0" 
 />
    <glyph glyph-name="nonmarkingreturn" horiz-adv-x="333" 
 />
    <glyph glyph-name="space" unicode=" " horiz-adv-x="255" 
 />
    <glyph glyph-name="exclam" unicode="!" horiz-adv-x="280" 
d="M105 244l12 256l34 190h119l-33 -190l-79 -256h-53zM19 0l23 133h138l-24 -133h-137z" />
    <glyph glyph-name="quotedbl" unicode="&#x22;" horiz-adv-x="390" 
d="M91 441l15 148l18 101h99l-18 -102l-37 -147h-77zM272 441l15 148l17 101h101l-18 -102l-39 -147h-76z" />
    <glyph glyph-name="numbersign" unicode="#" horiz-adv-x="633" 
d="M57 0l65 180h-103l13 72h119l62 172h-102l12 72h118l71 194h79l-71 -194h122l71 194h78l-70 -194h112l-13 -72h-129l-61 -172h110l-13 -72h-126l-64 -180h-80l65 180h-121l-65 -180h-79zM230 252h122l61 172h-122z" />
    <glyph glyph-name="dollar" unicode="$" horiz-adv-x="580" 
d="M32 229l122 4q-9 -30 -9 -58q0 -78 79 -91l38 217l-52 19q-122 45 -122 159q0 98 61.5 156.5t182.5 63.5l14 77h62l-14 -78q56 -5 93.5 -23t52.5 -43.5t20 -44t5 -37.5q0 -34 -11 -71l-118 -3q8 32 8 52q0 64 -66 77l-37 -211l61 -21q124 -43 124 -155q0 -99 -66 -160
t-191 -67l-16 -95h-62l17 96q-53 4 -91.5 21t-58.5 42t-29 50t-9 52q0 31 12 72zM330 278l-9 3l-35 -198q58 7 88 38t30 78q0 28 -17 46.5t-57 32.5zM207 499q0 -58 56 -78l19 -7l34 193q-109 -10 -109 -108z" />
    <glyph glyph-name="percent" unicode="%" horiz-adv-x="772" 
d="M97 0l2 10l503 680h85l-2 -10l-503 -680h-85zM218 359q-69 0 -106 39.5t-37 99.5q0 84 50.5 143t129.5 59q70 0 108.5 -40t38.5 -101q0 -83 -52.5 -141.5t-131.5 -58.5zM224 447q38 0 62.5 28t24.5 72q0 30 -15.5 48.5t-43.5 18.5q-39 0 -63 -30t-24 -73q0 -29 15 -46.5
t44 -17.5zM536 -10q-71 0 -109 39.5t-38 99.5q0 83 51.5 142.5t129.5 59.5q71 0 108.5 -40.5t37.5 -101.5q0 -83 -51.5 -141t-128.5 -58zM538 77q39 0 64 28.5t25 71.5q0 30 -15.5 49t-43.5 19q-40 0 -64.5 -30.5t-24.5 -73.5q0 -29 15.5 -46.5t43.5 -17.5z" />
    <glyph glyph-name="ampersand" unicode="&#x26;" horiz-adv-x="671" 
d="M22 152q0 41 13.5 75.5t30.5 55t47 39.5t46 26t45 18l-27 39q-35 49 -35 105q0 84 61 137t158 53q89 0 137.5 -40t48.5 -106q0 -35 -16.5 -67.5t-38.5 -54.5t-52.5 -41.5t-50.5 -28.5t-40 -17l90 -127q65 63 119 137l80 -66q-46 -57 -135 -151l84 -120l-3 -18h-119
l-44 71q-101 -81 -201 -81q-94 0 -146 45t-52 117zM139 175q0 -41 25.5 -66t67.5 -25q62 0 129 67l-109 157q-113 -43 -113 -133zM301 404q133 55 133 132q0 31 -20 50t-56 19q-48 0 -76 -29t-28 -74q0 -33 22 -63z" />
    <glyph glyph-name="quotesingle" unicode="'" horiz-adv-x="208" 
d="M92 441l14 148l18 101h99l-18 -102l-37 -147h-76z" />
    <glyph glyph-name="parenleft" unicode="(" horiz-adv-x="286" 
d="M27 126q0 92 17.5 177.5t42 146t62.5 119.5t66 93t66 74l60 -30q-220 -255 -220 -588q0 -186 62 -310l-71 -29q-34 55 -59.5 147.5t-25.5 199.5z" />
    <glyph glyph-name="parenright" unicode=")" horiz-adv-x="284" 
d="M247 394q0 -349 -253 -615l-61 29q42 49 73.5 96t68.5 120.5t57.5 168.5t20.5 202q0 93 -18 177t-43 134l71 30q84 -141 84 -342z" />
    <glyph glyph-name="asterisk" unicode="*" horiz-adv-x="401" 
d="M178 368l32 128l-113 -72l-22 65l120 59l-99 56l43 58l87 -72l15 130h66l-29 -129l112 73l23 -65l-118 -57l97 -55l-42 -59l-85 74l-19 -134h-68z" />
    <glyph glyph-name="plus" unicode="+" 
d="M534 229h-162l-32 -178h-94l31 178h-163l16 91h163l32 179h94l-31 -179h162z" />
    <glyph glyph-name="comma" unicode="," horiz-adv-x="270" 
d="M17 0l24 136h138l-24 -136q-31 -166 -167 -161l14 57q39 0 57.5 26.5t26.5 77.5h-69z" />
    <glyph glyph-name="hyphen" unicode="-" horiz-adv-x="381" 
d="M45 228l16 91h268l-15 -91h-269z" />
    <glyph glyph-name="period" unicode="." horiz-adv-x="269" 
d="M17 0l24 136h137l-23 -136h-138z" />
    <glyph glyph-name="slash" unicode="/" horiz-adv-x="373" 
d="M-16 0l336 690h89l-337 -690h-88z" />
    <glyph glyph-name="zero" unicode="0" horiz-adv-x="627" 
d="M275 -10q-109 0 -164 70t-55 189q0 128 36.5 229.5t109 161.5t170.5 60q109 0 163.5 -70.5t54.5 -189.5q0 -197 -84.5 -323.5t-230.5 -126.5zM279 91q52 0 90.5 32t58 85.5t28.5 111t9 121.5q0 73 -24 115t-73 42q-52 0 -90 -32t-58 -85.5t-29 -111.5t-9 -121
q0 -73 24 -115t73 -42z" />
    <glyph glyph-name="one" unicode="1" horiz-adv-x="365" 
d="M93 0l85 482h-132l16 93q87 0 125 25t49 90h101l-122 -690h-122z" />
    <glyph glyph-name="two" unicode="2" horiz-adv-x="548" 
d="M178 99l2 -7q40 9 117 9h161l-18 -101h-436l14 84l297 256q48 42 70.5 80t22.5 89q0 40 -22.5 67t-63.5 27q-53 0 -85 -39t-32 -100q0 -19 2 -35l-116 -7q-5 19 -3 45q2 39 15 77t39 74.5t73.5 59t110.5 22.5q104 0 155.5 -50t51.5 -131q0 -77 -36 -134t-105 -116
l-134 -113q-42 -35 -80 -57z" />
    <glyph glyph-name="three" unicode="3" horiz-adv-x="579" 
d="M37 239l118 3q-6 -26 -6 -45q0 -45 24.5 -76.5t76.5 -31.5q59 0 98.5 38t39.5 99q0 42 -25.5 64.5t-73.5 22.5h-57l17 94h57q60 0 90.5 32.5t30.5 82.5q0 37 -23.5 58t-64.5 21q-62 0 -94.5 -36.5t-35.5 -93.5l-111 2q3 100 66.5 163.5t178.5 63.5q97 0 152.5 -40
t55.5 -114q0 -45 -14.5 -80t-37.5 -54.5t-42.5 -30t-38.5 -14.5l-1 -7q34 -6 64.5 -40t30.5 -95q0 -105 -76.5 -170t-188.5 -65q-52 0 -92.5 13.5t-64 34t-38 47.5t-19.5 50.5t-5 46.5q0 30 9 57z" />
    <glyph glyph-name="four" unicode="4" horiz-adv-x="585" 
d="M5 154l12 78l371 458h147l-79 -440h90l-17 -96h-89l-27 -154h-123l26 154h-311zM149 249h187l37 208q15 78 26 117h-10q-54 -88 -69 -107l-171 -215v-3z" />
    <glyph glyph-name="five" unicode="5" horiz-adv-x="568" 
d="M38 220l119 4q-5 -22 -5 -41q0 -41 23 -68.5t72 -27.5q65 0 105.5 51.5t40.5 128.5q0 52 -27 79t-76 27q-32 0 -61.5 -15.5t-47.5 -37.5h-113l97 370h378l-17 -96h-276l-45 -185h6q61 48 129 48q88 0 134.5 -47.5t46.5 -129.5q0 -130 -79.5 -210t-197.5 -80
q-108 0 -161.5 48t-53.5 126q0 34 9 56z" />
    <glyph glyph-name="six" unicode="6" horiz-adv-x="607" 
d="M273 -10q-108 0 -162.5 69t-54.5 188q0 196 87.5 324.5t231.5 128.5q49 0 87 -11.5t59.5 -28.5t35.5 -39.5t19 -42.5t5 -40q0 -26 -8 -50l-124 -4q6 22 6 37q0 38 -21 61.5t-66 23.5q-53 0 -95 -45.5t-62 -101.5t-24 -110h5q21 33 67 62t113 29q89 0 134 -47t45 -129
q0 -120 -78.5 -197t-199.5 -77zM188 194q0 -48 26.5 -77.5t69.5 -29.5q60 0 100.5 47t40.5 115q0 46 -24 73t-72 27q-58 0 -99.5 -44t-41.5 -111z" />
    <glyph glyph-name="seven" unicode="7" horiz-adv-x="541" 
d="M74 474l39 216h468l-12 -72q-5 -14 -94 -141l-186 -273t-118 -204h-136l1 14q19 54 109 186.5l179.5 254t96.5 134.5h-230l-20 -115h-97z" />
    <glyph glyph-name="eight" unicode="8" horiz-adv-x="607" 
d="M324 406q62 0 95.5 33t33.5 83q0 39 -26 61t-70 22q-58 0 -91.5 -30.5t-33.5 -85.5q0 -37 23.5 -60t68.5 -23zM267 85q66 0 107.5 36.5t41.5 98.5q0 44 -27.5 69t-80.5 25q-72 0 -110.5 -37.5t-38.5 -100.5q0 -42 29 -66.5t79 -24.5zM263 -10q-109 0 -171 45.5t-62 122.5
q0 84 50 136.5t101 64.5l1 8q-27 7 -50 37t-23 79q0 102 70 159.5t183 57.5q104 0 159.5 -39.5t55.5 -112.5q0 -79 -39.5 -123t-85.5 -58l-2 -8q33 -8 62 -45t29 -95q0 -103 -79 -166t-199 -63z" />
    <glyph glyph-name="nine" unicode="9" horiz-adv-x="607" 
d="M347 700q116 0 170 -68t54 -189q0 -197 -86.5 -325t-233.5 -128q-60 0 -103 16.5t-64 43t-29.5 51.5t-8.5 51q0 28 9 50l123 4q-7 -19 -7 -37q0 -38 22 -61.5t66 -23.5q79 0 128.5 80.5t51.5 176.5h-5q-29 -39 -76 -65t-105 -26q-84 0 -131 47t-47 124q0 129 77 204
t195 75zM439 502q0 47 -26 74t-70 27q-60 0 -100 -44.5t-40 -118.5q0 -45 24 -72t70 -27q58 0 100 46t42 115z" />
    <glyph glyph-name="colon" unicode=":" horiz-adv-x="300" 
d="M32 0l24 131h134l-23 -131h-135zM95 359l23 131h134l-23 -131h-134z" />
    <glyph glyph-name="semicolon" unicode=";" horiz-adv-x="299" 
d="M95 359l23 131h134l-23 -131h-134zM32 0l23 131h134l-24 -131q-27 -166 -166 -161l15 64q40 0 55.5 21.5t24.5 75.5h-62z" />
    <glyph glyph-name="less" unicode="&#x3c;" 
d="M97 224l18 102l458 204l-18 -107l-352 -148l-1 -9l299 -146l-18 -99z" />
    <glyph glyph-name="equal" unicode="=" 
d="M513 109h-420l17 91h419zM556 352h-420l17 90h419z" />
    <glyph glyph-name="greater" unicode="&#x3e;" 
d="M568 326l-19 -102l-457 -203l18 107l351 147l2 10l-299 146l18 99z" />
    <glyph glyph-name="question" unicode="?" horiz-adv-x="502" 
d="M164 244q-1 6 -1 20q0 49 30 84.5t88 70.5q62 38 78 56q21 25 21 60q0 31 -19.5 50t-56.5 19q-47 0 -78.5 -36.5t-31.5 -86.5v-5l-119 3v4q0 33 12 68t37 70t73 57t111 22q96 0 147.5 -42.5t51.5 -111.5q0 -40 -12 -70.5t-37 -54t-45.5 -37t-56.5 -33.5q-9 -5 -13 -7
q-41 -23 -61 -43t-20 -49v-8h-98zM101 0l24 133h137l-24 -133h-137z" />
    <glyph glyph-name="at" unicode="@" horiz-adv-x="853" 
d="M30 167q0 238 140.5 385.5t351.5 147.5q151 0 230 -70t79 -185q0 -97 -33 -185t-97 -145.5t-144 -57.5q-90 0 -99 64h-4q-61 -64 -135 -64q-58 0 -95 32.5t-37 100.5q0 121 73 221.5t184 100.5q93 0 112 -69h5l35 60h80l-100 -310q-7 -22 -8.5 -35.5t4 -20.5t19.5 -7
q65 0 120.5 94.5t55.5 211.5q0 95 -62 149t-184 54q-186 0 -306.5 -130.5t-120.5 -331.5q0 -99 49 -160t156 -61q7 0 13 0.5t7 0.5l-19 -65q-134 0 -202 75t-68 200zM464 430q-69 0 -114.5 -70t-45.5 -149q0 -66 69 -66q24 0 47.5 11.5t35.5 23.5l11 11l63 192q-1 5 -5 13
t-20.5 21t-40.5 13z" />
    <glyph glyph-name="A" unicode="A" horiz-adv-x="660" 
d="M-31 0l359 690h145l116 -690h-119l-28 168h-257l-87 -168h-129zM226 261h208l-31 200q-9 56 -13 122h-6q-27 -65 -54 -120z" />
    <glyph glyph-name="B" unicode="B" horiz-adv-x="624" 
d="M36 0l122 690h236q204 0 204 -146q0 -82 -42 -131.5t-93 -63.5l-1 -6q36 -9 63 -37.5t27 -83.5q0 -109 -66.5 -165.5t-195.5 -56.5h-254zM223 395h105q85 0 114 32.5t29 93.5q0 72 -98 72h-115zM170 97h115q81 0 113.5 31t32.5 97q0 77 -110 77h-115z" />
    <glyph glyph-name="C" unicode="C" horiz-adv-x="679" 
d="M412 600q-99 0 -163.5 -88t-64.5 -237q0 -88 37 -136.5t101 -48.5q78 0 126 45t49 122l122 -4q0 -31 -8 -64t-29.5 -69.5t-54 -64.5t-86.5 -46.5t-122 -18.5q-125 0 -194 73.5t-69 203.5q0 201 99.5 317t262.5 116q71 0 122.5 -19t77 -50t36.5 -61.5t11 -62.5
q0 -37 -11 -70l-125 -4q7 28 7 50q0 56 -31.5 86.5t-92.5 30.5z" />
    <glyph glyph-name="D" unicode="D" horiz-adv-x="689" 
d="M36 0l122 690h216q275 0 275 -271q0 -200 -92.5 -309.5t-278.5 -109.5h-242zM174 100h103q246 0 246 319q0 172 -160 172h-102z" />
    <glyph glyph-name="E" unicode="E" horiz-adv-x="579" 
d="M36 0l122 690h438l-17 -100h-319l-33 -191h268l-18 -100h-268l-35 -198h319l-19 -101h-438z" />
    <glyph glyph-name="F" unicode="F" horiz-adv-x="552" 
d="M36 0l122 690h426l-17 -100h-306l-38 -215h270l-18 -101h-269l-49 -274h-121z" />
    <glyph glyph-name="G" unicode="G" horiz-adv-x="699" 
d="M327 84q68 0 115.5 44.5t60.5 111.5h-131l15 86h258l-58 -326h-85l3 86h-6q-34 -42 -85 -69t-112 -27q-113 0 -180 72t-67 200q0 202 100 320t263 118q72 0 123.5 -17.5t77 -46.5t36 -58.5t10.5 -62.5q0 -40 -11 -71l-126 -4q7 24 7 47q0 55 -31.5 84t-90.5 29
q-100 0 -164 -88t-64 -238q0 -90 37.5 -140t104.5 -50z" />
    <glyph glyph-name="H" unicode="H" horiz-adv-x="721" 
d="M36 0l122 690h120l-51 -291h306l50 291h122l-121 -690h-122l53 298h-306l-53 -298h-120z" />
    <glyph glyph-name="I" unicode="I" horiz-adv-x="294" 
d="M36 0l122 690h120l-122 -690h-120z" />
    <glyph glyph-name="J" unicode="J" horiz-adv-x="528" 
d="M15 224l118 -7q-13 -32 -13 -58q0 -32 19.5 -50.5t54.5 -18.5q49 0 79.5 34t44.5 116l79 450h121l-80 -457q-22 -124 -81 -183.5t-166 -59.5q-93 0 -142 44.5t-49 115.5q0 36 15 74z" />
    <glyph glyph-name="K" unicode="K" horiz-adv-x="620" 
d="M36 0l122 690h120l-54 -307l62 8q13 12 123.5 152t118.5 147h138l-3 -12q-10 -9 -135.5 -163.5t-138.5 -168.5q8 -11 78 -167t82 -166l-2 -13h-128q-6 7 -64.5 145t-70.5 149h-76l-52 -294h-120z" />
    <glyph glyph-name="L" unicode="L" horiz-adv-x="527" 
d="M36 0l122 690h120l-104 -589h304l-17 -101h-425z" />
    <glyph glyph-name="M" unicode="M" horiz-adv-x="837" 
d="M448 172h-100l-65 229q-19 68 -30 144h-9q-9 -104 -22 -175l-66 -370h-120l122 690h140l87 -289q19 -61 26 -106h7q25 53 61 106l191 289h151l-121 -690h-121l65 370q16 92 38 175h-9q-41 -87 -76 -142z" />
    <glyph glyph-name="N" unicode="N" horiz-adv-x="717" 
d="M36 0l122 690h123l162 -400q26 -66 43 -129h8q4 68 19 153l67 376h121l-122 -690h-123l-162 393q-24 57 -46 136h-8q-3 -67 -19 -162l-65 -367h-120z" />
    <glyph glyph-name="O" unicode="O" horiz-adv-x="719" 
d="M321 -10q-131 0 -198 71t-67 198q0 203 96 322t267 119q130 0 197 -71.5t67 -198.5q0 -202 -96.5 -321t-265.5 -119zM325 90q113 0 171.5 89.5t58.5 242.5q0 85 -35.5 131.5t-104.5 46.5q-114 0 -172.5 -90t-58.5 -243q0 -85 35.5 -131t105.5 -46z" />
    <glyph glyph-name="P" unicode="P" horiz-adv-x="599" 
d="M36 0l122 690h220q112 0 164.5 -55t52.5 -145q0 -55 -16.5 -104t-48.5 -89.5t-87 -64.5t-126 -24h-123l-37 -208h-121zM212 306h97q82 0 120.5 51t38.5 126q0 48 -26.5 78.5t-81.5 30.5h-98z" />
    <glyph glyph-name="Q" unicode="Q" horiz-adv-x="719" 
d="M300 -9q-115 2 -179.5 73t-64.5 193q0 204 96 323.5t265 119.5q131 0 198.5 -71.5t67.5 -198.5q0 -347 -239 -417l-1 -5q133 -102 234 -112l4 -13l-76 -83q-67 5 -150 62.5t-155 128.5zM325 90q113 0 171.5 89.5t58.5 242.5q0 85 -35.5 131.5t-104.5 46.5
q-114 0 -172.5 -90t-58.5 -243q0 -85 35.5 -131t105.5 -46z" />
    <glyph glyph-name="R" unicode="R" horiz-adv-x="626" 
d="M36 0l122 690h209q226 0 226 -185q0 -88 -47 -147.5t-127 -78.5l-1 -6q11 -14 66 -132t71 -125l-3 -16h-124q-18 10 -67 126t-60 124h-99l-45 -250h-121zM216 347h99q81 0 115 42t34 106q0 43 -26.5 69.5t-79.5 26.5h-99z" />
    <glyph glyph-name="S" unicode="S" horiz-adv-x="593" 
d="M41 230l121 3q-8 -27 -8 -52q0 -91 110 -91q66 0 101.5 29.5t35.5 80.5q0 55 -66 78l-106 38q-66 23 -99.5 61.5t-33.5 104.5q0 95 69.5 156.5t189.5 61.5q64 0 108.5 -15t66.5 -40t31 -51t9 -56q0 -24 -10 -61l-120 -3q8 32 8 51q0 75 -98 75q-65 0 -96 -29.5t-31 -77.5
q0 -58 65 -80l112 -38q67 -23 99 -60.5t32 -101.5q0 -96 -74.5 -159.5t-199.5 -63.5q-65 0 -112 16t-70.5 43.5t-34 56.5t-10.5 62q0 38 11 62z" />
    <glyph glyph-name="T" unicode="T" horiz-adv-x="556" 
d="M164 0l104 589h-196l17 101h514l-18 -101h-196l-104 -589h-121z" />
    <glyph glyph-name="U" unicode="U" horiz-adv-x="700" 
d="M83 307l67 383h121l-67 -377q-23 -126 4.5 -174.5t107.5 -48.5q79 0 122 48.5t66 174.5l67 377h120l-67 -383q-30 -172 -104.5 -244.5t-207.5 -72.5q-145 0 -202 73t-27 244z" />
    <glyph glyph-name="V" unicode="V" horiz-adv-x="623" 
d="M189 0l-98 690h122l46 -395q11 -93 12 -180h10q31 85 75 180l185 395h132l-341 -690h-143z" />
    <glyph glyph-name="W" unicode="W" horiz-adv-x="938" 
d="M593 690l37 -423q4 -59 3 -136h11q19 78 41 136l165 423h129l-281 -690h-139l-37 386q-7 70 -4 161h-10q-28 -94 -59 -161l-177 -386h-138l-36 690h122l14 -419q3 -64 -4 -140h11q34 102 50 137l187 422h115z" />
    <glyph glyph-name="X" unicode="X" horiz-adv-x="612" 
d="M313 278h-11q-38 -63 -84 -128l-109 -150h-133l3 13l252 335l-132 329l2 13h123l54 -149q29 -78 41 -126h11q72 111 84 128l107 147h132l-3 -13l-248 -329l135 -335l-3 -13h-124l-56 151q-17 47 -41 127z" />
    <glyph glyph-name="Y" unicode="Y" horiz-adv-x="614" 
d="M195 0l48 266l-158 411l3 13h117l63 -171q33 -91 45 -150h10q69 114 94 149l124 172h128l-3 -13l-303 -411l-47 -266h-121z" />
    <glyph glyph-name="Z" unicode="Z" horiz-adv-x="557" 
d="M-12 0l14 84l326 413q36 47 93 91v7q-50 -6 -101 -6h-209l18 101h457l-13 -72l-341 -428q-8 -10 -83 -88v-8q37 8 99 8h226l-18 -102h-468z" />
    <glyph glyph-name="bracketleft" unicode="[" horiz-adv-x="307" 
d="M76 -153h132l-11 -67h-214l166 940h214l-13 -67h-131z" />
    <glyph glyph-name="backslash" unicode="\" horiz-adv-x="350" 
d="M186 0l-84 690h81l83 -690h-80z" />
    <glyph glyph-name="bracketright" unicode="]" horiz-adv-x="307" 
d="M-57 -153h131l143 806h-132l12 67h212l-165 -940h-213z" />
    <glyph glyph-name="asciicircum" unicode="^" horiz-adv-x="548" 
d="M357 721h90l111 -295h-86l-72 228h-12l-155 -228h-92z" />
    <glyph glyph-name="underscore" unicode="_" horiz-adv-x="388" 
d="M-47 -20h372l-15 -87h-372z" />
    <glyph glyph-name="grave" unicode="`" horiz-adv-x="511" 
d="M408 540l-82 130l2 10h121l54 -130l-2 -10h-93z" />
    <glyph glyph-name="a" unicode="a" horiz-adv-x="570" 
d="M333 123l43 242q-26 48 -79 48q-57 0 -99.5 -61.5t-42.5 -165.5q0 -56 23 -82.5t60 -26.5q55 0 95 46zM187 -10q-69 0 -112.5 49t-43.5 145q0 136 69 226t164 90q87 0 130 -64h6l26 54h88l-64 -364q-6 -26 -2.5 -37.5t18.5 -11.5q20 0 40 11l-13 -84q-40 -14 -79 -14
q-75 0 -81 64h-5q-69 -64 -141 -64z" />
    <glyph glyph-name="b" unicode="b" horiz-adv-x="549" 
d="M18 0l129 720h116l-49 -275h4q55 55 127 55q64 0 110 -49t46 -142q0 -153 -72 -236t-167 -83q-82 0 -125 61h-5l-25 -51h-89zM200 366l-43 -244q23 -45 79 -45q59 0 102.5 56.5t43.5 165.5q0 60 -24.5 87t-62.5 27q-50 0 -95 -47z" />
    <glyph glyph-name="c" unicode="c" horiz-adv-x="510" 
d="M31 181q0 87 27 157t89 116t151 46q51 0 89 -14.5t57 -37t27.5 -44t8.5 -42.5q0 -31 -8 -51l-116 -3q6 18 6 41q0 25 -16.5 44.5t-54.5 19.5q-67 0 -103 -66.5t-36 -159.5q0 -51 20.5 -80.5t60.5 -29.5q46 0 73.5 29t27.5 76l114 -3q0 -83 -53.5 -136t-165.5 -53
q-94 0 -146 51t-52 140z" />
    <glyph glyph-name="d" unicode="d" horiz-adv-x="571" 
d="M334 123l43 243q-31 47 -81 47q-60 0 -101.5 -54t-41.5 -165q0 -61 23.5 -89t61.5 -28q56 0 96 46zM334 54h-5q-69 -64 -149 -64q-64 0 -106 49t-42 145q0 153 71 234.5t163 81.5q83 0 120 -55h4l50 275h117l-106 -594q-5 -25 -2 -37t18 -12q20 0 40 11l-13 -84
q-40 -14 -79 -14q-75 0 -81 64z" />
    <glyph glyph-name="e" unicode="e" horiz-adv-x="520" 
d="M31 177q0 141 68 232t196 91q87 0 137.5 -43.5t50.5 -112.5q0 -59 -23 -109h-308q-6 -31 -6 -57q0 -103 84 -103q47 0 78 24.5t31 69.5l109 -3q0 -84 -63.5 -130t-155.5 -46q-100 0 -149 49t-49 138zM165 307h201q7 15 7 39q0 36 -22.5 54.5t-57.5 18.5q-99 0 -128 -112z
" />
    <glyph glyph-name="f" unicode="f" horiz-adv-x="375" 
d="M240 413l-85 -478q-14 -78 -54.5 -111.5t-108.5 -33.5q-52 0 -94 21l20 84q27 -19 59 -19q21 0 39 16.5t25 53.5l83 467h-82l14 77h81l14 73q32 167 186 167q60 0 105 -21l-30 -87q-34 21 -71 21q-61 0 -75 -80l-13 -73h137l-14 -77h-136z" />
    <glyph glyph-name="g" unicode="g" horiz-adv-x="555" 
d="M33 -34l106 -7q-11 -22 -11 -39q0 -44 70 -44q48 0 78 28.5t44 98.5l11 66h-5q-48 -53 -129 -53q-70 0 -118.5 46.5t-48.5 142.5q0 124 69.5 209.5t175.5 85.5q85 0 123 -69h6l30 59h86l-86 -487q-37 -213 -239 -213q-88 0 -135 30.5t-47 81.5q0 36 20 64zM243 103
q49 0 99 48l41 207q-10 23 -33 39t-49 16q-66 0 -108 -60t-42 -142q0 -56 26 -82t66 -26z" />
    <glyph glyph-name="h" unicode="h" horiz-adv-x="566" 
d="M207 411h5q46 89 138 89q69 0 106.5 -36t37.5 -101q0 -26 -5 -51l-33 -186q-3 -15 -3 -26q0 -23 20 -23q21 0 40 12l-13 -85q-40 -14 -79 -14q-43 0 -65 20.5t-22 56.5q0 14 4 40l36 205q3 20 3 36q0 65 -66 65q-43 0 -80 -43.5t-53 -134.5l-41 -235h-118l128 720h117z
" />
    <glyph glyph-name="i" unicode="i" horiz-adv-x="279" 
d="M120 574l19 113h117l-19 -113h-117zM222 490l-64 -363q-5 -26 -1 -37.5t19 -11.5q19 0 39 11l-13 -85q-40 -14 -79 -14q-40 0 -63.5 22.5t-23.5 66.5q0 13 5 43l63 368h118z" />
    <glyph glyph-name="j" unicode="j" horiz-adv-x="262" 
d="M228 490l-91 -514q-34 -186 -180 -186q-49 0 -95 16l28 85q39 -15 62 -15q50 0 68 100l91 514h117zM126 574l20 113h116l-20 -113h-116z" />
    <glyph glyph-name="k" unicode="k" horiz-adv-x="540" 
d="M415 104q10 -25 34 -25q21 0 37 9l-15 -86q-31 -12 -75 -12q-27 0 -45 11t-25 24t-14 33q-56 151 -71 166h-66l-39 -224h-117l127 720h117l-74 -418l57 5q12 11 79.5 93.5t76.5 89.5h130l-2 -14q-9 -8 -91 -102.5t-95 -106.5q20 -32 71 -163z" />
    <glyph glyph-name="l" unicode="l" horiz-adv-x="282" 
d="M262 720l-103 -580q-3 -18 -3 -30q0 -18 8 -25.5t26 -7.5q23 0 50 12l-13 -85q-42 -14 -86 -14q-103 0 -103 101q0 26 5 51l103 578h116z" />
    <glyph glyph-name="m" unicode="m" horiz-adv-x="873" 
d="M214 405h5q49 95 150 95q57 0 91 -27t44 -73h6q54 100 148 100q69 0 106.5 -36t37.5 -101q0 -21 -6 -51l-33 -186q-9 -49 18 -49q18 0 39 12l-12 -85q-44 -14 -80 -14q-43 0 -65 20.5t-22 56.5q0 14 4 40l36 205q3 20 3 36q0 65 -64 65q-42 0 -78 -43.5t-51 -134.5
l-40 -235h-116l55 312q4 26 4 36q0 65 -63 65q-42 0 -78.5 -43.5t-52.5 -134.5l-41 -235h-118l65 368q8 45 -22 45q-20 0 -36 -10l8 84q32 13 77 13q41 0 62 -19.5t21 -50.5q0 -9 -2 -25z" />
    <glyph glyph-name="n" unicode="n" horiz-adv-x="589" 
d="M214 405h5q49 95 152 95q69 0 107 -36t38 -101q0 -26 -5 -51l-33 -186q-5 -23 -1 -36t19 -13q20 0 39 12l-13 -85q-40 -14 -79 -14q-86 0 -86 77q0 14 6 53l33 192q3 20 3 36q0 65 -66 65q-42 0 -79.5 -43.5t-53.5 -134.5l-41 -235h-118l65 368q8 45 -22 45
q-20 0 -36 -10l8 84q32 13 77 13q41 0 62 -19.5t21 -50.5q0 -9 -2 -25z" />
    <glyph glyph-name="o" unicode="o" horiz-adv-x="546" 
d="M32 183q0 144 67.5 230.5t194.5 86.5q98 0 151 -53t53 -142q0 -143 -68 -229t-195 -86q-99 0 -151 52t-52 141zM236 77q69 0 105.5 57.5t36.5 170.5q0 108 -85 108q-142 0 -142 -229q0 -107 85 -107z" />
    <glyph glyph-name="p" unicode="p" horiz-adv-x="570" 
d="M208 279l-29 -158q29 -44 79 -44q61 0 103 56.5t42 175.5q0 49 -22 76.5t-61 27.5t-70.5 -37t-41.5 -97zM212 405h5q49 95 145 95q68 0 115 -48t47 -136q0 -82 -21.5 -147t-57 -103t-76.5 -57t-84 -19q-76 0 -115 52h-5l-42 -242h-118l102 568q7 45 -23 45q-20 0 -36 -10
l8 84q35 13 77 13q41 0 61.5 -19.5t20.5 -50.5q0 -1 -3 -25z" />
    <glyph glyph-name="q" unicode="q" horiz-adv-x="549" 
d="M515 490l-123 -690h-114l47 262h-6q-47 -72 -131 -72q-65 0 -110.5 49t-45.5 142q0 153 71.5 236t165.5 83q85 0 126 -64h6l26 54h88zM377 368q-25 45 -81 45q-58 0 -100.5 -56t-42.5 -168q0 -58 23.5 -85t61.5 -27q36 0 68 37t43 99z" />
    <glyph glyph-name="r" unicode="r" horiz-adv-x="460" 
d="M305 411q-31 0 -58.5 -40t-40.5 -112l-47 -259h-118l65 368q8 45 -22 45q-20 0 -36 -10l8 84q32 13 77 13q41 0 60.5 -19t19.5 -50q0 -14 -3 -26h6q49 95 130 95q50 0 77.5 -30t27.5 -78q0 -41 -22 -96l-101 6q14 40 14 61q0 22 -9.5 35t-27.5 13z" />
    <glyph glyph-name="s" unicode="s" horiz-adv-x="496" 
d="M22 168l107 3q-6 -18 -6 -36q0 -60 89 -60q49 0 74.5 18t25.5 46q0 21 -14.5 32.5t-45.5 19.5l-58 16q-68 19 -101.5 49.5t-33.5 80.5q0 72 56.5 117.5t162.5 45.5q98 0 138.5 -36.5t40.5 -86.5q0 -25 -7 -49l-105 -3q6 15 6 36t-19 37t-60 16q-47 0 -72 -18.5t-25 -45.5
q0 -17 10.5 -29t22.5 -16.5t32 -9.5l62 -15q128 -30 128 -126q0 -70 -54.5 -117t-169.5 -47q-103 0 -147.5 39t-44.5 92q0 23 8 47z" />
    <glyph glyph-name="t" unicode="t" horiz-adv-x="396" 
d="M74 159l44 254h-81l13 77h92l48 111h77l-19 -111h152l-14 -77h-151l-43 -243q-5 -25 -5 -46q0 -40 44 -40q41 0 98 31l-11 -99q-63 -26 -123 -26q-61 0 -94.5 30.5t-33.5 78.5q0 21 7 60z" />
    <glyph glyph-name="u" unicode="u" horiz-adv-x="570" 
d="M341 85h-6q-47 -95 -153 -95q-67 0 -104.5 36t-37.5 101q0 26 5 51l56 312h118l-58 -312q-4 -26 -4 -36q0 -65 66 -65q42 0 78.5 43.5t52.5 134.5l42 235h117l-65 -368q-8 -45 23 -45q18 0 36 10l-9 -84q-35 -13 -77 -13q-40 0 -61.5 19.5t-21.5 50.5q0 13 3 25z" />
    <glyph glyph-name="v" unicode="v" horiz-adv-x="549" 
d="M332 490l124 10q47 -68 47 -169q0 -159 -77.5 -250t-197.5 -91q-85 0 -126.5 41t-41.5 115q0 24 4 45l31 173q9 49 -18 49q-20 0 -39 -12l13 85q40 14 78 14q87 0 87 -77q0 -14 -4 -40l-33 -194q-4 -28 -4 -39q0 -73 62 -73q59 0 105 66t46 187q0 82 -56 160z" />
    <glyph glyph-name="w" unicode="w" horiz-adv-x="826" 
d="M608 490l124 10q47 -73 47 -179q0 -153 -73.5 -242t-184.5 -89q-54 0 -90 24.5t-53 64.5h-3q-32 -43 -69.5 -66t-95.5 -23q-69 0 -109.5 39t-40.5 112q0 21 6 53l30 165q10 54 -17 54q-20 0 -39 -12l12 85q42 14 79 14q89 0 87 -83q0 -12 -9 -68l-27 -151q-5 -28 -5 -47
q0 -74 62 -74q86 0 112 154l44 259h113l-50 -287q-6 -34 -6 -49q0 -77 72 -77q53 0 96 64t43 179q0 98 -55 170z" />
    <glyph glyph-name="x" unicode="x" horiz-adv-x="550" 
d="M222 436l18 -44q24 -61 30 -86h4q29 46 61 87l75 97h128l-3 -13l-194 -226l73 -145q14 -27 37 -27q19 0 39 11l-15 -86q-36 -14 -75 -14q-35 0 -53 16.5t-32 50.5l-23 55q-14 34 -28 80h-5q-27 -50 -55 -85l-83 -107h-128l2 13l197 234l-67 137q-13 27 -39 27
q-17 0 -39 -11l16 86q34 14 75 14q36 0 53 -15.5t31 -48.5z" />
    <glyph glyph-name="y" unicode="y" horiz-adv-x="540" 
d="M191 -1l-87 385q-5 25 -29 25q-17 0 -39 -11l15 88q36 14 73 14q38 0 55 -16.5t24 -53.5l44 -225q10 -48 12 -115h10q27 85 41 118l125 282h119l-2 -13l-270 -538q-40 -80 -84 -114.5t-117 -34.5q-51 0 -105 12l22 86q36 -11 79 -11q64 0 94 73z" />
    <glyph glyph-name="z" unicode="z" horiz-adv-x="455" 
d="M-11 0l14 79l231 261q27 30 69 60v9q-45 -6 -93 -6h-140l16 87h361l-12 -69l-235 -266q-26 -30 -74 -66v-8q46 6 97 6h153l-16 -87h-371z" />
    <glyph glyph-name="braceleft" unicode="{" horiz-adv-x="299" 
d="M25 -102q0 47 34 138.5t34 131.5q0 30 -18.5 41.5t-62.5 11.5l15 81q55 0 76.5 17.5t28.5 71.5q4 30 7 98t6 94q10 87 52 117t142 30l-14 -76q-43 0 -63 -14.5t-26 -58.5q-4 -27 -7 -94.5t-6 -96.5q-5 -41 -21 -68.5t-30.5 -36.5t-38.5 -19l-1 -8q54 -19 54 -79
q0 -50 -34 -141t-34 -126q0 -26 16.5 -36t51.5 -10l-13 -76q-148 0 -148 108z" />
    <glyph glyph-name="bar" unicode="|" horiz-adv-x="288" 
d="M97 -200v920h81v-920h-81z" />
    <glyph glyph-name="braceright" unicode="}" horiz-adv-x="299" 
d="M143 -58q-10 -89 -51.5 -120.5t-141.5 -31.5l14 76q43 0 63 15t26 61q4 30 7 95t7 95q8 63 31 89.5t58 36.5l1 8q-53 25 -53 80q0 45 33.5 138t33.5 124q0 26 -16.5 36t-51.5 10l13 76q148 0 148 -104q0 -44 -34 -139t-34 -132q0 -30 18.5 -41.5t62.5 -11.5l-14 -81
q-56 0 -78 -17.5t-29 -71.5q-4 -29 -7 -94.5t-6 -95.5z" />
    <glyph glyph-name="asciitilde" unicode="~" horiz-adv-x="508" 
d="M50 211q4 56 33 97.5t82 41.5q36 0 93 -31q54 -30 82 -30q30 0 34 50h78q0 -56 -30 -97.5t-83 -41.5q-40 0 -93 29q-62 30 -81 30q-34 0 -36 -48h-79z" />
    <glyph glyph-name="uni00A0" unicode="&#xa0;" horiz-adv-x="255" 
 />
    <glyph glyph-name="exclamdown" unicode="&#xa1;" horiz-adv-x="266" 
d="M152 246l-13 -256l-34 -190h-118l33 190l78 256h54zM238 490l-24 -133h-138l24 133h138z" />
    <glyph glyph-name="cent" unicode="&#xa2;" horiz-adv-x="473" 
d="M197 -50h-61l16 49q-119 35 -119 186q0 85 27 154.5t87.5 115t147.5 45.5q14 0 21 -1l16 47h60l-18 -56q55 -16 88 -55l-51 -79q-26 35 -64 52l-110 -336q63 1 129 64l6 -97q-63 -49 -153 -49h-9zM142 193q0 -78 39 -105l109 330q-71 -2 -109.5 -64.5t-38.5 -160.5z" />
    <glyph glyph-name="sterling" unicode="&#xa3;" horiz-adv-x="586" 
d="M50 341h97q-9 59 -9 98q0 119 69 190t183 71q56 0 97 -16t62 -42.5t30 -53.5t9 -55q0 -30 -12 -66l-118 -2q9 41 9 49q0 38 -20.5 62.5t-63.5 24.5q-53 0 -88 -40t-35 -123q0 -33 10 -97h192l-12 -67h-172q1 -5 1 -15q0 -41 -17.5 -75.5t-36 -51.5t-46.5 -36l1 -6
q42 9 127 9h173l-18 -99h-449l12 71q132 69 132 180q0 3 -0.5 11t-0.5 12h-118z" />
    <glyph glyph-name="currency" unicode="&#xa4;" horiz-adv-x="617" 
d="M311 91q-71 0 -125 37l-56 -56l-57 57l55 55q-35 57 -35 127q0 69 35 125l-54 54l57 56l55 -54q54 38 125 38q72 0 126 -37l55 54l57 -57l-56 -55q36 -53 36 -124t-37 -127l58 -56l-58 -57l-57 57q-52 -37 -124 -37zM311 166q63 0 101 40.5t38 104.5t-38.5 104.5
t-100.5 40.5q-63 0 -102 -41t-39 -104q0 -64 39 -104.5t102 -40.5z" />
    <glyph glyph-name="yen" unicode="&#xa5;" horiz-adv-x="632" 
d="M102 263l12 67h119l-134 347l3 13h114l58 -171q17 -51 41 -143h12q27 45 93 142l118 172h130l-3 -13l-256 -347h119l-12 -67h-146l-14 -77h147l-11 -66h-148l-22 -120h-120l21 120h-146l11 66h147l14 77h-147z" />
    <glyph glyph-name="brokenbar" unicode="&#xa6;" horiz-adv-x="269" 
d="M106 -199v350h80v-350h-80zM106 721h80v-325h-80v325z" />
    <glyph glyph-name="section" unicode="&#xa7;" horiz-adv-x="592" 
d="M-6 4l120 3q-6 -22 -6 -38q0 -83 115 -83q140 0 140 87q0 48 -61 70l-139 48q-59 21 -91 49t-32 79q0 59 34.5 102t96.5 63q-75 38 -75 123q0 88 72.5 140.5t186.5 52.5q54 0 95.5 -10t65.5 -25.5t39 -37t20 -40t5 -38.5q0 -28 -9 -53l-119 -2q7 21 7 37q0 73 -106 73
q-63 0 -95 -25t-32 -65q0 -24 18 -42t46 -27l123 -38q66 -20 95.5 -51t29.5 -80q0 -123 -120 -168q74 -41 74 -120q0 -90 -71 -144t-204 -54q-69 0 -118 16t-72 42t-32.5 51.5t-9.5 52.5q0 22 9 52zM165 245q0 -26 15.5 -41t48.5 -25l100 -31q34 8 59.5 33t25.5 65
q0 30 -15 45t-45 25l-98 28q-43 -8 -67 -34.5t-24 -64.5z" />
    <glyph glyph-name="dieresis" unicode="&#xa8;" horiz-adv-x="507" 
d="M177 558l18 106h119l-19 -106h-118zM425 558l18 106h119l-19 -106h-118z" />
    <glyph glyph-name="copyright" unicode="&#xa9;" horiz-adv-x="805" 
d="M55 345q0 154 101 254.5t256 100.5t256.5 -100.5t101.5 -254.5t-101.5 -254.5t-256.5 -100.5t-256 100.5t-101 254.5zM121 345q0 -131 80.5 -214t210.5 -83t211 83.5t81 213.5t-81 213.5t-211 83.5t-210.5 -83t-80.5 -214zM214 344q0 102 53 159t142 57q53 0 91 -17
t54.5 -43.5t22.5 -51t3 -46.5l-91 -6q1 39 -20 60t-60 21q-44 0 -72 -34.5t-28 -98.5t27 -98t72 -34q39 0 60.5 21.5t20.5 60.5l91 -2q3 -22 -3 -47t-22 -52.5t-54 -45.5t-92 -18q-89 0 -142 57t-53 158z" />
    <glyph glyph-name="ordfeminine" unicode="&#xaa;" horiz-adv-x="460" 
d="M207 563l-89 -6q1 64 43 98.5t119 34.5q90 0 120 -34t20 -90l-24 -142q-3 -20 10 -20q1 0 19 3l-8 -65q-31 -9 -58 -9q-59 0 -53 54h-4q-16 -17 -49.5 -35.5t-72.5 -18.5q-104 0 -104 80q0 121 243 125l5 33q5 23 -7.5 37.5t-41.5 14.5q-32 0 -51.5 -14.5t-16.5 -45.5z
M173 429q0 -15 10.5 -24t29.5 -9q48 0 88 40l9 57q-137 -3 -137 -64zM81 206l10 67h289l-11 -67h-288z" />
    <glyph glyph-name="guillemotleft" unicode="&#xab;" horiz-adv-x="519" 
d="M180 452h116l-170 -179l-2 -10l110 -167h-104l-103 157l8 44zM380 452h118l-171 -179l-2 -10l110 -167h-104l-102 157l8 44z" />
    <glyph glyph-name="logicalnot" unicode="&#xac;" horiz-adv-x="533" 
d="M350 123l31 175h-330l16 91h419l-47 -266h-89z" />
    <glyph glyph-name="uni00AD" unicode="&#xad;" horiz-adv-x="381" 
d="M45 228l16 91h268l-15 -91h-269z" />
    <glyph glyph-name="registered" unicode="&#xae;" horiz-adv-x="528" 
d="M299 291q-95 0 -156.5 62.5t-61.5 157.5t61.5 157t156.5 62t156.5 -62t61.5 -157t-62 -157.5t-156 -62.5zM299 333q78 0 125 49.5t47 128.5t-47.5 128.5t-124.5 49.5t-125 -49.5t-48 -128.5t47.5 -128.5t125.5 -49.5zM215 400v232h74q96 0 96 -70q0 -11 -3.5 -21t-8 -16
t-11 -11t-11 -7.5t-9.5 -4.5l-4 -2q1 -1 17 -22.5t33.5 -42.5t21.5 -23v-12h-52q-7 3 -35.5 45.5t-34.5 45.5h-24v-91h-49zM265 528h25q42 0 42 32q0 31 -42 31h-25v-63z" />
    <glyph glyph-name="macron" unicode="&#xaf;" horiz-adv-x="500" 
d="M211 573l15 85h299l-16 -85h-298z" />
    <glyph glyph-name="degree" unicode="&#xb0;" horiz-adv-x="416" 
d="M226 353q-71 0 -109.5 41t-38.5 103q0 86 54.5 147.5t135.5 61.5q73 0 112.5 -41.5t39.5 -105.5q0 -85 -56 -145.5t-138 -60.5zM233 441q42 0 68.5 30t26.5 76q0 31 -16.5 51.5t-46.5 20.5q-43 0 -69.5 -31.5t-26.5 -77.5q0 -30 17 -49.5t47 -19.5z" />
    <glyph glyph-name="plusminus" unicode="&#xb1;" 
d="M557 346h-162l-23 -128h-95l23 128h-163l17 91h161l25 136h95l-24 -136h162zM510 80h-420l16 91h420z" />
    <glyph glyph-name="twosuperior" unicode="&#xb2;" horiz-adv-x="355" 
d="M183 467l1 -3q28 5 72 5h90l-12 -69h-275l10 57l178 135q48 36 48 81q0 20 -12 33.5t-35 13.5q-63 0 -63 -87l-81 -4q0 70 37 113t114 43q65 0 97.5 -29.5t32.5 -77.5q0 -74 -88 -135l-69 -47q-11 -8 -26 -17t-19 -12z" />
    <glyph glyph-name="threesuperior" unicode="&#xb3;" horiz-adv-x="371" 
d="M75 536l85 2q-3 -10 -3 -22q0 -23 13.5 -39t42.5 -16q32 0 52.5 18t20.5 46q0 41 -54 41h-33l10 62h34q31 0 47 14t16 38q0 39 -49 39q-65 0 -70 -65l-78 1q0 58 43.5 94t108.5 36q63 0 98.5 -24t35.5 -69q0 -41 -26.5 -65t-51.5 -27l-1 -5q22 -3 40.5 -21t18.5 -50
q0 -59 -47.5 -94.5t-116.5 -35.5q-42 0 -71.5 11.5t-43.5 29.5t-19.5 35t-5.5 35q0 19 4 31z" />
    <glyph glyph-name="acute" unicode="&#xb4;" horiz-adv-x="488" 
d="M217 540l2 10l98 130h137l-2 -10l-126 -130h-109z" />
    <glyph glyph-name="mu" unicode="&#xb5;" horiz-adv-x="534" 
d="M-25 -200l122 690h117l-51 -294q-13 -67 2.5 -93t55.5 -26q58 0 104 62l63 351h116l-86 -490h-86l-3 70h-6q-64 -80 -142 -80q-31 0 -51 25l-37 -215h-118z" />
    <glyph glyph-name="paragraph" unicode="&#xb6;" horiz-adv-x="598" 
d="M74 481q0 125 67 182t180 57h87l-162 -920h-89l93 530q-176 0 -176 151zM345 -200l162 920h89l-162 -920h-89z" />
    <glyph glyph-name="periodcentered" unicode="&#xb7;" horiz-adv-x="263" 
d="M138 256q-33 0 -54.5 20.5t-21.5 51.5q0 32 21 52.5t55 20.5q32 0 53 -20.5t21 -52.5q0 -31 -21 -51.5t-53 -20.5z" />
    <glyph glyph-name="cedilla" unicode="&#xb8;" horiz-adv-x="482" 
d="M195 -68l85 22q18 -36 18 -78q0 -60 -36.5 -95t-104.5 -35q-56 0 -82 24l22 74q31 -23 55 -23q27 0 40.5 16.5t13.5 43.5q0 23 -11 51z" />
    <glyph glyph-name="onesuperior" unicode="&#xb9;" horiz-adv-x="245" 
d="M113 400l44 250h-80l12 64q52 0 76 14.5t31 51.5h70l-67 -380h-86z" />
    <glyph glyph-name="ordmasculine" unicode="&#xba;" horiz-adv-x="458" 
d="M86 473q0 97 53 157t149 60q80 0 119 -37.5t39 -102.5q0 -98 -53 -157.5t-148 -59.5q-80 0 -119.5 37t-39.5 103zM247 403q98 0 98 143q0 73 -60 73q-97 0 -97 -143q0 -73 59 -73zM90 206l11 67h262l-11 -67h-262z" />
    <glyph glyph-name="guillemotright" unicode="&#xbb;" horiz-adv-x="521" 
d="M336 96h-117l171 179l2 10l-110 167h103l103 -157l-8 -44zM135 96h-117l170 179l2 10l-110 167h104l102 -157l-8 -44z" />
    <glyph glyph-name="onequarter" unicode="&#xbc;" horiz-adv-x="765" 
d="M47 0l2 10l504 680h88l-2 -10l-503 -680h-89zM118 310l44 250h-80l12 64q52 0 76 14.5t31 51.5h70l-67 -380h-86zM363 78l9 56l214 246h104l-42 -237h54l-12 -65h-53l-14 -78h-88l13 78h-185zM459 142h103l34 159h-5l-132 -156v-3z" />
    <glyph glyph-name="onehalf" unicode="&#xbd;" horiz-adv-x="775" 
d="M47 0l2 10l504 680h88l-2 -10l-503 -680h-89zM118 310l44 250h-80l12 64q52 0 76 14.5t31 51.5h70l-67 -380h-86zM524 67l1 -3q27 5 72 5h90l-12 -69h-275l10 57l178 135q48 36 48 81q0 20 -12 33.5t-35 13.5q-63 0 -63 -87l-81 -4q0 70 37 113t114 43q65 0 97.5 -29.5
t32.5 -77.5q0 -74 -88 -135l-69 -47q-11 -8 -26 -17t-19 -12z" />
    <glyph glyph-name="threequarters" unicode="&#xbe;" horiz-adv-x="868" 
d="M152 0l2 10l504 680h88l-2 -10l-503 -680h-89zM467 78l9 56l214 246h104l-42 -237h54l-12 -65h-53l-14 -78h-88l13 78h-185zM563 142h103l34 159h-5l-132 -156v-3zM69 446l85 2q-3 -11 -3 -22q0 -23 13.5 -39t42.5 -16q32 0 52.5 18t20.5 46q0 41 -54 41h-33l10 62h34
q31 0 47 14t16 38q0 39 -49 39q-65 0 -70 -65l-78 1q0 58 43.5 94t108.5 36q63 0 98.5 -24t35.5 -69q0 -41 -26.5 -65t-51.5 -27l-1 -5q22 -3 40.5 -21t18.5 -50q0 -59 -47.5 -94.5t-116.5 -35.5q-42 0 -71.5 11.5t-43.5 29.5t-19.5 35t-5.5 35q0 19 4 31z" />
    <glyph glyph-name="questiondown" unicode="&#xbf;" horiz-adv-x="493" 
d="M322 247q2 -12 2 -20q0 -49 -30 -84.5t-88 -70.5q-62 -38 -78 -55q-22 -26 -22 -61q0 -31 19.5 -50t57.5 -19q47 0 78 34.5t31 83.5v10l120 -3v-4q0 -25 -7 -52t-24 -57t-43 -53.5t-67.5 -39t-92.5 -15.5q-96 0 -147.5 42.5t-51.5 111.5q0 94 82 153q20 14 83 49
q40 23 60.5 43.5t20.5 50.5v6h97zM385 491l-23 -133h-138l24 133h137z" />
    <glyph glyph-name="Agrave" unicode="&#xc0;" horiz-adv-x="660" 
d="M-31 0l359 690h145l116 -690h-119l-28 168h-257l-87 -168h-129zM226 261h208l-31 200q-9 56 -13 122h-6q-27 -65 -54 -120zM377 740l-82 130l2 10h121l54 -130l-2 -10h-93z" />
    <glyph glyph-name="Aacute" unicode="&#xc1;" horiz-adv-x="660" 
d="M-31 0l359 690h145l116 -690h-119l-28 168h-257l-87 -168h-129zM226 261h208l-31 200q-9 56 -13 122h-6q-27 -65 -54 -120zM345 740l2 10l98 130h137l-2 -10l-126 -130h-109z" />
    <glyph glyph-name="Acircumflex" unicode="&#xc2;" horiz-adv-x="660" 
d="M-31 0l359 690h145l116 -690h-119l-28 168h-257l-87 -168h-129zM226 261h208l-31 200q-9 56 -13 122h-6q-27 -65 -54 -120zM233 740l2 10l124 130h154l78 -130l-1 -10h-99l-56 94h-4l-91 -94h-107z" />
    <glyph glyph-name="Atilde" unicode="&#xc3;" horiz-adv-x="660" 
d="M-31 0l359 690h145l116 -690h-119l-28 168h-257l-87 -168h-129zM226 261h208l-31 200q-9 56 -13 122h-6q-27 -65 -54 -120zM243 747q24 143 119 143q38 0 60 -25l36 -34q13 -13 25 -13q28 0 39 61h85q-23 -144 -123 -144q-36 0 -63 27l-31 29q-15 15 -26 15
q-26 0 -39 -59h-82z" />
    <glyph glyph-name="Adieresis" unicode="&#xc4;" horiz-adv-x="660" 
d="M-31 0l359 690h145l116 -690h-119l-28 168h-257l-87 -168h-129zM226 261h208l-31 200q-9 56 -13 122h-6q-27 -65 -54 -120zM231 758l18 106h119l-19 -106h-118zM479 758l18 106h119l-19 -106h-118z" />
    <glyph glyph-name="Aring" unicode="&#xc5;" horiz-adv-x="660" 
d="M-31 0l355 683q-28 26 -28 69q0 56 39 94.5t95 38.5q44 0 72.5 -27t28.5 -68q0 -69 -57 -109l115 -681h-119l-28 168h-257l-87 -168h-129zM226 261h208l-31 200q-10 76 -13 122h-6q-22 -54 -55 -120zM402 712q31 0 49 20t18 52q0 20 -11.5 32.5t-33.5 12.5
q-31 0 -50 -19.5t-19 -49.5q0 -21 12.5 -34.5t34.5 -13.5z" />
    <glyph glyph-name="AE" unicode="&#xc6;" horiz-adv-x="919" 
d="M376 0l29 169h-195l-105 -169h-144l452 690h523l-17 -100h-319l-34 -191h268l-17 -100h-268l-36 -198h319l-18 -101h-438zM266 260h155l58 333h-9z" />
    <glyph glyph-name="Ccedilla" unicode="&#xc7;" horiz-adv-x="679" 
d="M412 600q-99 0 -163.5 -88t-64.5 -237q0 -88 37 -136.5t101 -48.5q78 0 126 45t49 122l122 -4q0 -31 -8 -64t-29.5 -69.5t-54 -64.5t-86.5 -46.5t-122 -18.5q-125 0 -194 73.5t-69 203.5q0 201 99.5 317t262.5 116q71 0 122.5 -19t77 -50t36.5 -61.5t11 -62.5
q0 -37 -11 -70l-125 -4q7 28 7 50q0 56 -31.5 86.5t-92.5 30.5zM262 -68l85 22q18 -36 18 -78q0 -60 -36.5 -95t-104.5 -35q-56 0 -82 24l22 74q31 -23 55 -23q27 0 40.5 16.5t13.5 43.5q0 23 -11 51z" />
    <glyph glyph-name="Egrave" unicode="&#xc8;" horiz-adv-x="579" 
d="M36 0l122 690h438l-17 -100h-319l-33 -191h268l-18 -100h-268l-35 -198h319l-19 -101h-438zM345 740l-82 130l2 10h121l54 -130l-2 -10h-93z" />
    <glyph glyph-name="Eacute" unicode="&#xc9;" horiz-adv-x="579" 
d="M36 0l122 690h438l-17 -100h-319l-33 -191h268l-18 -100h-268l-35 -198h319l-19 -101h-438zM318 740l2 10l98 130h137l-2 -10l-126 -130h-109z" />
    <glyph glyph-name="Ecircumflex" unicode="&#xca;" horiz-adv-x="579" 
d="M36 0l122 690h438l-17 -100h-319l-33 -191h268l-18 -100h-268l-35 -198h319l-19 -101h-438zM205 740l2 10l124 130h154l78 -130l-1 -10h-99l-56 94h-4l-91 -94h-107z" />
    <glyph glyph-name="Edieresis" unicode="&#xcb;" horiz-adv-x="579" 
d="M36 0l122 690h438l-17 -100h-319l-33 -191h268l-18 -100h-268l-35 -198h319l-19 -101h-438zM207 758l18 106h119l-19 -106h-118zM455 758l18 106h119l-19 -106h-118z" />
    <glyph glyph-name="Igrave" unicode="&#xcc;" horiz-adv-x="294" 
d="M36 0l122 690h120l-122 -690h-120zM183 740l-82 130l2 10h121l54 -130l-2 -10h-93z" />
    <glyph glyph-name="Iacute" unicode="&#xcd;" horiz-adv-x="294" 
d="M36 0l122 690h120l-122 -690h-120zM170 740l2 10l98 130h137l-2 -10l-126 -130h-109z" />
    <glyph glyph-name="Icircumflex" unicode="&#xce;" horiz-adv-x="294" 
d="M36 0l122 690h120l-122 -690h-120zM48 740l2 10l124 130h154l78 -130l-1 -10h-99l-56 94h-4l-91 -94h-107z" />
    <glyph glyph-name="Idieresis" unicode="&#xcf;" horiz-adv-x="294" 
d="M36 0l122 690h120l-122 -690h-120zM51 758l18 106h119l-19 -106h-118zM299 758l18 106h119l-19 -106h-118z" />
    <glyph glyph-name="Eth" unicode="&#xd0;" horiz-adv-x="690" 
d="M37 306l15 86h54l53 298h216q275 0 275 -271q0 -200 -92.5 -309.5t-278.5 -109.5h-242l53 306h-53zM175 100h103q246 0 246 319q0 172 -160 172h-102l-36 -199h114l-16 -86h-113z" />
    <glyph glyph-name="Ntilde" unicode="&#xd1;" horiz-adv-x="717" 
d="M36 0l122 690h123l162 -400q26 -66 43 -129h8q4 68 19 153l67 376h121l-122 -690h-123l-162 393q-24 57 -46 136h-8q-3 -67 -19 -162l-65 -367h-120zM269 747q24 143 119 143q38 0 60 -25l36 -34q13 -13 25 -13q28 0 39 61h85q-23 -144 -123 -144q-36 0 -63 27l-31 29
q-15 15 -26 15q-26 0 -39 -59h-82z" />
    <glyph glyph-name="Ograve" unicode="&#xd2;" horiz-adv-x="719" 
d="M321 -10q-131 0 -198 71t-67 198q0 203 96 322t267 119q130 0 197 -71.5t67 -198.5q0 -202 -96.5 -321t-265.5 -119zM325 90q113 0 171.5 89.5t58.5 242.5q0 85 -35.5 131.5t-104.5 46.5q-114 0 -172.5 -90t-58.5 -243q0 -85 35.5 -131t105.5 -46zM410 740l-82 130l2 10
h121l54 -130l-2 -10h-93z" />
    <glyph glyph-name="Oacute" unicode="&#xd3;" horiz-adv-x="719" 
d="M321 -10q-131 0 -198 71t-67 198q0 203 96 322t267 119q130 0 197 -71.5t67 -198.5q0 -202 -96.5 -321t-265.5 -119zM325 90q113 0 171.5 89.5t58.5 242.5q0 85 -35.5 131.5t-104.5 46.5q-114 0 -172.5 -90t-58.5 -243q0 -85 35.5 -131t105.5 -46zM385 740l2 10l98 130
h137l-2 -10l-126 -130h-109z" />
    <glyph glyph-name="Ocircumflex" unicode="&#xd4;" horiz-adv-x="719" 
d="M321 -10q-131 0 -198 71t-67 198q0 203 96 322t267 119q130 0 197 -71.5t67 -198.5q0 -202 -96.5 -321t-265.5 -119zM325 90q113 0 171.5 89.5t58.5 242.5q0 85 -35.5 131.5t-104.5 46.5q-114 0 -172.5 -90t-58.5 -243q0 -85 35.5 -131t105.5 -46zM258 740l2 10l124 130
h154l78 -130l-1 -10h-99l-56 94h-4l-91 -94h-107z" />
    <glyph glyph-name="Otilde" unicode="&#xd5;" horiz-adv-x="719" 
d="M321 -10q-131 0 -198 71t-67 198q0 203 96 322t267 119q130 0 197 -71.5t67 -198.5q0 -202 -96.5 -321t-265.5 -119zM325 90q113 0 171.5 89.5t58.5 242.5q0 85 -35.5 131.5t-104.5 46.5q-114 0 -172.5 -90t-58.5 -243q0 -85 35.5 -131t105.5 -46zM271 747
q24 143 119 143q38 0 60 -25l36 -34q13 -13 25 -13q28 0 39 61h85q-23 -144 -123 -144q-36 0 -63 27l-31 29q-15 15 -26 15q-26 0 -39 -59h-82z" />
    <glyph glyph-name="Odieresis" unicode="&#xd6;" horiz-adv-x="719" 
d="M321 -10q-131 0 -198 71t-67 198q0 203 96 322t267 119q130 0 197 -71.5t67 -198.5q0 -202 -96.5 -321t-265.5 -119zM325 90q113 0 171.5 89.5t58.5 242.5q0 85 -35.5 131.5t-104.5 46.5q-114 0 -172.5 -90t-58.5 -243q0 -85 35.5 -131t105.5 -46zM259 758l18 106h119
l-19 -106h-118zM507 758l18 106h119l-19 -106h-118z" />
    <glyph glyph-name="multiply" unicode="&#xd7;" 
d="M232 482l108 -140l163 145l60 -72l-164 -146l107 -140l-73 -63l-108 140l-162 -144l-59 72l162 145l-108 140z" />
    <glyph glyph-name="Oslash" unicode="&#xd8;" horiz-adv-x="719" 
d="M321 -10q-101 0 -165 45l-29 -35h-86l65 78q-50 63 -50 181q0 203 96 322t267 119q103 0 167 -50l33 40h85l-70 -84q49 -65 49 -176q0 -202 -96.5 -321t-265.5 -119zM184 267q0 -58 12 -86l313 381q-36 38 -94 38q-114 0 -172.5 -90t-58.5 -243zM325 90q113 0 171.5 89.5
t58.5 242.5q0 47 -13 80l-310 -380q35 -32 93 -32z" />
    <glyph glyph-name="Ugrave" unicode="&#xd9;" horiz-adv-x="700" 
d="M83 307l67 383h121l-67 -377q-23 -126 4.5 -174.5t107.5 -48.5q79 0 122 48.5t66 174.5l67 377h120l-67 -383q-30 -172 -104.5 -244.5t-207.5 -72.5q-145 0 -202 73t-27 244zM384 740l-82 130l2 10h121l54 -130l-2 -10h-93z" />
    <glyph glyph-name="Uacute" unicode="&#xda;" horiz-adv-x="700" 
d="M83 307l67 383h121l-67 -377q-23 -126 4.5 -174.5t107.5 -48.5q79 0 122 48.5t66 174.5l67 377h120l-67 -383q-30 -172 -104.5 -244.5t-207.5 -72.5q-145 0 -202 73t-27 244zM364 740l2 10l98 130h137l-2 -10l-126 -130h-109z" />
    <glyph glyph-name="Ucircumflex" unicode="&#xdb;" horiz-adv-x="700" 
d="M83 307l67 383h121l-67 -377q-23 -126 4.5 -174.5t107.5 -48.5q79 0 122 48.5t66 174.5l67 377h120l-67 -383q-30 -172 -104.5 -244.5t-207.5 -72.5q-145 0 -202 73t-27 244zM249 740l2 10l124 130h154l78 -130l-1 -10h-99l-56 94h-4l-91 -94h-107z" />
    <glyph glyph-name="Udieresis" unicode="&#xdc;" horiz-adv-x="700" 
d="M83 307l67 383h121l-67 -377q-23 -126 4.5 -174.5t107.5 -48.5q79 0 122 48.5t66 174.5l67 377h120l-67 -383q-30 -172 -104.5 -244.5t-207.5 -72.5q-145 0 -202 73t-27 244zM249 758l18 106h119l-19 -106h-118zM497 758l18 106h119l-19 -106h-118z" />
    <glyph glyph-name="Yacute" unicode="&#xdd;" horiz-adv-x="614" 
d="M195 0l48 266l-158 411l3 13h117l63 -171q33 -91 45 -150h10q69 114 94 149l124 172h128l-3 -13l-303 -411l-47 -266h-121zM318 740l2 10l98 130h137l-2 -10l-126 -130h-109z" />
    <glyph glyph-name="Thorn" unicode="&#xde;" horiz-adv-x="581" 
d="M36 0l122 690h123l-18 -103h75q226 0 226 -198q0 -117 -73 -192.5t-213 -75.5h-97l-22 -121h-123zM198 216h82q79 0 121.5 47.5t42.5 116.5q0 48 -28.5 79.5t-85.5 31.5h-83z" />
    <glyph glyph-name="germandbls" unicode="&#xdf;" horiz-adv-x="587" 
d="M9 -54l96 546q18 105 81 171.5t169 66.5q98 0 149.5 -44.5t51.5 -122.5q0 -44 -13.5 -77.5t-39.5 -55t-44 -32t-44 -21.5l-1 -6q47 -9 82 -47t35 -99q0 -115 -68.5 -175t-180.5 -60q-40 0 -80 9l22 86q22 -8 54 -8q57 0 93.5 40t36.5 110q0 48 -31 74t-89 26h-13l15 86
h14q59 0 92.5 41.5t33.5 100.5q0 40 -22 64t-62 24q-46 0 -78 -37.5t-45 -105.5l-100 -565q-14 -78 -55 -111.5t-109 -33.5q-51 0 -93 21l20 84q27 -19 59 -19q51 0 64 70z" />
    <glyph glyph-name="agrave" unicode="&#xe0;" horiz-adv-x="570" 
d="M333 123l43 242q-26 48 -79 48q-57 0 -99.5 -61.5t-42.5 -165.5q0 -56 23 -82.5t60 -26.5q55 0 95 46zM187 -10q-69 0 -112.5 49t-43.5 145q0 136 69 226t164 90q87 0 130 -64h6l26 54h88l-64 -364q-6 -26 -2.5 -37.5t18.5 -11.5q20 0 40 11l-13 -84q-40 -14 -79 -14
q-75 0 -81 64h-5q-69 -64 -141 -64zM297 560l-82 130l2 10h121l54 -130l-2 -10h-93z" />
    <glyph glyph-name="aacute" unicode="&#xe1;" horiz-adv-x="570" 
d="M333 123l43 242q-26 48 -79 48q-57 0 -99.5 -61.5t-42.5 -165.5q0 -56 23 -82.5t60 -26.5q55 0 95 46zM187 -10q-69 0 -112.5 49t-43.5 145q0 136 69 226t164 90q87 0 130 -64h6l26 54h88l-64 -364q-6 -26 -2.5 -37.5t18.5 -11.5q20 0 40 11l-13 -84q-40 -14 -79 -14
q-75 0 -81 64h-5q-69 -64 -141 -64zM283 560l2 10l98 130h137l-2 -10l-126 -130h-109z" />
    <glyph glyph-name="acircumflex" unicode="&#xe2;" horiz-adv-x="570" 
d="M333 123l43 242q-26 48 -79 48q-57 0 -99.5 -61.5t-42.5 -165.5q0 -56 23 -82.5t60 -26.5q55 0 95 46zM187 -10q-69 0 -112.5 49t-43.5 145q0 136 69 226t164 90q87 0 130 -64h6l26 54h88l-64 -364q-6 -26 -2.5 -37.5t18.5 -11.5q20 0 40 11l-13 -84q-40 -14 -79 -14
q-75 0 -81 64h-5q-69 -64 -141 -64zM168 560l1 10l116 130h140l71 -130l-2 -10h-90l-51 86h-5l-82 -86h-98z" />
    <glyph glyph-name="atilde" unicode="&#xe3;" horiz-adv-x="570" 
d="M333 123l43 242q-26 48 -79 48q-57 0 -99.5 -61.5t-42.5 -165.5q0 -56 23 -82.5t60 -26.5q55 0 95 46zM187 -10q-69 0 -112.5 49t-43.5 145q0 136 69 226t164 90q87 0 130 -64h6l26 54h88l-64 -364q-6 -26 -2.5 -37.5t18.5 -11.5q20 0 40 11l-13 -84q-40 -14 -79 -14
q-75 0 -81 64h-5q-69 -64 -141 -64zM158 577q24 143 119 143q38 0 60 -25l36 -34q13 -13 25 -13q28 0 39 61h85q-23 -144 -123 -144q-36 0 -63 27l-31 29q-15 15 -26 15q-26 0 -39 -59h-82z" />
    <glyph glyph-name="adieresis" unicode="&#xe4;" horiz-adv-x="570" 
d="M333 123l43 242q-26 48 -79 48q-57 0 -99.5 -61.5t-42.5 -165.5q0 -56 23 -82.5t60 -26.5q55 0 95 46zM187 -10q-69 0 -112.5 49t-43.5 145q0 136 69 226t164 90q87 0 130 -64h6l26 54h88l-64 -364q-6 -26 -2.5 -37.5t18.5 -11.5q20 0 40 11l-13 -84q-40 -14 -79 -14
q-75 0 -81 64h-5q-69 -64 -141 -64zM407 578l18 106h109l-20 -106h-107zM175 578l19 106h108l-19 -106h-108z" />
    <glyph glyph-name="aring" unicode="&#xe5;" horiz-adv-x="570" 
d="M333 123l43 242q-26 48 -79 48q-57 0 -99.5 -61.5t-42.5 -165.5q0 -56 23 -82.5t60 -26.5q55 0 95 46zM187 -10q-69 0 -112.5 49t-43.5 145q0 136 69 226t164 90q87 0 130 -64h6l26 54h88l-64 -364q-6 -26 -2.5 -37.5t18.5 -11.5q20 0 40 11l-13 -84q-40 -14 -79 -14
q-75 0 -81 64h-5q-69 -64 -141 -64zM342 549q-44 0 -72 27t-28 68q0 56 39 94.5t95 38.5q44 0 72.5 -27t28.5 -68q0 -56 -39.5 -94.5t-95.5 -38.5zM348 604q31 0 49 20t18 52q0 20 -11.5 32.5t-33.5 12.5q-31 0 -50 -19.5t-19 -49.5q0 -21 12.5 -34.5t34.5 -13.5z" />
    <glyph glyph-name="ae" unicode="&#xe6;" horiz-adv-x="798" 
d="M175 321l-107 -6q-1 14 0 26q5 72 59 115.5t151 43.5q114 0 146 -73q56 73 155 73q90 0 136.5 -43t46.5 -113q0 -40 -21 -107h-307q-30 -162 75 -162q43 0 73.5 26.5t33.5 69.5l110 -2q2 -67 -59.5 -123t-165.5 -56q-62 0 -99 22.5t-58 67.5h-4q-98 -90 -195 -90
q-66 0 -100.5 30.5t-34.5 87.5q0 170 319 174l10 53q6 37 -10 59t-56 22q-98 0 -99 -80q-1 -4 1 -15zM127 122q0 -51 53 -51q67 0 123 63l16 87q-107 -1 -149.5 -27t-42.5 -72zM448 303h200q5 22 5 38q0 40 -21.5 61t-58.5 21q-46 0 -78.5 -31.5t-46.5 -88.5z" />
    <glyph glyph-name="ccedilla" unicode="&#xe7;" horiz-adv-x="510" 
d="M31 181q0 87 27 157t89 116t151 46q51 0 89 -14.5t57 -37t27.5 -44t8.5 -42.5q0 -31 -8 -51l-116 -3q6 18 6 41q0 25 -16.5 44.5t-54.5 19.5q-67 0 -103 -66.5t-36 -159.5q0 -51 20.5 -80.5t60.5 -29.5q46 0 73.5 29t27.5 76l114 -3q0 -83 -53.5 -136t-165.5 -53
q-94 0 -146 51t-52 140zM187 -68l85 22q18 -36 18 -78q0 -60 -36.5 -95t-104.5 -35q-56 0 -82 24l22 74q31 -23 55 -23q27 0 40.5 16.5t13.5 43.5q0 23 -11 51z" />
    <glyph glyph-name="egrave" unicode="&#xe8;" horiz-adv-x="520" 
d="M31 177q0 141 68 232t196 91q87 0 137.5 -43.5t50.5 -112.5q0 -59 -23 -109h-308q-6 -31 -6 -57q0 -103 84 -103q47 0 78 24.5t31 69.5l109 -3q0 -84 -63.5 -130t-155.5 -46q-100 0 -149 49t-49 138zM165 307h201q7 15 7 39q0 36 -22.5 54.5t-57.5 18.5q-99 0 -128 -112z
M277 560l-82 130l2 10h121l54 -130l-2 -10h-93z" />
    <glyph glyph-name="eacute" unicode="&#xe9;" horiz-adv-x="520" 
d="M31 177q0 141 68 232t196 91q87 0 137.5 -43.5t50.5 -112.5q0 -59 -23 -109h-308q-6 -31 -6 -57q0 -103 84 -103q47 0 78 24.5t31 69.5l109 -3q0 -84 -63.5 -130t-155.5 -46q-100 0 -149 49t-49 138zM165 307h201q7 15 7 39q0 36 -22.5 54.5t-57.5 18.5q-99 0 -128 -112z
M252 560l2 10l98 130h137l-2 -10l-126 -130h-109z" />
    <glyph glyph-name="ecircumflex" unicode="&#xea;" horiz-adv-x="520" 
d="M31 177q0 141 68 232t196 91q87 0 137.5 -43.5t50.5 -112.5q0 -59 -23 -109h-308q-6 -31 -6 -57q0 -103 84 -103q47 0 78 24.5t31 69.5l109 -3q0 -84 -63.5 -130t-155.5 -46q-100 0 -149 49t-49 138zM165 307h201q7 15 7 39q0 36 -22.5 54.5t-57.5 18.5q-99 0 -128 -112z
M155 560l1 10l116 130h140l71 -130l-2 -10h-90l-51 86h-5l-82 -86h-98z" />
    <glyph glyph-name="edieresis" unicode="&#xeb;" horiz-adv-x="520" 
d="M31 177q0 141 68 232t196 91q87 0 137.5 -43.5t50.5 -112.5q0 -59 -23 -109h-308q-6 -31 -6 -57q0 -103 84 -103q47 0 78 24.5t31 69.5l109 -3q0 -84 -63.5 -130t-155.5 -46q-100 0 -149 49t-49 138zM165 307h201q7 15 7 39q0 36 -22.5 54.5t-57.5 18.5q-99 0 -128 -112z
M381 578l18 106h109l-20 -106h-107zM149 578l19 106h108l-19 -106h-108z" />
    <glyph glyph-name="igrave" unicode="&#xec;" horiz-adv-x="279" 
d="M136 560l-82 130l2 10h121l54 -130l-2 -10h-93zM222 490l-64 -363q-3 -15 -3 -27q0 -22 21 -22q19 0 39 11l-13 -85q-40 -14 -79 -14q-43 0 -65.5 20.5t-22.5 56.5q0 14 4 40l65 383h118z" />
    <glyph glyph-name="iacute" unicode="&#xed;" horiz-adv-x="279" 
d="M115 560l2 10l98 130h137l-2 -10l-126 -130h-109zM222 490l-64 -363q-3 -15 -3 -27q0 -22 21 -22q19 0 39 11l-13 -85q-40 -14 -79 -14q-43 0 -65.5 20.5t-22.5 56.5q0 14 4 40l65 383h118z" />
    <glyph glyph-name="icircumflex" unicode="&#xee;" horiz-adv-x="279" 
d="M222 490l-64 -363q-3 -15 -3 -27q0 -22 21 -22q19 0 39 11l-13 -85q-40 -14 -79 -14q-43 0 -65.5 20.5t-22.5 56.5q0 14 4 40l65 383h118zM10 560l1 10l116 130h140l71 -130l-2 -10h-90l-51 86h-5l-82 -86h-98z" />
    <glyph glyph-name="idieresis" unicode="&#xef;" horiz-adv-x="279" 
d="M222 490l-64 -363q-3 -15 -3 -27q0 -22 21 -22q19 0 39 11l-13 -85q-40 -14 -79 -14q-43 0 -65.5 20.5t-22.5 56.5q0 14 4 40l65 383h118zM238 578l18 106h109l-20 -106h-107zM6 578l19 106h108l-19 -106h-108z" />
    <glyph glyph-name="eth" unicode="&#xf0;" horiz-adv-x="568" 
d="M296 504l-47 33l77 65q-36 35 -95 65l98 63q52 -22 92 -59l72 61l47 -38l-81 -65q72 -93 72 -220q0 -110 -32 -203t-102.5 -154.5t-167.5 -61.5q-95 0 -149.5 49.5t-54.5 141.5q0 113 64.5 186t172.5 73q58 0 92 -30t44 -65h6q7 21 7 66q0 83 -48 149zM366 248
q0 45 -23.5 73t-62.5 28q-61 0 -96.5 -45.5t-35.5 -117.5q0 -47 22.5 -73t63.5 -26q55 0 93.5 46.5t38.5 114.5z" />
    <glyph glyph-name="ntilde" unicode="&#xf1;" horiz-adv-x="589" 
d="M214 405h5q49 95 152 95q69 0 107 -36t38 -101q0 -26 -5 -51l-33 -186q-5 -23 -1 -36t19 -13q20 0 39 12l-13 -85q-40 -14 -79 -14q-86 0 -86 77q0 14 6 53l33 192q3 20 3 36q0 65 -66 65q-42 0 -79.5 -43.5t-53.5 -134.5l-41 -235h-118l65 368q8 45 -22 45
q-20 0 -36 -10l8 84q32 13 77 13q41 0 62 -19.5t21 -50.5q0 -9 -2 -25zM165 567q24 143 119 143q38 0 60 -25l36 -34q13 -13 25 -13q28 0 39 61h85q-23 -144 -123 -144q-36 0 -63 27l-31 29q-15 15 -26 15q-26 0 -39 -59h-82z" />
    <glyph glyph-name="ograve" unicode="&#xf2;" horiz-adv-x="546" 
d="M32 183q0 144 67.5 230.5t194.5 86.5q98 0 151 -53t53 -142q0 -143 -68 -229t-195 -86q-99 0 -151 52t-52 141zM236 77q69 0 105.5 57.5t36.5 170.5q0 108 -85 108q-142 0 -142 -229q0 -107 85 -107zM272 560l-82 130l2 10h121l54 -130l-2 -10h-93z" />
    <glyph glyph-name="oacute" unicode="&#xf3;" horiz-adv-x="546" 
d="M32 183q0 144 67.5 230.5t194.5 86.5q98 0 151 -53t53 -142q0 -143 -68 -229t-195 -86q-99 0 -151 52t-52 141zM236 77q69 0 105.5 57.5t36.5 170.5q0 108 -85 108q-142 0 -142 -229q0 -107 85 -107zM238 560l2 10l98 130h137l-2 -10l-126 -130h-109z" />
    <glyph glyph-name="ocircumflex" unicode="&#xf4;" horiz-adv-x="546" 
d="M32 183q0 144 67.5 230.5t194.5 86.5q98 0 151 -53t53 -142q0 -143 -68 -229t-195 -86q-99 0 -151 52t-52 141zM236 77q69 0 105.5 57.5t36.5 170.5q0 108 -85 108q-142 0 -142 -229q0 -107 85 -107zM152 560l1 10l116 130h140l71 -130l-2 -10h-90l-51 86h-5l-82 -86h-98
z" />
    <glyph glyph-name="otilde" unicode="&#xf5;" horiz-adv-x="546" 
d="M32 183q0 144 67.5 230.5t194.5 86.5q98 0 151 -53t53 -142q0 -143 -68 -229t-195 -86q-99 0 -151 52t-52 141zM236 77q69 0 105.5 57.5t36.5 170.5q0 108 -85 108q-142 0 -142 -229q0 -107 85 -107zM135 567q24 143 119 143q38 0 60 -25l36 -34q13 -13 25 -13
q28 0 39 61h85q-23 -144 -123 -144q-36 0 -63 27l-31 29q-15 15 -26 15q-26 0 -39 -59h-82z" />
    <glyph glyph-name="odieresis" unicode="&#xf6;" horiz-adv-x="546" 
d="M32 183q0 144 67.5 230.5t194.5 86.5q98 0 151 -53t53 -142q0 -143 -68 -229t-195 -86q-99 0 -151 52t-52 141zM236 77q69 0 105.5 57.5t36.5 170.5q0 108 -85 108q-142 0 -142 -229q0 -107 85 -107zM371 578l18 106h109l-20 -106h-107zM139 578l19 106h108l-19 -106
h-108z" />
    <glyph glyph-name="divide" unicode="&#xf7;" 
d="M535 229h-420l16 91h419zM228 47q0 33 24 57t55 24q24 0 40.5 -17.5t16.5 -41.5q0 -32 -25 -55.5t-56 -23.5q-24 0 -39.5 16.5t-15.5 40.5zM304 478q0 33 24 57t56 24q24 0 39.5 -17t15.5 -42q0 -32 -24.5 -55.5t-55.5 -23.5q-24 0 -39.5 16.5t-15.5 40.5z" />
    <glyph glyph-name="oslash" unicode="&#xf8;" horiz-adv-x="546" 
d="M32 183q0 144 67.5 230.5t194.5 86.5q81 0 135 -41l37 41h87l-82 -87q27 -45 27 -108q0 -143 -68 -229t-195 -86q-77 0 -128 35l-33 -35h-87l75 79q-30 48 -30 114zM293 417q-133 0 -141 -205q-2 -30 2 -50l204 225q-22 30 -65 30zM235 73q134 0 141 201q1 24 0 43
l-201 -221q22 -23 60 -23z" />
    <glyph glyph-name="ugrave" unicode="&#xf9;" horiz-adv-x="570" 
d="M341 85h-6q-47 -95 -153 -95q-67 0 -104.5 36t-37.5 101q0 26 5 51l56 312h118l-58 -312q-4 -26 -4 -36q0 -65 66 -65q42 0 78.5 43.5t52.5 134.5l42 235h117l-65 -368q-8 -45 23 -45q18 0 36 10l-9 -84q-35 -13 -77 -13q-40 0 -61.5 19.5t-21.5 50.5q0 13 3 25zM276 560
l-82 130l2 10h121l54 -130l-2 -10h-93z" />
    <glyph glyph-name="uacute" unicode="&#xfa;" horiz-adv-x="570" 
d="M341 85h-6q-47 -95 -153 -95q-67 0 -104.5 36t-37.5 101q0 26 5 51l56 312h118l-58 -312q-4 -26 -4 -36q0 -65 66 -65q42 0 78.5 43.5t52.5 134.5l42 235h117l-65 -368q-8 -45 23 -45q18 0 36 10l-9 -84q-35 -13 -77 -13q-40 0 -61.5 19.5t-21.5 50.5q0 13 3 25zM263 560
l2 10l98 130h137l-2 -10l-126 -130h-109z" />
    <glyph glyph-name="ucircumflex" unicode="&#xfb;" horiz-adv-x="570" 
d="M341 85h-6q-47 -95 -153 -95q-67 0 -104.5 36t-37.5 101q0 26 5 51l56 312h118l-58 -312q-4 -26 -4 -36q0 -65 66 -65q42 0 78.5 43.5t52.5 134.5l42 235h117l-65 -368q-8 -45 23 -45q18 0 36 10l-9 -84q-35 -13 -77 -13q-40 0 -61.5 19.5t-21.5 50.5q0 13 3 25zM157 560
l1 10l116 130h140l71 -130l-2 -10h-90l-51 86h-5l-82 -86h-98z" />
    <glyph glyph-name="udieresis" unicode="&#xfc;" horiz-adv-x="570" 
d="M341 85h-6q-47 -95 -153 -95q-67 0 -104.5 36t-37.5 101q0 26 5 51l56 312h118l-58 -312q-4 -26 -4 -36q0 -65 66 -65q42 0 78.5 43.5t52.5 134.5l42 235h117l-65 -368q-8 -45 23 -45q18 0 36 10l-9 -84q-35 -13 -77 -13q-40 0 -61.5 19.5t-21.5 50.5q0 13 3 25zM384 578
l18 106h109l-20 -106h-107zM152 578l19 106h108l-19 -106h-108z" />
    <glyph glyph-name="yacute" unicode="&#xfd;" horiz-adv-x="540" 
d="M191 -1l-87 385q-5 25 -29 25q-17 0 -39 -11l15 88q36 14 73 14q38 0 55 -16.5t24 -53.5l44 -225q10 -48 12 -115h10q27 85 41 118l125 282h119l-2 -13l-270 -538q-40 -80 -84 -114.5t-117 -34.5q-51 0 -105 12l22 86q36 -11 79 -11q64 0 94 73zM259 560l2 10l98 130h137
l-2 -10l-126 -130h-109z" />
    <glyph glyph-name="thorn" unicode="&#xfe;" horiz-adv-x="551" 
d="M-16 -200l162 920h118l-48 -269h5q51 49 127 49q70 0 112.5 -48.5t42.5 -140.5q0 -156 -69 -238.5t-164 -82.5q-80 0 -121 55h-4l-43 -245h-118zM201 366l-42 -242q27 -47 79 -47q66 0 105.5 52.5t39.5 170.5q0 113 -86 113q-57 0 -96 -47z" />
    <glyph glyph-name="ydieresis" unicode="&#xff;" horiz-adv-x="540" 
d="M191 -1l-87 385q-5 25 -29 25q-17 0 -39 -11l15 88q36 14 73 14q38 0 55 -16.5t24 -53.5l44 -225q10 -48 12 -115h10q27 85 41 118l125 282h119l-2 -13l-270 -538q-40 -80 -84 -114.5t-117 -34.5q-51 0 -105 12l22 86q36 -11 79 -11q64 0 94 73zM390 578l18 106h109
l-20 -106h-107zM158 578l19 106h108l-19 -106h-108z" />
    <glyph glyph-name="Amacron" unicode="&#x100;" horiz-adv-x="660" 
d="M-31 0l359 690h145l116 -690h-119l-28 168h-257l-87 -168h-129zM226 261h208l-31 200q-9 56 -13 122h-6q-27 -65 -54 -120zM264 773l15 85h299l-16 -85h-298z" />
    <glyph glyph-name="amacron" unicode="&#x101;" horiz-adv-x="570" 
d="M333 123l43 242q-26 48 -79 48q-57 0 -99.5 -61.5t-42.5 -165.5q0 -56 23 -82.5t60 -26.5q55 0 95 46zM187 -10q-69 0 -112.5 49t-43.5 145q0 136 69 226t164 90q87 0 130 -64h6l26 54h88l-64 -364q-6 -26 -2.5 -37.5t18.5 -11.5q20 0 40 11l-13 -84q-40 -14 -79 -14
q-75 0 -81 64h-5q-69 -64 -141 -64zM190 593l15 85h299l-16 -85h-298z" />
    <glyph glyph-name="Abreve" unicode="&#x102;" horiz-adv-x="660" 
d="M-31 0l359 690h145l116 -690h-119l-28 168h-257l-87 -168h-129zM226 261h208l-31 200q-9 56 -13 122h-6q-27 -65 -54 -120zM414 737q-68 0 -106.5 42t-28.5 112h80q-3 -70 63 -70q67 0 88 70h88q-14 -71 -65 -112.5t-119 -41.5z" />
    <glyph glyph-name="abreve" unicode="&#x103;" horiz-adv-x="570" 
d="M333 123l43 242q-26 48 -79 48q-57 0 -99.5 -61.5t-42.5 -165.5q0 -56 23 -82.5t60 -26.5q55 0 95 46zM187 -10q-69 0 -112.5 49t-43.5 145q0 136 69 226t164 90q87 0 130 -64h6l26 54h88l-64 -364q-6 -26 -2.5 -37.5t18.5 -11.5q20 0 40 11l-13 -84q-40 -14 -79 -14
q-75 0 -81 64h-5q-69 -64 -141 -64zM334 556q-69 0 -106 40t-27 111h73q-5 -35 12.5 -55.5t53.5 -20.5t61 20.5t32 55.5h81q-15 -71 -64 -111t-116 -40z" />
    <glyph glyph-name="Aogonek" unicode="&#x104;" horiz-adv-x="660" 
d="M330 -149q0 40 24 70.5t84 59.5l38 19h-6l-28 168h-257l-87 -168h-129l359 690h145l116 -690l-109 -62q-41 -24 -41 -57q0 -28 31 -28q34 0 95 37l-14 -88q-52 -28 -117 -28q-48 0 -76 21t-28 56zM226 261h208l-31 200q-10 76 -13 122h-6q-22 -54 -55 -120z" />
    <glyph glyph-name="aogonek" unicode="&#x105;" horiz-adv-x="571" 
d="M234 -145q0 40 24 70.5t84 59.5l26 13q-32 15 -35 56h-5q-69 -64 -141 -64q-69 0 -112.5 49t-43.5 145q0 136 69 226t164 90q87 0 130 -64h6l26 54h88l-64 -364q0 -3 -1.5 -12.5t-1.5 -13.5q0 -23 19 -23q20 0 40 11l-13 -84l-109 -62q-41 -24 -41 -57q0 -28 31 -28
q34 0 95 37l-14 -88q-52 -28 -117 -28q-48 0 -76 21t-28 56zM333 123l43 242q-26 48 -79 48q-57 0 -99.5 -61.5t-42.5 -165.5q0 -56 23 -82.5t60 -26.5q55 0 95 46z" />
    <glyph glyph-name="Cacute" unicode="&#x106;" horiz-adv-x="679" 
d="M412 600q-99 0 -163.5 -88t-64.5 -237q0 -88 37 -136.5t101 -48.5q78 0 126 45t49 122l122 -4q0 -31 -8 -64t-29.5 -69.5t-54 -64.5t-86.5 -46.5t-122 -18.5q-125 0 -194 73.5t-69 203.5q0 201 99.5 317t262.5 116q71 0 122.5 -19t77 -50t36.5 -61.5t11 -62.5
q0 -37 -11 -70l-125 -4q7 28 7 50q0 56 -31.5 86.5t-92.5 30.5zM399 740l2 10l98 130h137l-2 -10l-126 -130h-109z" />
    <glyph glyph-name="cacute" unicode="&#x107;" horiz-adv-x="510" 
d="M31 181q0 87 27 157t89 116t151 46q51 0 89 -14.5t57 -37t27.5 -44t8.5 -42.5q0 -31 -8 -51l-116 -3q6 18 6 41q0 25 -16.5 44.5t-54.5 19.5q-67 0 -103 -66.5t-36 -159.5q0 -51 20.5 -80.5t60.5 -29.5q46 0 73.5 29t27.5 76l114 -3q0 -83 -53.5 -136t-165.5 -53
q-94 0 -146 51t-52 140zM252 560l2 10l98 130h137l-2 -10l-126 -130h-109z" />
    <glyph glyph-name="Ccircumflex" unicode="&#x108;" horiz-adv-x="679" 
d="M412 600q-99 0 -163.5 -88t-64.5 -237q0 -88 37 -136.5t101 -48.5q78 0 126 45t49 122l122 -4q0 -31 -8 -64t-29.5 -69.5t-54 -64.5t-86.5 -46.5t-122 -18.5q-125 0 -194 73.5t-69 203.5q0 201 99.5 317t262.5 116q71 0 122.5 -19t77 -50t36.5 -61.5t11 -62.5
q0 -37 -11 -70l-125 -4q7 28 7 50q0 56 -31.5 86.5t-92.5 30.5zM281 740l2 10l124 130h154l78 -130l-1 -10h-99l-56 94h-4l-91 -94h-107z" />
    <glyph glyph-name="ccircumflex" unicode="&#x109;" horiz-adv-x="510" 
d="M31 181q0 87 27 157t89 116t151 46q51 0 89 -14.5t57 -37t27.5 -44t8.5 -42.5q0 -31 -8 -51l-116 -3q6 18 6 41q0 25 -16.5 44.5t-54.5 19.5q-67 0 -103 -66.5t-36 -159.5q0 -51 20.5 -80.5t60.5 -29.5q46 0 73.5 29t27.5 76l114 -3q0 -83 -53.5 -136t-165.5 -53
q-94 0 -146 51t-52 140zM158 560l1 10l116 130h140l71 -130l-2 -10h-90l-51 86h-5l-82 -86h-98z" />
    <glyph glyph-name="Cdotaccent" unicode="&#x10a;" horiz-adv-x="679" 
d="M412 600q-99 0 -163.5 -88t-64.5 -237q0 -88 37 -136.5t101 -48.5q78 0 126 45t49 122l122 -4q0 -31 -8 -64t-29.5 -69.5t-54 -64.5t-86.5 -46.5t-122 -18.5q-125 0 -194 73.5t-69 203.5q0 201 99.5 317t262.5 116q71 0 122.5 -19t77 -50t36.5 -61.5t11 -62.5
q0 -37 -11 -70l-125 -4q7 28 7 50q0 56 -31.5 86.5t-92.5 30.5zM387 756l19 111h119l-20 -111h-118z" />
    <glyph glyph-name="cdotaccent" unicode="&#x10b;" horiz-adv-x="510" 
d="M31 181q0 87 27 157t89 116t151 46q51 0 89 -14.5t57 -37t27.5 -44t8.5 -42.5q0 -31 -8 -51l-116 -3q6 18 6 41q0 25 -16.5 44.5t-54.5 19.5q-67 0 -103 -66.5t-36 -159.5q0 -51 20.5 -80.5t60.5 -29.5q46 0 73.5 29t27.5 76l114 -3q0 -83 -53.5 -136t-165.5 -53
q-94 0 -146 51t-52 140zM221 576l19 111h119l-20 -111h-118z" />
    <glyph glyph-name="Ccaron" unicode="&#x10c;" horiz-adv-x="679" 
d="M412 600q-99 0 -163.5 -88t-64.5 -237q0 -88 37 -136.5t101 -48.5q78 0 126 45t49 122l122 -4q0 -31 -8 -64t-29.5 -69.5t-54 -64.5t-86.5 -46.5t-122 -18.5q-125 0 -194 73.5t-69 203.5q0 201 99.5 317t262.5 116q71 0 122.5 -19t77 -50t36.5 -61.5t11 -62.5
q0 -37 -11 -70l-125 -4q7 28 7 50q0 56 -31.5 86.5t-92.5 30.5zM655 880l-2 -10l-123 -130h-154l-79 130l2 10h98l57 -94h4l90 94h107z" />
    <glyph glyph-name="ccaron" unicode="&#x10d;" horiz-adv-x="510" 
d="M31 181q0 87 27 157t89 116t151 46q51 0 89 -14.5t57 -37t27.5 -44t8.5 -42.5q0 -31 -8 -51l-116 -3q6 18 6 41q0 25 -16.5 44.5t-54.5 19.5q-67 0 -103 -66.5t-36 -159.5q0 -51 20.5 -80.5t60.5 -29.5q46 0 73.5 29t27.5 76l114 -3q0 -83 -53.5 -136t-165.5 -53
q-94 0 -146 51t-52 140zM508 700l-1 -10l-116 -130h-140l-71 130l2 10h91l50 -88h4l83 88h98z" />
    <glyph glyph-name="Dcaron" unicode="&#x10e;" horiz-adv-x="689" 
d="M36 0l122 690h216q275 0 275 -271q0 -200 -92.5 -309.5t-278.5 -109.5h-242zM174 100h103q246 0 246 319q0 172 -160 172h-102zM584 880l-2 -10l-123 -130h-154l-79 130l2 10h98l57 -94h4l90 94h107z" />
    <glyph glyph-name="dcaron" unicode="&#x10f;" horiz-adv-x="637" 
d="M334 123l43 243q-31 47 -81 47q-60 0 -101.5 -54t-41.5 -165q0 -61 23.5 -89t61.5 -28q56 0 96 46zM334 54h-5q-69 -64 -149 -64q-64 0 -106 49t-42 145q0 153 71 234.5t163 81.5q83 0 120 -55h4l50 275h117l-106 -594q-5 -25 -2 -37t18 -12q20 0 40 11l-13 -84
q-40 -14 -79 -14q-75 0 -81 64zM626 690h136l-21 -116q-23 -137 -163 -130l14 55q75 -3 87 72h-74z" />
    <glyph glyph-name="Dcroat" unicode="&#x110;" horiz-adv-x="690" 
d="M37 306l15 86h54l53 298h216q275 0 275 -271q0 -200 -92.5 -309.5t-278.5 -109.5h-242l53 306h-53zM175 100h103q246 0 246 319q0 172 -160 172h-102l-36 -199h114l-16 -86h-113z" />
    <glyph glyph-name="dcroat" unicode="&#x111;" horiz-adv-x="571" 
d="M290 559l15 79h120l15 82h117l-15 -82h53l-14 -79h-53l-77 -433q0 -3 -1.5 -12.5t-1.5 -13.5q0 -23 19 -23q20 0 40 11l-13 -84q-40 -14 -79 -14q-75 0 -81 64h-5q-69 -64 -149 -64q-64 0 -106 49t-42 145q0 153 71 234.5t163 81.5q83 0 120 -55h4l20 114h-120zM334 123
l43 243q-31 47 -81 47q-60 0 -101.5 -54t-41.5 -165q0 -61 23.5 -89t61.5 -28q56 0 96 46z" />
    <glyph glyph-name="Emacron" unicode="&#x112;" horiz-adv-x="579" 
d="M36 0l122 690h438l-17 -100h-319l-33 -191h268l-18 -100h-268l-35 -198h319l-19 -101h-438zM239 773l15 85h299l-16 -85h-298z" />
    <glyph glyph-name="emacron" unicode="&#x113;" horiz-adv-x="520" 
d="M31 177q0 141 68 232t196 91q87 0 137.5 -43.5t50.5 -112.5q0 -59 -23 -109h-308q-6 -31 -6 -57q0 -103 84 -103q47 0 78 24.5t31 69.5l109 -3q0 -84 -63.5 -130t-155.5 -46q-100 0 -149 49t-49 138zM165 307h201q7 15 7 39q0 36 -22.5 54.5t-57.5 18.5q-99 0 -128 -112z
M181 593l15 85h299l-16 -85h-298z" />
    <glyph glyph-name="Ebreve" unicode="&#x114;" horiz-adv-x="579" 
d="M36 0l122 690h438l-17 -100h-319l-33 -191h268l-18 -100h-268l-35 -198h319l-19 -101h-438zM376 737q-68 0 -106.5 42t-28.5 112h80q-3 -70 63 -70q67 0 88 70h88q-14 -71 -65 -112.5t-119 -41.5z" />
    <glyph glyph-name="ebreve" unicode="&#x115;" horiz-adv-x="520" 
d="M31 177q0 141 68 232t196 91q87 0 137.5 -43.5t50.5 -112.5q0 -59 -23 -109h-308q-6 -31 -6 -57q0 -103 84 -103q47 0 78 24.5t31 69.5l109 -3q0 -84 -63.5 -130t-155.5 -46q-100 0 -149 49t-49 138zM165 307h201q7 15 7 39q0 36 -22.5 54.5t-57.5 18.5q-99 0 -128 -112z
M319 556q-69 0 -106 40t-27 111h73q-5 -35 12.5 -55.5t53.5 -20.5t61 20.5t32 55.5h81q-15 -71 -64 -111t-116 -40z" />
    <glyph glyph-name="Edotaccent" unicode="&#x116;" horiz-adv-x="579" 
d="M36 0l122 690h438l-17 -100h-319l-33 -191h268l-18 -100h-268l-35 -198h319l-19 -101h-438zM326 756l19 111h119l-20 -111h-118z" />
    <glyph glyph-name="edotaccent" unicode="&#x117;" horiz-adv-x="520" 
d="M31 177q0 141 68 232t196 91q87 0 137.5 -43.5t50.5 -112.5q0 -59 -23 -109h-308q-6 -31 -6 -57q0 -103 84 -103q47 0 78 24.5t31 69.5l109 -3q0 -84 -63.5 -130t-155.5 -46q-100 0 -149 49t-49 138zM165 307h201q7 15 7 39q0 36 -22.5 54.5t-57.5 18.5q-99 0 -128 -112z
M258 576l19 111h119l-20 -111h-118z" />
    <glyph glyph-name="Eogonek" unicode="&#x118;" horiz-adv-x="579" 
d="M36 0l122 690h438l-17 -100h-319l-33 -191h268l-18 -100h-268l-35 -198h319l-19 -100l1 -1l-109 -62q-41 -24 -41 -57q0 -28 31 -28q34 0 95 37l-14 -88q-52 -28 -117 -28q-48 0 -76 21t-28 56q0 40 24 70.5t84 59.5l38 19h-326z" />
    <glyph glyph-name="eogonek" unicode="&#x119;" horiz-adv-x="520" 
d="M46 -149q0 40 24 70.5t84 59.5l26 13q-149 21 -149 183q0 141 68 232t196 91q87 0 137.5 -43.5t50.5 -112.5q0 -59 -23 -109h-308q-6 -31 -6 -57q0 -103 84 -103q47 0 78 24.5t31 69.5l109 -3q0 -66 -40.5 -109t-105.5 -58l-106 -61q-41 -24 -41 -57q0 -28 31 -28
q34 0 95 37l-14 -88q-52 -28 -117 -28q-48 0 -76 21t-28 56zM165 307h201q7 15 7 39q0 36 -22.5 54.5t-57.5 18.5q-99 0 -128 -112z" />
    <glyph glyph-name="Ecaron" unicode="&#x11a;" horiz-adv-x="579" 
d="M36 0l122 690h438l-17 -100h-319l-33 -191h268l-18 -100h-268l-35 -198h319l-19 -101h-438zM579 880l-2 -10l-123 -130h-154l-79 130l2 10h98l57 -94h4l90 94h107z" />
    <glyph glyph-name="ecaron" unicode="&#x11b;" horiz-adv-x="520" 
d="M31 177q0 141 68 232t196 91q87 0 137.5 -43.5t50.5 -112.5q0 -59 -23 -109h-308q-6 -31 -6 -57q0 -103 84 -103q47 0 78 24.5t31 69.5l109 -3q0 -84 -63.5 -130t-155.5 -46q-100 0 -149 49t-49 138zM165 307h201q7 15 7 39q0 36 -22.5 54.5t-57.5 18.5q-99 0 -128 -112z
M507 700l-1 -10l-116 -130h-140l-71 130l2 10h91l50 -88h4l83 88h98z" />
    <glyph glyph-name="Gcircumflex" unicode="&#x11c;" horiz-adv-x="699" 
d="M327 84q68 0 115.5 44.5t60.5 111.5h-131l15 86h258l-58 -326h-85l3 86h-6q-34 -42 -85 -69t-112 -27q-113 0 -180 72t-67 200q0 202 100 320t263 118q72 0 123.5 -17.5t77 -46.5t36 -58.5t10.5 -62.5q0 -40 -11 -71l-126 -4q7 24 7 47q0 55 -31.5 84t-90.5 29
q-100 0 -164 -88t-64 -238q0 -90 37.5 -140t104.5 -50zM275 740l2 10l124 130h154l78 -130l-1 -10h-99l-56 94h-4l-91 -94h-107z" />
    <glyph glyph-name="gcircumflex" unicode="&#x11d;" horiz-adv-x="555" 
d="M33 -34l106 -7q-11 -22 -11 -39q0 -44 70 -44q48 0 78 28.5t44 98.5l11 66h-5q-48 -53 -129 -53q-70 0 -118.5 46.5t-48.5 142.5q0 124 69.5 209.5t175.5 85.5q85 0 123 -69h6l30 59h86l-86 -487q-37 -213 -239 -213q-88 0 -135 30.5t-47 81.5q0 36 20 64zM243 103
q49 0 99 48l41 207q-10 23 -33 39t-49 16q-66 0 -108 -60t-42 -142q0 -56 26 -82t66 -26zM170 560l1 10l116 130h140l71 -130l-2 -10h-90l-51 86h-5l-82 -86h-98z" />
    <glyph glyph-name="Gbreve" unicode="&#x11e;" horiz-adv-x="699" 
d="M327 84q68 0 115.5 44.5t60.5 111.5h-131l15 86h258l-58 -326h-85l3 86h-6q-34 -42 -85 -69t-112 -27q-113 0 -180 72t-67 200q0 202 100 320t263 118q72 0 123.5 -17.5t77 -46.5t36 -58.5t10.5 -62.5q0 -40 -11 -71l-126 -4q7 24 7 47q0 55 -31.5 84t-90.5 29
q-100 0 -164 -88t-64 -238q0 -90 37.5 -140t104.5 -50zM451 737q-68 0 -106.5 42t-28.5 112h80q-4 -70 63 -70t88 70h88q-14 -71 -65 -112.5t-119 -41.5z" />
    <glyph glyph-name="gbreve" unicode="&#x11f;" horiz-adv-x="555" 
d="M33 -34l106 -7q-11 -22 -11 -39q0 -44 70 -44q48 0 78 28.5t44 98.5l11 66h-5q-48 -53 -129 -53q-70 0 -118.5 46.5t-48.5 142.5q0 124 69.5 209.5t175.5 85.5q85 0 123 -69h6l30 59h86l-86 -487q-37 -213 -239 -213q-88 0 -135 30.5t-47 81.5q0 36 20 64zM243 103
q49 0 99 48l41 207q-10 23 -33 39t-49 16q-66 0 -108 -60t-42 -142q0 -56 26 -82t66 -26zM341 556q-69 0 -106 40t-27 111h73q-5 -35 12.5 -55.5t53.5 -20.5t61 20.5t32 55.5h81q-15 -71 -64 -111t-116 -40z" />
    <glyph glyph-name="Gdotaccent" unicode="&#x120;" horiz-adv-x="699" 
d="M327 84q68 0 115.5 44.5t60.5 111.5h-131l15 86h258l-58 -326h-85l3 86h-6q-34 -42 -85 -69t-112 -27q-113 0 -180 72t-67 200q0 202 100 320t263 118q72 0 123.5 -17.5t77 -46.5t36 -58.5t10.5 -62.5q0 -40 -11 -71l-126 -4q7 24 7 47q0 55 -31.5 84t-90.5 29
q-100 0 -164 -88t-64 -238q0 -90 37.5 -140t104.5 -50zM389 756l19 111h119l-20 -111h-118z" />
    <glyph glyph-name="gdotaccent" unicode="&#x121;" horiz-adv-x="555" 
d="M33 -34l106 -7q-11 -22 -11 -39q0 -44 70 -44q48 0 78 28.5t44 98.5l11 66h-5q-48 -53 -129 -53q-70 0 -118.5 46.5t-48.5 142.5q0 124 69.5 209.5t175.5 85.5q85 0 123 -69h6l30 59h86l-86 -487q-37 -213 -239 -213q-88 0 -135 30.5t-47 81.5q0 36 20 64zM243 103
q49 0 99 48l41 207q-10 23 -33 39t-49 16q-66 0 -108 -60t-42 -142q0 -56 26 -82t66 -26zM277 576l19 111h119l-20 -111h-118z" />
    <glyph glyph-name="Gcommaaccent" unicode="&#x122;" horiz-adv-x="699" 
d="M327 84q68 0 115.5 44.5t60.5 111.5h-131l15 86h258l-58 -326h-85l3 86h-6q-34 -42 -85 -69t-112 -27q-113 0 -180 72t-67 200q0 202 100 320t263 118q72 0 123.5 -17.5t77 -46.5t36 -58.5t10.5 -62.5q0 -40 -11 -71l-126 -4q7 24 7 47q0 55 -31.5 84t-90.5 29
q-100 0 -164 -88t-64 -238q0 -90 37.5 -140t104.5 -50zM259 -57h136l-21 -115q-23 -137 -163 -130l14 54q73 -1 86 72h-74z" />
    <glyph glyph-name="gcommaaccent" unicode="&#x123;" horiz-adv-x="555" 
d="M33 -34l106 -7q-11 -22 -11 -39q0 -44 70 -44q48 0 78 28.5t44 98.5l11 66h-5q-48 -53 -129 -53q-70 0 -118.5 46.5t-48.5 142.5q0 124 69.5 209.5t175.5 85.5q85 0 123 -69h6l30 59h86l-86 -487q-37 -213 -239 -213q-88 0 -135 30.5t-47 81.5q0 36 20 64zM243 103
q49 0 99 48l41 207q-10 23 -33 39t-49 16q-66 0 -108 -60t-42 -142q0 -56 26 -82t66 -26zM396 575h-132l18 100q12 65 47.5 95t109.5 26l-13 -53q-41 1 -58 -13t-23 -51h69z" />
    <glyph glyph-name="Hcircumflex" unicode="&#x124;" horiz-adv-x="721" 
d="M36 0l122 690h120l-51 -291h306l50 291h122l-121 -690h-122l53 298h-306l-53 -298h-120zM256 740l2 10l124 130h154l78 -130l-1 -10h-99l-56 94h-4l-91 -94h-107z" />
    <glyph glyph-name="hcircumflex" unicode="&#x125;" horiz-adv-x="566" 
d="M207 411h5q46 89 138 89q69 0 106.5 -36t37.5 -101q0 -26 -5 -51l-33 -186q-3 -15 -3 -26q0 -23 20 -23q21 0 40 12l-13 -85q-40 -14 -79 -14q-43 0 -65 20.5t-22 56.5q0 14 4 40l36 205q3 20 3 36q0 65 -66 65q-43 0 -80 -43.5t-53 -134.5l-41 -235h-118l128 720h117z
M191 760l1 10l116 130h140l71 -130l-2 -10h-90l-51 86h-5l-82 -86h-98z" />
    <glyph glyph-name="Hbar" unicode="&#x126;" horiz-adv-x="721" 
d="M76 529l14 74h53l15 87h121l-16 -87h306l15 87h121l-15 -87h51l-13 -74h-51l-93 -529h-121l52 298h-305l-53 -298h-121l94 529h-54zM228 399h305l23 130h-306z" />
    <glyph glyph-name="hbar" unicode="&#x127;" horiz-adv-x="566" 
d="M68 559l14 79h49l16 82h117l-15 -82h124l-15 -79h-123l-28 -148h5q46 89 138 89q69 0 106.5 -36t37.5 -101q0 -26 -5 -51l-33 -186q-3 -15 -3 -26q0 -23 20 -23q21 0 40 12l-13 -85q-40 -14 -79 -14q-43 0 -65 20.5t-22 56.5q0 14 4 40l36 205q3 20 3 36q0 65 -66 65
q-43 0 -80 -43.5t-53 -134.5l-41 -235h-118l99 559h-50z" />
    <glyph glyph-name="Itilde" unicode="&#x128;" horiz-adv-x="294" 
d="M36 0l122 690h120l-122 -690h-120zM55 747q24 143 119 143q38 0 60 -25l36 -34q13 -13 25 -13q28 0 39 61h85q-23 -144 -123 -144q-36 0 -63 27l-31 29q-15 15 -26 15q-26 0 -39 -59h-82z" />
    <glyph glyph-name="itilde" unicode="&#x129;" horiz-adv-x="279" 
d="M1 567q24 143 119 143q38 0 60 -25l36 -34q13 -13 25 -13q28 0 39 61h85q-23 -144 -123 -144q-36 0 -63 27l-31 29q-15 15 -26 15q-26 0 -39 -59h-82zM222 490l-64 -363q-3 -15 -3 -27q0 -22 21 -22q19 0 39 11l-13 -85q-40 -14 -79 -14q-43 0 -65.5 20.5t-22.5 56.5
q0 14 4 40l65 383h118z" />
    <glyph glyph-name="Imacron" unicode="&#x12a;" horiz-adv-x="294" 
d="M36 0l122 690h120l-122 -690h-120zM82 773l15 85h299l-16 -85h-298z" />
    <glyph glyph-name="imacron" unicode="&#x12b;" horiz-adv-x="279" 
d="M31 593l15 85h299l-16 -85h-298zM222 490l-64 -363q-3 -15 -3 -27q0 -22 21 -22q19 0 39 11l-13 -85q-40 -14 -79 -14q-43 0 -65.5 20.5t-22.5 56.5q0 14 4 40l65 383h118z" />
    <glyph glyph-name="Ibreve" unicode="&#x12c;" horiz-adv-x="294" 
d="M36 0l122 690h120l-122 -690h-120zM230 737q-68 0 -106.5 42t-28.5 112h80q-3 -70 63 -70q67 0 88 70h88q-14 -71 -65 -112.5t-119 -41.5z" />
    <glyph glyph-name="ibreve" unicode="&#x12d;" horiz-adv-x="279" 
d="M222 490l-64 -363q-3 -15 -3 -27q0 -22 21 -22q19 0 39 11l-13 -85q-40 -14 -79 -14q-43 0 -65.5 20.5t-22.5 56.5q0 14 4 40l65 383h118zM180 556q-69 0 -106 40t-27 111h73q-5 -35 12.5 -55.5t53.5 -20.5t61 20.5t32 55.5h81q-15 -71 -64 -111t-116 -40z" />
    <glyph glyph-name="Iogonek" unicode="&#x12e;" horiz-adv-x="294" 
d="M36 0l122 690h120l-122 -690l-109 -62q-41 -24 -41 -57q0 -28 31 -28q34 0 95 37l-14 -88q-52 -28 -117 -28q-48 0 -76 21t-28 56q0 40 24 70.5t84 59.5l38 19h-7z" />
    <glyph glyph-name="iogonek" unicode="&#x12f;" horiz-adv-x="279" 
d="M-56 -145q0 40 24 70.5t84 59.5l26 13q-39 17 -41 61q-1 7 -1 21q2 16 4 27l65 383h118l-64 -363q-3 -15 -3 -27q0 -22 21 -22q19 0 39 11l-13 -85l-109 -62q-41 -24 -41 -57q0 -28 31 -28q34 0 95 37l-14 -88q-52 -28 -117 -28q-48 0 -76 21t-28 56zM121 574l19 113h117
l-19 -113h-117z" />
    <glyph glyph-name="Idotaccent" unicode="&#x130;" horiz-adv-x="294" 
d="M36 0l122 690h120l-122 -690h-120zM170 756l19 111h119l-20 -111h-118z" />
    <glyph glyph-name="dotlessi" unicode="&#x131;" horiz-adv-x="279" 
d="M222 490l-64 -363q-3 -15 -3 -27q0 -22 21 -22q19 0 39 11l-13 -85q-40 -14 -79 -14q-43 0 -65.5 20.5t-22.5 56.5q0 14 4 40l65 383h118z" />
    <glyph glyph-name="IJ" unicode="&#x132;" horiz-adv-x="827" 
d="M36 0l122 690h120l-122 -690h-120zM313 224l118 -7q-13 -32 -13 -58q0 -32 19.5 -50.5t54.5 -18.5q49 0 79.5 34t44.5 116l79 450h121l-80 -457q-22 -124 -81 -183.5t-166 -59.5q-93 0 -142 44.5t-49 115.5q0 36 15 74z" />
    <glyph glyph-name="ij" unicode="&#x133;" horiz-adv-x="529" 
d="M120 574l19 113h117l-19 -113h-117zM222 490l-64 -363q-5 -26 -1 -37.5t19 -11.5q19 0 39 11l-13 -85q-40 -14 -79 -14q-40 0 -63.5 22.5t-23.5 66.5q0 13 5 43l63 368h118zM495 490l-91 -514q-34 -186 -180 -186q-49 0 -95 16l28 85q39 -15 62 -15q50 0 68 100l91 514
h117zM393 574l20 113h116l-20 -113h-116z" />
    <glyph glyph-name="Jcircumflex" unicode="&#x134;" horiz-adv-x="528" 
d="M15 224l118 -7q-13 -32 -13 -58q0 -32 19.5 -50.5t54.5 -18.5q49 0 79.5 34t44.5 116l79 450h121l-80 -457q-22 -124 -81 -183.5t-166 -59.5q-93 0 -142 44.5t-49 115.5q0 36 15 74zM280 740l2 10l124 130h154l78 -130l-1 -10h-99l-56 94h-4l-91 -94h-107z" />
    <glyph glyph-name="jcircumflex" unicode="&#x135;" horiz-adv-x="263" 
d="M229 490l-91 -516q-15 -86 -60.5 -135t-121.5 -49q-50 0 -93 15l27 84q36 -12 63 -12q50 0 68 99l90 514h118zM10 560l1 10l116 130h140l71 -130l-2 -10h-90l-51 86h-5l-82 -86h-98z" />
    <glyph glyph-name="Kcommaaccent" unicode="&#x136;" horiz-adv-x="620" 
d="M36 0l122 690h120l-54 -307l62 8q13 12 123.5 152t118.5 147h138l-3 -12q-10 -9 -135.5 -163.5t-138.5 -168.5q8 -11 78 -167t82 -166l-2 -13h-128q-6 7 -64.5 145t-70.5 149h-76l-52 -294h-120zM196 -57h136l-21 -115q-23 -137 -163 -130l14 54q73 -1 86 72h-74z" />
    <glyph glyph-name="kcommaaccent" unicode="&#x137;" horiz-adv-x="540" 
d="M415 104q10 -25 34 -25q21 0 37 9l-15 -86q-31 -12 -75 -12q-27 0 -45 11t-25 24t-14 33q-56 151 -71 166h-66l-39 -224h-117l127 720h117l-74 -418l57 5q12 11 79.5 93.5t76.5 89.5h130l-2 -14q-9 -8 -91 -102.5t-95 -106.5q20 -32 71 -163zM155 -57h136l-21 -115
q-23 -137 -163 -130l14 54q73 -1 86 72h-74z" />
    <glyph glyph-name="kgreenlandic" unicode="&#x138;" horiz-adv-x="537" 
d="M19 0l86 490h115l-38 -213l48 6q11 11 96.5 105.5t92.5 101.5h130l-1 -10q-8 -7 -56 -59l-103 -112.5t-61 -67.5l65.5 -113.5t73.5 -116.5l-2 -11h-126q-5 6 -55 96.5t-59 98.5h-57l-35 -195h-114z" />
    <glyph glyph-name="Lacute" unicode="&#x139;" horiz-adv-x="527" 
d="M36 0l122 690h120l-104 -589h304l-17 -101h-425zM168 740l2 10l98 130h137l-2 -10l-126 -130h-109z" />
    <glyph glyph-name="lacute" unicode="&#x13a;" horiz-adv-x="282" 
d="M262 720l-103 -580q-3 -18 -3 -30q0 -18 8 -25.5t26 -7.5q23 0 50 12l-13 -85q-42 -14 -86 -14q-103 0 -103 101q0 26 5 51l103 578h116zM158 760l2 10l98 130h137l-2 -10l-126 -130h-109z" />
    <glyph glyph-name="Lcommaaccent" unicode="&#x13b;" horiz-adv-x="527" 
d="M36 0l122 690h120l-104 -589h304l-17 -101h-425zM176 -57h136l-21 -115q-23 -137 -163 -130l14 54q73 -1 86 72h-74z" />
    <glyph glyph-name="lcommaaccent" unicode="&#x13c;" horiz-adv-x="282" 
d="M262 720l-103 -580q-3 -18 -3 -30q0 -18 8 -25.5t26 -7.5q23 0 50 12l-13 -85q-42 -14 -86 -14q-103 0 -103 101q0 26 5 51l103 578h116zM51 -57h136l-21 -115q-23 -137 -163 -130l14 54q73 -1 86 72h-74z" />
    <glyph glyph-name="Lcaron" unicode="&#x13d;" horiz-adv-x="527" 
d="M36 0l122 690h120l-104 -589h304l-17 -101h-425zM406 690h136l-21 -116q-23 -137 -163 -130l14 55q75 -3 87 72h-74z" />
    <glyph glyph-name="lcaron" unicode="&#x13e;" horiz-adv-x="340" 
d="M262 720l-103 -580q-3 -18 -3 -30q0 -18 8 -25.5t26 -7.5q23 0 50 12l-13 -85q-42 -14 -86 -14q-103 0 -103 101q0 26 5 51l103 578h116zM323 690h136l-21 -116q-23 -137 -163 -130l14 55q75 -3 87 72h-74z" />
    <glyph glyph-name="Ldot" unicode="&#x13f;" horiz-adv-x="527" 
d="M36 0l122 690h120l-104 -589h304l-17 -101h-425zM423 319q-33 0 -54.5 20.5t-21.5 51.5q0 32 21 52.5t55 20.5q32 0 53 -20.5t21 -52.5q0 -31 -21 -51.5t-53 -20.5z" />
    <glyph glyph-name="ldot" unicode="&#x140;" horiz-adv-x="403" 
d="M262 720l-103 -580q-3 -18 -3 -30q0 -18 8 -25.5t26 -7.5q23 0 50 12l-13 -85q-42 -14 -86 -14q-103 0 -103 101q0 26 5 51l103 578h116zM345 303q-33 0 -54.5 20.5t-21.5 51.5q0 32 21 52.5t55 20.5q32 0 53 -20.5t21 -52.5q0 -31 -21 -51.5t-53 -20.5z" />
    <glyph glyph-name="Lslash" unicode="&#x141;" horiz-adv-x="527" 
d="M16 216l-30 78l114 65l58 331h121l-47 -261l99 59l30 -78l-148 -86l-39 -223h305l-18 -101h-425l45 254z" />
    <glyph glyph-name="lslash" unicode="&#x142;" horiz-adv-x="282" 
d="M262 720l-51 -291l75 39l31 -78l-125 -66l-32 -184q-3 -18 -3 -30q0 -18 7.5 -25.5t25.5 -7.5q24 0 50 12l-12 -85q-42 -14 -87 -14q-101 0 -101 101q0 20 3 43l21 122l-69 -37l-32 79l120 63l63 359h116z" />
    <glyph glyph-name="Nacute" unicode="&#x143;" horiz-adv-x="717" 
d="M36 0l122 690h123l162 -400q26 -66 43 -129h8q4 68 19 153l67 376h121l-122 -690h-123l-162 393q-24 57 -46 136h-8q-3 -67 -19 -162l-65 -367h-120zM362 740l2 10l98 130h137l-2 -10l-126 -130h-109z" />
    <glyph glyph-name="nacute" unicode="&#x144;" horiz-adv-x="589" 
d="M214 405h5q49 95 152 95q69 0 107 -36t38 -101q0 -26 -5 -51l-33 -186q-5 -23 -1 -36t19 -13q20 0 39 12l-13 -85q-40 -14 -79 -14q-86 0 -86 77q0 14 6 53l33 192q3 20 3 36q0 65 -66 65q-42 0 -79.5 -43.5t-53.5 -134.5l-41 -235h-118l65 368q8 45 -22 45
q-20 0 -36 -10l8 84q32 13 77 13q41 0 62 -19.5t21 -50.5q0 -9 -2 -25zM302 560l2 10l98 130h137l-2 -10l-126 -130h-109z" />
    <glyph glyph-name="Ncommaaccent" unicode="&#x145;" horiz-adv-x="717" 
d="M36 0l122 690h123l162 -400q26 -66 43 -129h8q4 68 19 153l67 376h121l-122 -690h-123l-162 393q-24 57 -46 136h-8q-3 -67 -19 -162l-65 -367h-120zM264 -57h136l-21 -115q-23 -137 -163 -130l14 54q73 -1 86 72h-74z" />
    <glyph glyph-name="ncommaaccent" unicode="&#x146;" horiz-adv-x="589" 
d="M214 405h5q49 95 152 95q69 0 107 -36t38 -101q0 -26 -5 -51l-33 -186q-5 -23 -1 -36t19 -13q20 0 39 12l-13 -85q-40 -14 -79 -14q-86 0 -86 77q0 14 6 53l33 192q3 20 3 36q0 65 -66 65q-42 0 -79.5 -43.5t-53.5 -134.5l-41 -235h-118l65 368q8 45 -22 45
q-20 0 -36 -10l8 84q32 13 77 13q41 0 62 -19.5t21 -50.5q0 -9 -2 -25zM199 -57h136l-21 -115q-23 -137 -163 -130l14 54q73 -1 86 72h-74z" />
    <glyph glyph-name="Ncaron" unicode="&#x147;" horiz-adv-x="717" 
d="M36 0l122 690h123l162 -400q26 -66 43 -129h8q4 68 19 153l67 376h121l-122 -690h-123l-162 393q-24 57 -46 136h-8q-3 -67 -19 -162l-65 -367h-120zM637 880l-2 -10l-123 -130h-154l-79 130l2 10h98l57 -94h4l90 94h107z" />
    <glyph glyph-name="ncaron" unicode="&#x148;" horiz-adv-x="589" 
d="M214 405h5q49 95 152 95q69 0 107 -36t38 -101q0 -26 -5 -51l-33 -186q-5 -23 -1 -36t19 -13q20 0 39 12l-13 -85q-40 -14 -79 -14q-86 0 -86 77q0 14 6 53l33 192q3 20 3 36q0 65 -66 65q-42 0 -79.5 -43.5t-53.5 -134.5l-41 -235h-118l65 368q8 45 -22 45
q-20 0 -36 -10l8 84q32 13 77 13q41 0 62 -19.5t21 -50.5q0 -9 -2 -25zM523 700l-1 -10l-116 -130h-140l-71 130l2 10h91l50 -88h4l83 88h98z" />
    <glyph glyph-name="napostrophe" unicode="&#x149;" horiz-adv-x="589" 
d="M214 405h5q49 95 152 95q69 0 107 -36t38 -101q0 -26 -5 -51l-33 -186q-5 -23 -1 -36t19 -13q20 0 39 12l-13 -85q-40 -14 -79 -14q-86 0 -86 77q0 14 6 53l33 192q3 20 3 36q0 65 -66 65q-42 0 -79.5 -43.5t-53.5 -134.5l-41 -235h-118l65 368q8 45 -22 45
q-20 0 -36 -10l8 84q32 13 77 13q41 0 62 -19.5t21 -50.5q0 -9 -2 -25zM-65 690h136l-21 -116q-23 -137 -163 -130l14 55q75 -3 87 72h-74z" />
    <glyph glyph-name="Eng" unicode="&#x14a;" horiz-adv-x="740" 
d="M36 0l121 690h123l184 -400q21 -46 49 -135h8q5 106 17 171l64 364h121l-126 -716q-15 -86 -59.5 -135t-115.5 -49q-59 0 -108 15l28 84q36 -12 66 -12q55 0 72 99l6 33l-173 355q-34 69 -67 172h-8q-6 -104 -21 -189l-61 -347h-120z" />
    <glyph glyph-name="eng" unicode="&#x14b;" horiz-adv-x="573" 
d="M511 312l-58 -338q-15 -86 -59.5 -135t-115.5 -49q-63 0 -108 15l28 84q38 -12 66 -12q55 0 72 98l60 337q3 20 3 36q0 65 -66 65q-42 0 -79.5 -43.5t-53.5 -134.5l-41 -235h-118l65 368q2 12 2 21q0 24 -24 24q-20 0 -36 -10l8 84q32 13 77 13q41 0 62 -19.5t21 -50.5
q0 -9 -2 -25h5q49 95 152 95q69 0 107 -36t38 -101q0 -26 -5 -51z" />
    <glyph glyph-name="Omacron" unicode="&#x14c;" horiz-adv-x="719" 
d="M321 -10q-131 0 -198 71t-67 198q0 203 96 322t267 119q130 0 197 -71.5t67 -198.5q0 -202 -96.5 -321t-265.5 -119zM325 90q113 0 171.5 89.5t58.5 242.5q0 85 -35.5 131.5t-104.5 46.5q-114 0 -172.5 -90t-58.5 -243q0 -85 35.5 -131t105.5 -46zM290 773l15 85h299
l-16 -85h-298z" />
    <glyph glyph-name="omacron" unicode="&#x14d;" horiz-adv-x="546" 
d="M32 183q0 144 67.5 230.5t194.5 86.5q98 0 151 -53t53 -142q0 -143 -68 -229t-195 -86q-99 0 -151 52t-52 141zM236 77q69 0 105.5 57.5t36.5 170.5q0 108 -85 108q-142 0 -142 -229q0 -107 85 -107zM182 593l15 85h299l-16 -85h-298z" />
    <glyph glyph-name="Obreve" unicode="&#x14e;" horiz-adv-x="719" 
d="M321 -10q-131 0 -198 71t-67 198q0 203 96 322t267 119q130 0 197 -71.5t67 -198.5q0 -202 -96.5 -321t-265.5 -119zM325 90q113 0 171.5 89.5t58.5 242.5q0 85 -35.5 131.5t-104.5 46.5q-114 0 -172.5 -90t-58.5 -243q0 -85 35.5 -131t105.5 -46zM439 737
q-68 0 -106.5 42t-28.5 112h80q-4 -70 63 -70t88 70h88q-14 -71 -65 -112.5t-119 -41.5z" />
    <glyph glyph-name="obreve" unicode="&#x14f;" horiz-adv-x="546" 
d="M32 183q0 144 67.5 230.5t194.5 86.5q98 0 151 -53t53 -142q0 -143 -68 -229t-195 -86q-99 0 -151 52t-52 141zM236 77q69 0 105.5 57.5t36.5 170.5q0 108 -85 108q-142 0 -142 -229q0 -107 85 -107zM308 556q-69 0 -106 40t-27 111h73q-5 -35 12.5 -55.5t53.5 -20.5
t61 20.5t32 55.5h81q-15 -71 -64 -111t-116 -40z" />
    <glyph glyph-name="Ohungarumlaut" unicode="&#x150;" horiz-adv-x="719" 
d="M321 -10q-131 0 -198 71t-67 198q0 203 96 322t267 119q130 0 197 -71.5t67 -198.5q0 -202 -96.5 -321t-265.5 -119zM325 90q113 0 171.5 89.5t58.5 242.5q0 85 -35.5 131.5t-104.5 46.5q-114 0 -172.5 -90t-58.5 -243q0 -85 35.5 -131t105.5 -46zM493 740l1 10l81 130
h126l-2 -10l-110 -130h-96zM308 740l2 10l81 130h126l-2 -10l-112 -130h-95z" />
    <glyph glyph-name="ohungarumlaut" unicode="&#x151;" horiz-adv-x="546" 
d="M32 183q0 144 67.5 230.5t194.5 86.5q98 0 151 -53t53 -142q0 -143 -68 -229t-195 -86q-99 0 -151 52t-52 141zM236 77q69 0 105.5 57.5t36.5 170.5q0 108 -85 108q-142 0 -142 -229q0 -107 85 -107zM346 560l1 10l81 130h126l-2 -10l-110 -130h-96zM161 560l2 10l81 130
h126l-2 -10l-112 -130h-95z" />
    <glyph glyph-name="OE" unicode="&#x152;" horiz-adv-x="996" 
d="M454 0l6 38q-73 -48 -154 -48q-121 0 -185.5 71t-64.5 197q0 200 95 321t259 121q99 0 158 -49l7 39h439l-18 -100h-318l-34 -191h268l-18 -100h-268l-35 -198h319l-18 -101h-438zM325 90q102 0 159 85l61 346q-25 79 -130 79q-114 0 -172.5 -90t-58.5 -243
q0 -85 35.5 -131t105.5 -46z" />
    <glyph glyph-name="oe" unicode="&#x153;" horiz-adv-x="853" 
d="M32 185q0 140 70 227.5t193 87.5q125 0 162 -99q67 99 176 99q89 0 136 -43t47 -112q0 -41 -21 -108h-309q-29 -162 79 -162q43 0 74 26t35 70l108 -3q-7 -76 -59.5 -127t-158.5 -51q-68 0 -105 23.5t-54 72.5q-30 -46 -77 -71t-101 -25q-97 0 -146 52t-49 143zM234 77
q68 0 105.5 56t37.5 169q0 111 -84 111q-143 0 -143 -225q0 -111 84 -111zM501 303h202q6 18 6 38q0 40 -22.5 61t-57.5 21q-46 0 -80 -32t-48 -88z" />
    <glyph glyph-name="Racute" unicode="&#x154;" horiz-adv-x="626" 
d="M36 0l122 690h209q226 0 226 -185q0 -88 -47 -147.5t-127 -78.5l-1 -6q11 -14 66 -132t71 -125l-3 -16h-124q-18 10 -67 126t-60 124h-99l-45 -250h-121zM216 347h99q81 0 115 42t34 106q0 43 -26.5 69.5t-79.5 26.5h-99zM295 740l2 10l98 130h137l-2 -10l-126 -130h-109
z" />
    <glyph glyph-name="racute" unicode="&#x155;" horiz-adv-x="460" 
d="M305 411q-31 0 -58.5 -40t-40.5 -112l-47 -259h-118l65 368q8 45 -22 45q-20 0 -36 -10l8 84q32 13 77 13q41 0 60.5 -19t19.5 -50q0 -14 -3 -26h6q49 95 130 95q50 0 77.5 -30t27.5 -78q0 -41 -22 -96l-101 6q14 40 14 61q0 22 -9.5 35t-27.5 13zM188 560l2 10l98 130
h137l-2 -10l-126 -130h-109z" />
    <glyph glyph-name="Rcommaaccent" unicode="&#x156;" horiz-adv-x="626" 
d="M36 0l122 690h209q226 0 226 -185q0 -88 -47 -147.5t-127 -78.5l-1 -6q11 -14 66 -132t71 -125l-3 -16h-124q-18 10 -67 126t-60 124h-99l-45 -250h-121zM216 347h99q81 0 115 42t34 106q0 43 -26.5 69.5t-79.5 26.5h-99zM203 -57h136l-21 -115q-23 -137 -163 -130l14 54
q73 -1 86 72h-74z" />
    <glyph glyph-name="rcommaaccent" unicode="&#x157;" horiz-adv-x="460" 
d="M305 411q-31 0 -58.5 -40t-40.5 -112l-47 -259h-118l65 368q8 45 -22 45q-20 0 -36 -10l8 84q32 13 77 13q41 0 60.5 -19t19.5 -50q0 -14 -3 -26h6q49 95 130 95q50 0 77.5 -30t27.5 -78q0 -41 -22 -96l-101 6q14 40 14 61q0 22 -9.5 35t-27.5 13zM26 -57h136l-21 -115
q-23 -137 -163 -130l14 54q73 -1 86 72h-74z" />
    <glyph glyph-name="Rcaron" unicode="&#x158;" horiz-adv-x="626" 
d="M36 0l122 690h209q226 0 226 -185q0 -88 -47 -147.5t-127 -78.5l-1 -6q11 -14 66 -132t71 -125l-3 -16h-124q-18 10 -67 126t-60 124h-99l-45 -250h-121zM216 347h99q81 0 115 42t34 106q0 43 -26.5 69.5t-79.5 26.5h-99zM564 880l-2 -10l-123 -130h-154l-79 130l2 10h98
l57 -94h4l90 94h107z" />
    <glyph glyph-name="rcaron" unicode="&#x159;" horiz-adv-x="460" 
d="M305 411q-31 0 -58.5 -40t-40.5 -112l-47 -259h-118l65 368q8 45 -22 45q-20 0 -36 -10l8 84q32 13 77 13q41 0 60.5 -19t19.5 -50q0 -14 -3 -26h6q49 95 130 95q50 0 77.5 -30t27.5 -78q0 -41 -22 -96l-101 6q14 40 14 61q0 22 -9.5 35t-27.5 13zM444 700l-1 -10
l-116 -130h-140l-71 130l2 10h91l50 -88h4l83 88h98z" />
    <glyph glyph-name="Sacute" unicode="&#x15a;" horiz-adv-x="593" 
d="M41 230l121 3q-8 -27 -8 -52q0 -91 110 -91q66 0 101.5 29.5t35.5 80.5q0 55 -66 78l-106 38q-66 23 -99.5 61.5t-33.5 104.5q0 95 69.5 156.5t189.5 61.5q64 0 108.5 -15t66.5 -40t31 -51t9 -56q0 -24 -10 -61l-120 -3q8 32 8 51q0 75 -98 75q-65 0 -96 -29.5t-31 -77.5
q0 -58 65 -80l112 -38q67 -23 99 -60.5t32 -101.5q0 -96 -74.5 -159.5t-199.5 -63.5q-65 0 -112 16t-70.5 43.5t-34 56.5t-10.5 62q0 38 11 62zM308 740l2 10l98 130h137l-2 -10l-126 -130h-109z" />
    <glyph glyph-name="sacute" unicode="&#x15b;" horiz-adv-x="496" 
d="M22 168l107 3q-6 -18 -6 -36q0 -60 89 -60q49 0 74.5 18t25.5 46q0 21 -14.5 32.5t-45.5 19.5l-58 16q-68 19 -101.5 49.5t-33.5 80.5q0 72 56.5 117.5t162.5 45.5q98 0 138.5 -36.5t40.5 -86.5q0 -25 -7 -49l-105 -3q6 15 6 36t-19 37t-60 16q-47 0 -72 -18.5t-25 -45.5
q0 -17 10.5 -29t22.5 -16.5t32 -9.5l62 -15q128 -30 128 -126q0 -70 -54.5 -117t-169.5 -47q-103 0 -147.5 39t-44.5 92q0 23 8 47zM235 560l2 10l98 130h137l-2 -10l-126 -130h-109z" />
    <glyph glyph-name="Scircumflex" unicode="&#x15c;" horiz-adv-x="593" 
d="M41 230l121 3q-8 -27 -8 -52q0 -91 110 -91q66 0 101.5 29.5t35.5 80.5q0 55 -66 78l-106 38q-66 23 -99.5 61.5t-33.5 104.5q0 95 69.5 156.5t189.5 61.5q64 0 108.5 -15t66.5 -40t31 -51t9 -56q0 -24 -10 -61l-120 -3q8 32 8 51q0 75 -98 75q-65 0 -96 -29.5t-31 -77.5
q0 -58 65 -80l112 -38q67 -23 99 -60.5t32 -101.5q0 -96 -74.5 -159.5t-199.5 -63.5q-65 0 -112 16t-70.5 43.5t-34 56.5t-10.5 62q0 38 11 62zM212 740l2 10l124 130h154l78 -130l-1 -10h-99l-56 94h-4l-91 -94h-107z" />
    <glyph glyph-name="scircumflex" unicode="&#x15d;" horiz-adv-x="496" 
d="M22 168l107 3q-6 -18 -6 -36q0 -60 89 -60q49 0 74.5 18t25.5 46q0 21 -14.5 32.5t-45.5 19.5l-58 16q-68 19 -101.5 49.5t-33.5 80.5q0 72 56.5 117.5t162.5 45.5q98 0 138.5 -36.5t40.5 -86.5q0 -25 -7 -49l-105 -3q6 15 6 36t-19 37t-60 16q-47 0 -72 -18.5t-25 -45.5
q0 -17 10.5 -29t22.5 -16.5t32 -9.5l62 -15q128 -30 128 -126q0 -70 -54.5 -117t-169.5 -47q-103 0 -147.5 39t-44.5 92q0 23 8 47zM138 560l1 10l116 130h140l71 -130l-2 -10h-90l-51 86h-5l-82 -86h-98z" />
    <glyph glyph-name="Scedilla" unicode="&#x15e;" horiz-adv-x="593" 
d="M41 230l121 3q-8 -27 -8 -52q0 -91 110 -91q66 0 101.5 29.5t35.5 80.5q0 55 -66 78l-106 38q-66 23 -99.5 61.5t-33.5 104.5q0 95 69.5 156.5t189.5 61.5q64 0 108.5 -15t66.5 -40t31 -51t9 -56q0 -24 -10 -61l-120 -3q8 32 8 51q0 75 -98 75q-65 0 -96 -29.5t-31 -77.5
q0 -58 65 -80l112 -38q67 -23 99 -60.5t32 -101.5q0 -96 -74.5 -159.5t-199.5 -63.5q-65 0 -112 16t-70.5 43.5t-34 56.5t-10.5 62q0 38 11 62zM222 -68l85 22q18 -36 18 -78q0 -60 -36.5 -95t-104.5 -35q-56 0 -82 24l22 74q31 -23 55 -23q27 0 40.5 16.5t13.5 43.5
q0 23 -11 51z" />
    <glyph glyph-name="scedilla" unicode="&#x15f;" horiz-adv-x="496" 
d="M22 168l107 3q-6 -18 -6 -36q0 -60 89 -60q49 0 74.5 18t25.5 46q0 21 -14.5 32.5t-45.5 19.5l-58 16q-68 19 -101.5 49.5t-33.5 80.5q0 72 56.5 117.5t162.5 45.5q98 0 138.5 -36.5t40.5 -86.5q0 -25 -7 -49l-105 -3q6 15 6 36t-19 37t-60 16q-47 0 -72 -18.5t-25 -45.5
q0 -17 10.5 -29t22.5 -16.5t32 -9.5l62 -15q128 -30 128 -126q0 -70 -54.5 -117t-169.5 -47q-103 0 -147.5 39t-44.5 92q0 23 8 47zM167 -68l85 22q18 -36 18 -78q0 -60 -36.5 -95t-104.5 -35q-56 0 -82 24l22 74q31 -23 55 -23q27 0 40.5 16.5t13.5 43.5q0 23 -11 51z" />
    <glyph glyph-name="Scaron" unicode="&#x160;" horiz-adv-x="593" 
d="M41 230l121 3q-8 -27 -8 -52q0 -91 110 -91q66 0 101.5 29.5t35.5 80.5q0 55 -66 78l-106 38q-66 23 -99.5 61.5t-33.5 104.5q0 95 69.5 156.5t189.5 61.5q64 0 108.5 -15t66.5 -40t31 -51t9 -56q0 -24 -10 -61l-120 -3q8 32 8 51q0 75 -98 75q-65 0 -96 -29.5t-31 -77.5
q0 -58 65 -80l112 -38q67 -23 99 -60.5t32 -101.5q0 -96 -74.5 -159.5t-199.5 -63.5q-65 0 -112 16t-70.5 43.5t-34 56.5t-10.5 62q0 38 11 62zM585 880l-2 -10l-123 -130h-154l-79 130l2 10h98l57 -94h4l90 94h107z" />
    <glyph glyph-name="scaron" unicode="&#x161;" horiz-adv-x="496" 
d="M22 168l107 3q-6 -18 -6 -36q0 -60 89 -60q49 0 74.5 18t25.5 46q0 21 -14.5 32.5t-45.5 19.5l-58 16q-68 19 -101.5 49.5t-33.5 80.5q0 72 56.5 117.5t162.5 45.5q98 0 138.5 -36.5t40.5 -86.5q0 -25 -7 -49l-105 -3q6 15 6 36t-19 37t-60 16q-47 0 -72 -18.5t-25 -45.5
q0 -17 10.5 -29t22.5 -16.5t32 -9.5l62 -15q128 -30 128 -126q0 -70 -54.5 -117t-169.5 -47q-103 0 -147.5 39t-44.5 92q0 23 8 47zM491 700l-1 -10l-116 -130h-140l-71 130l2 10h91l50 -88h4l83 88h98z" />
    <glyph glyph-name="Tcommaaccent" unicode="&#x162;" horiz-adv-x="556" 
d="M164 0l104 589h-196l17 101h514l-18 -101h-196l-104 -589h-121zM170 -68l85 22q18 -36 18 -78q0 -60 -36.5 -95t-104.5 -35q-56 0 -82 24l22 74q31 -23 55 -23q27 0 40.5 16.5t13.5 43.5q0 23 -11 51z" />
    <glyph glyph-name="tcommaaccent" unicode="&#x163;" horiz-adv-x="396" 
d="M74 159l44 254h-81l13 77h92l48 111h77l-19 -111h152l-14 -77h-151l-43 -243q-5 -25 -5 -46q0 -40 44 -40q41 0 98 31l-11 -99q-63 -26 -123 -26q-61 0 -94.5 30.5t-33.5 78.5q0 21 7 60zM135 -68l85 22q18 -36 18 -78q0 -60 -36.5 -95t-104.5 -35q-56 0 -82 24l22 74
q31 -23 55 -23q27 0 40.5 16.5t13.5 43.5q0 23 -11 51z" />
    <glyph glyph-name="Tcaron" unicode="&#x164;" horiz-adv-x="556" 
d="M164 0l104 589h-196l17 101h514l-18 -101h-196l-104 -589h-121zM551 880l-2 -10l-123 -130h-154l-79 130l2 10h98l57 -94h4l90 94h107z" />
    <glyph glyph-name="tcaron" unicode="&#x165;" horiz-adv-x="446" 
d="M74 159l44 254h-81l13 77h92l48 111h77l-19 -111h152l-14 -77h-151l-43 -243q-5 -25 -5 -46q0 -40 44 -40q41 0 98 31l-11 -99q-63 -26 -123 -26q-61 0 -94.5 30.5t-33.5 78.5q0 21 7 60zM472 690h136l-21 -116q-23 -137 -163 -130l14 55q75 -3 87 72h-74z" />
    <glyph glyph-name="Tbar" unicode="&#x166;" horiz-adv-x="556" 
d="M116 262l16 86h94l42 241h-196l17 101h514l-18 -101h-196l-43 -241h93l-15 -86h-92l-47 -262h-121l47 262h-95z" />
    <glyph glyph-name="tbar" unicode="&#x167;" horiz-adv-x="395" 
d="M11 241l13 74h77l17 98h-82l14 77h92l49 111h76l-19 -111h152l-14 -77h-152l-17 -98h117l-14 -74h-116l-15 -88q-3 -17 -3 -29q0 -40 45 -40q41 0 98 31l-11 -99q-63 -26 -123 -26q-61 0 -94.5 30.5t-33.5 78.5q0 18 4 46l16 96h-76z" />
    <glyph glyph-name="Utilde" unicode="&#x168;" horiz-adv-x="700" 
d="M83 307l67 383h121l-67 -377q-23 -126 4.5 -174.5t107.5 -48.5q79 0 122 48.5t66 174.5l67 377h120l-67 -383q-30 -172 -104.5 -244.5t-207.5 -72.5q-145 0 -202 73t-27 244zM268 747q24 143 119 143q38 0 60 -25l36 -34q13 -13 25 -13q28 0 39 61h85q-23 -144 -123 -144
q-36 0 -63 27l-31 29q-15 15 -26 15q-26 0 -39 -59h-82z" />
    <glyph glyph-name="utilde" unicode="&#x169;" horiz-adv-x="570" 
d="M341 85h-6q-47 -95 -153 -95q-67 0 -104.5 36t-37.5 101q0 26 5 51l56 312h118l-58 -312q-4 -26 -4 -36q0 -65 66 -65q42 0 78.5 43.5t52.5 134.5l42 235h117l-65 -368q-8 -45 23 -45q18 0 36 10l-9 -84q-35 -13 -77 -13q-40 0 -61.5 19.5t-21.5 50.5q0 13 3 25zM152 567
q24 143 119 143q38 0 60 -25l36 -34q13 -13 25 -13q28 0 39 61h85q-23 -144 -123 -144q-36 0 -63 27l-31 29q-15 15 -26 15q-26 0 -39 -59h-82z" />
    <glyph glyph-name="Umacron" unicode="&#x16a;" horiz-adv-x="700" 
d="M83 307l67 383h121l-67 -377q-23 -126 4.5 -174.5t107.5 -48.5q79 0 122 48.5t66 174.5l67 377h120l-67 -383q-30 -172 -104.5 -244.5t-207.5 -72.5q-145 0 -202 73t-27 244zM290 773l15 85h299l-16 -85h-298z" />
    <glyph glyph-name="umacron" unicode="&#x16b;" horiz-adv-x="570" 
d="M341 85h-6q-47 -95 -153 -95q-67 0 -104.5 36t-37.5 101q0 26 5 51l56 312h118l-58 -312q-4 -26 -4 -36q0 -65 66 -65q42 0 78.5 43.5t52.5 134.5l42 235h117l-65 -368q-8 -45 23 -45q18 0 36 10l-9 -84q-35 -13 -77 -13q-40 0 -61.5 19.5t-21.5 50.5q0 13 3 25zM176 593
l15 85h299l-16 -85h-298z" />
    <glyph glyph-name="Ubreve" unicode="&#x16c;" horiz-adv-x="700" 
d="M83 307l67 383h121l-67 -377q-23 -126 4.5 -174.5t107.5 -48.5q79 0 122 48.5t66 174.5l67 377h120l-67 -383q-30 -172 -104.5 -244.5t-207.5 -72.5q-145 0 -202 73t-27 244zM429 737q-68 0 -106.5 42t-28.5 112h80q-4 -70 63 -70t88 70h88q-14 -71 -65 -112.5
t-119 -41.5z" />
    <glyph glyph-name="ubreve" unicode="&#x16d;" horiz-adv-x="570" 
d="M341 85h-6q-47 -95 -153 -95q-67 0 -104.5 36t-37.5 101q0 26 5 51l56 312h118l-58 -312q-4 -26 -4 -36q0 -65 66 -65q42 0 78.5 43.5t52.5 134.5l42 235h117l-65 -368q-8 -45 23 -45q18 0 36 10l-9 -84q-35 -13 -77 -13q-40 0 -61.5 19.5t-21.5 50.5q0 13 3 25zM321 556
q-69 0 -106 40t-27 111h73q-5 -35 12.5 -55.5t53.5 -20.5t61 20.5t32 55.5h81q-15 -71 -64 -111t-116 -40z" />
    <glyph glyph-name="Uring" unicode="&#x16e;" horiz-adv-x="700" 
d="M83 307l67 383h121l-67 -377q-23 -126 4.5 -174.5t107.5 -48.5q79 0 122 48.5t66 174.5l67 377h120l-67 -383q-30 -172 -104.5 -244.5t-207.5 -72.5q-145 0 -202 73t-27 244zM421 691q-44 0 -72 27t-28 68q0 56 39 94.5t95 38.5q44 0 72.5 -27t28.5 -68
q0 -56 -39.5 -94.5t-95.5 -38.5zM427 746q31 0 49 20t18 52q0 20 -11.5 32.5t-33.5 12.5q-31 0 -50 -19.5t-19 -49.5q0 -21 12.5 -34.5t34.5 -13.5z" />
    <glyph glyph-name="uring" unicode="&#x16f;" horiz-adv-x="570" 
d="M341 85h-6q-47 -95 -153 -95q-67 0 -104.5 36t-37.5 101q0 26 5 51l56 312h118l-58 -312q-4 -26 -4 -36q0 -65 66 -65q42 0 78.5 43.5t52.5 134.5l42 235h117l-65 -368q-8 -45 23 -45q18 0 36 10l-9 -84q-35 -13 -77 -13q-40 0 -61.5 19.5t-21.5 50.5q0 13 3 25zM316 527
q-44 0 -72 27t-28 68q0 56 39 94.5t95 38.5q44 0 72.5 -27t28.5 -68q0 -56 -39.5 -94.5t-95.5 -38.5zM322 582q31 0 49 20t18 52q0 20 -11.5 32.5t-33.5 12.5q-31 0 -50 -19.5t-19 -49.5q0 -21 12.5 -34.5t34.5 -13.5z" />
    <glyph glyph-name="Uhungarumlaut" unicode="&#x170;" horiz-adv-x="700" 
d="M83 307l67 383h121l-67 -377q-23 -126 4.5 -174.5t107.5 -48.5q79 0 122 48.5t66 174.5l67 377h120l-67 -383q-30 -172 -104.5 -244.5t-207.5 -72.5q-145 0 -202 73t-27 244zM465 740l1 10l81 130h126l-2 -10l-110 -130h-96zM280 740l2 10l81 130h126l-2 -10l-112 -130
h-95z" />
    <glyph glyph-name="uhungarumlaut" unicode="&#x171;" horiz-adv-x="570" 
d="M341 85h-6q-47 -95 -153 -95q-67 0 -104.5 36t-37.5 101q0 26 5 51l56 312h118l-58 -312q-4 -26 -4 -36q0 -65 66 -65q42 0 78.5 43.5t52.5 134.5l42 235h117l-65 -368q-8 -45 23 -45q18 0 36 10l-9 -84q-35 -13 -77 -13q-40 0 -61.5 19.5t-21.5 50.5q0 13 3 25zM359 560
l1 10l81 130h126l-2 -10l-110 -130h-96zM174 560l2 10l81 130h126l-2 -10l-112 -130h-95z" />
    <glyph glyph-name="Uogonek" unicode="&#x172;" horiz-adv-x="699" 
d="M141 -149q0 40 24 70.5t84 59.5l21 11q-123 8 -170.5 82t-19.5 233l67 383h121l-67 -377q-22 -126 5 -174.5t107 -48.5q79 0 122 48.5t66 174.5l67 377h120l-67 -383q-25 -141 -78.5 -213.5t-143.5 -93.5l-108 -62q-41 -24 -41 -57q0 -28 31 -28q34 0 95 37l-14 -88
q-52 -28 -117 -28q-48 0 -76 21t-28 56z" />
    <glyph glyph-name="uogonek" unicode="&#x173;" horiz-adv-x="570" 
d="M239 -146q0 40 24 70.5t84 59.5l29 15q-38 16 -38 61q0 13 3 25h-6q-47 -95 -153 -95q-67 0 -104.5 36t-37.5 101q0 26 5 51l56 312h118l-58 -312q-4 -26 -4 -36q0 -65 66 -65q42 0 78.5 43.5t52.5 134.5l42 235h117l-65 -368q-2 -12 -2 -21q0 -24 25 -24q18 0 36 10
l-9 -84l-109 -62q-41 -24 -41 -57q0 -28 31 -28q34 0 95 37l-14 -88q-52 -28 -117 -28q-48 0 -76 21t-28 56z" />
    <glyph glyph-name="Wcircumflex" unicode="&#x174;" horiz-adv-x="938" 
d="M593 690l37 -423q4 -59 3 -136h11q19 78 41 136l165 423h129l-281 -690h-139l-37 386q-7 70 -4 161h-10q-28 -94 -59 -161l-177 -386h-138l-36 690h122l14 -419q3 -64 -4 -140h11q34 102 50 137l187 422h115zM362 740l2 10l124 130h154l78 -130l-1 -10h-99l-56 94h-4
l-91 -94h-107z" />
    <glyph glyph-name="wcircumflex" unicode="&#x175;" horiz-adv-x="826" 
d="M608 490l124 10q47 -73 47 -179q0 -153 -73.5 -242t-184.5 -89q-54 0 -90 24.5t-53 64.5h-3q-32 -43 -69.5 -66t-95.5 -23q-69 0 -109.5 39t-40.5 112q0 21 6 53l30 165q10 54 -17 54q-20 0 -39 -12l12 85q42 14 79 14q89 0 87 -83q0 -12 -9 -68l-27 -151q-5 -28 -5 -47
q0 -74 62 -74q86 0 112 154l44 259h113l-50 -287q-6 -34 -6 -49q0 -77 72 -77q53 0 96 64t43 179q0 98 -55 170zM292 560l1 10l116 130h140l71 -130l-2 -10h-90l-51 86h-5l-82 -86h-98z" />
    <glyph glyph-name="Ycircumflex" unicode="&#x176;" horiz-adv-x="614" 
d="M195 0l48 266l-158 411l3 13h117l63 -171q33 -91 45 -150h10q69 114 94 149l124 172h128l-3 -13l-303 -411l-47 -266h-121zM195 740l2 10l124 130h154l78 -130l-1 -10h-99l-56 94h-4l-91 -94h-107z" />
    <glyph glyph-name="ycircumflex" unicode="&#x177;" horiz-adv-x="540" 
d="M191 -1l-87 385q-5 25 -29 25q-17 0 -39 -11l15 88q36 14 73 14q38 0 55 -16.5t24 -53.5l44 -225q10 -48 12 -115h10q27 85 41 118l125 282h119l-2 -13l-270 -538q-40 -80 -84 -114.5t-117 -34.5q-51 0 -105 12l22 86q36 -11 79 -11q64 0 94 73zM159 560l1 10l116 130
h140l71 -130l-2 -10h-90l-51 86h-5l-82 -86h-98z" />
    <glyph glyph-name="Ydieresis" unicode="&#x178;" horiz-adv-x="614" 
d="M195 0l48 266l-158 411l3 13h117l63 -171q33 -91 45 -150h10q69 114 94 149l124 172h128l-3 -13l-303 -411l-47 -266h-121zM201 758l18 106h119l-19 -106h-118zM449 758l18 106h119l-19 -106h-118z" />
    <glyph glyph-name="Zacute" unicode="&#x179;" horiz-adv-x="557" 
d="M-12 0l14 84l326 413q36 47 93 91v7q-50 -6 -101 -6h-209l18 101h457l-13 -72l-341 -428q-8 -10 -83 -88v-8q37 8 99 8h226l-18 -102h-468zM292 740l2 10l98 130h137l-2 -10l-126 -130h-109z" />
    <glyph glyph-name="zacute" unicode="&#x17a;" horiz-adv-x="455" 
d="M-11 0l14 79l231 261q27 30 69 60v9q-45 -6 -93 -6h-140l16 87h361l-12 -69l-235 -266q-26 -30 -74 -66v-8q46 6 97 6h153l-16 -87h-371zM213 560l2 10l98 130h137l-2 -10l-126 -130h-109z" />
    <glyph glyph-name="Zdotaccent" unicode="&#x17b;" horiz-adv-x="557" 
d="M-12 0l14 84l326 413q36 47 93 91v7q-50 -6 -101 -6h-209l18 101h457l-13 -72l-341 -428q-8 -10 -83 -88v-8q37 8 99 8h226l-18 -102h-468zM307 756l19 111h119l-20 -111h-118z" />
    <glyph glyph-name="zdotaccent" unicode="&#x17c;" horiz-adv-x="455" 
d="M-11 0l14 79l231 261q27 30 69 60v9q-45 -6 -93 -6h-140l16 87h361l-12 -69l-235 -266q-26 -30 -74 -66v-8q46 6 97 6h153l-16 -87h-371zM220 576l19 111h119l-20 -111h-118z" />
    <glyph glyph-name="Zcaron" unicode="&#x17d;" horiz-adv-x="557" 
d="M-12 0l14 84l326 413q36 47 93 91v7q-50 -6 -101 -6h-209l18 101h457l-13 -72l-341 -428q-8 -10 -83 -88v-8q37 8 99 8h226l-18 -102h-468zM569 880l-2 -10l-123 -130h-154l-79 130l2 10h98l57 -94h4l90 94h107z" />
    <glyph glyph-name="zcaron" unicode="&#x17e;" horiz-adv-x="455" 
d="M-11 0l14 79l231 261q27 30 69 60v9q-45 -6 -93 -6h-140l16 87h361l-12 -69l-235 -266q-26 -30 -74 -66v-8q46 6 97 6h153l-16 -87h-371zM462 700l-1 -10l-116 -130h-140l-71 130l2 10h91l50 -88h4l83 88h98z" />
    <glyph glyph-name="florin" unicode="&#x192;" horiz-adv-x="412" 
d="M35 -52l97 332h-108l22 78h109l56 207q44 165 173 165q51 0 99 -16l-32 -84q-32 13 -60 13q-42 0 -63 -74l-58 -211h134l-23 -78h-134l-98 -339q-21 -72 -66 -111.5t-112 -39.5q-50 0 -87 16l32 85q33 -13 58 -13q22 0 36 16t25 54z" />
    <glyph glyph-name="Aringacute" unicode="&#x1fa;" horiz-adv-x="635" 
d="M-31 0l326 629q-18 23 -18 54q0 45 28.5 79t72.5 43l59 83h129l-1 -8l-99 -91q36 -28 36 -71q0 -59 -44 -95l106 -623h-120l-26 158h-241l-80 -158h-128zM216 241h193l-25 193q-12 80 -14 114h-7q-19 -48 -50 -111zM381 650q28 0 44.5 17t16.5 43q0 18 -11.5 29.5
t-31.5 11.5q-29 0 -46.5 -16.5t-17.5 -42.5q0 -19 12 -30.5t34 -11.5z" />
    <glyph glyph-name="aringacute" unicode="&#x1fb;" horiz-adv-x="570" 
d="M187 -10q-69 0 -112.5 49t-43.5 145q0 136 69 226t164 90q87 0 130 -64h6l26 54h88l-64 -364q0 -3 -1.5 -12.5t-1.5 -13.5q0 -23 19 -23q20 0 40 11l-13 -84q-40 -14 -79 -14q-75 0 -81 64h-5q-69 -64 -141 -64zM333 123l43 242q-26 48 -79 48q-57 0 -99.5 -61.5
t-42.5 -165.5q0 -56 23 -82.5t60 -26.5q55 0 95 46zM340 534q-44 0 -72 25t-28 63q0 47 32.5 81.5t82.5 40.5l60 71h121l-2 -8l-92 -84q32 -26 32 -66q0 -52 -39.5 -87.5t-94.5 -35.5zM346 585q31 0 48.5 18.5t17.5 47.5q0 19 -11.5 30.5t-32.5 11.5q-31 0 -50 -18t-19 -46
q0 -19 12.5 -31.5t34.5 -12.5z" />
    <glyph glyph-name="AEacute" unicode="&#x1fc;" horiz-adv-x="919" 
d="M376 0l29 169h-195l-105 -169h-144l452 690h523l-17 -100h-319l-34 -191h268l-17 -100h-268l-36 -198h319l-18 -101h-438zM266 260h155l58 333h-9zM589 740l2 10l98 130h137l-2 -10l-126 -130h-109z" />
    <glyph glyph-name="aeacute" unicode="&#x1fd;" horiz-adv-x="798" 
d="M175 321l-107 -6q-1 14 0 26q5 72 59 115.5t151 43.5q114 0 146 -73q56 73 155 73q90 0 136.5 -43t46.5 -113q0 -40 -21 -107h-307q-30 -162 75 -162q43 0 73.5 26.5t33.5 69.5l110 -2q2 -67 -59.5 -123t-165.5 -56q-62 0 -99 22.5t-58 67.5h-4q-98 -90 -195 -90
q-66 0 -100.5 30.5t-34.5 87.5q0 170 319 174l10 53q6 37 -10 59t-56 22q-98 0 -99 -80q-1 -4 1 -15zM127 122q0 -51 53 -51q67 0 123 63l16 87q-107 -1 -149.5 -27t-42.5 -72zM448 303h200q5 22 5 38q0 40 -21.5 61t-58.5 21q-46 0 -78.5 -31.5t-46.5 -88.5zM391 560l2 10
l98 130h137l-2 -10l-126 -130h-109z" />
    <glyph glyph-name="Oslashacute" unicode="&#x1fe;" horiz-adv-x="719" 
d="M385 740l2 10l98 130h137l-2 -10l-126 -130h-109zM321 -10q-101 0 -165 45l-29 -35h-86l65 78q-50 63 -50 181q0 203 96 322t267 119q103 0 167 -50l33 40h85l-70 -84q49 -65 49 -176q0 -202 -96.5 -321t-265.5 -119zM184 267q0 -58 12 -86l313 381q-36 38 -94 38
q-114 0 -172.5 -90t-58.5 -243zM325 90q113 0 171.5 89.5t58.5 242.5q0 47 -13 80l-310 -380q35 -32 93 -32z" />
    <glyph glyph-name="oslashacute" unicode="&#x1ff;" horiz-adv-x="546" 
d="M238 560l2 10l98 130h137l-2 -10l-126 -130h-109zM32 183q0 144 67.5 230.5t194.5 86.5q81 0 135 -41l37 41h87l-82 -87q27 -45 27 -108q0 -143 -68 -229t-195 -86q-77 0 -128 35l-33 -35h-87l75 79q-30 48 -30 114zM293 417q-133 0 -141 -205q-2 -30 2 -50l204 225
q-22 30 -65 30zM235 73q134 0 141 201q1 24 0 43l-201 -221q22 -23 60 -23z" />
    <glyph glyph-name="Scommaaccent" unicode="&#x218;" horiz-adv-x="593" 
d="M41 230l121 3q-8 -27 -8 -52q0 -91 110 -91q66 0 101.5 29.5t35.5 80.5q0 55 -66 78l-106 38q-66 23 -99.5 61.5t-33.5 104.5q0 95 69.5 156.5t189.5 61.5q64 0 108.5 -15t66.5 -40t31 -51t9 -56q0 -24 -10 -61l-120 -3q8 32 8 51q0 75 -98 75q-65 0 -96 -29.5t-31 -77.5
q0 -58 65 -80l112 -38q67 -23 99 -60.5t32 -101.5q0 -96 -74.5 -159.5t-199.5 -63.5q-65 0 -112 16t-70.5 43.5t-34 56.5t-10.5 62q0 38 11 62zM176 -57h136l-21 -115q-23 -137 -163 -130l14 54q73 -1 86 72h-74z" />
    <glyph glyph-name="scommaaccent" unicode="&#x219;" horiz-adv-x="496" 
d="M22 168l107 3q-6 -18 -6 -36q0 -60 89 -60q49 0 74.5 18t25.5 46q0 21 -14.5 32.5t-45.5 19.5l-58 16q-68 19 -101.5 49.5t-33.5 80.5q0 72 56.5 117.5t162.5 45.5q98 0 138.5 -36.5t40.5 -86.5q0 -25 -7 -49l-105 -3q6 15 6 36t-19 37t-60 16q-47 0 -72 -18.5t-25 -45.5
q0 -17 10.5 -29t22.5 -16.5t32 -9.5l62 -15q128 -30 128 -126q0 -70 -54.5 -117t-169.5 -47q-103 0 -147.5 39t-44.5 92q0 23 8 47zM142 -57h136l-21 -115q-23 -137 -163 -130l14 54q73 -1 86 72h-74z" />
    <glyph glyph-name="uni021A" unicode="&#x21a;" horiz-adv-x="556" 
d="M164 0l104 589h-196l17 101h514l-18 -101h-196l-104 -589h-121zM150 -57h136l-21 -115q-23 -137 -163 -130l14 54q73 -1 86 72h-74z" />
    <glyph glyph-name="uni021B" unicode="&#x21b;" horiz-adv-x="396" 
d="M74 159l44 254h-81l13 77h92l48 111h77l-19 -111h152l-14 -77h-151l-43 -243q-5 -25 -5 -46q0 -40 44 -40q41 0 98 31l-11 -99q-63 -26 -123 -26q-61 0 -94.5 30.5t-33.5 78.5q0 21 7 60zM115 -57h136l-21 -115q-23 -137 -163 -130l14 54q73 -1 86 72h-74z" />
    <glyph glyph-name="dotlessj" unicode="&#x237;" horiz-adv-x="263" 
d="M229 490l-91 -516q-15 -86 -60.5 -135t-121.5 -49q-50 0 -93 15l27 84q36 -12 63 -12q50 0 68 99l90 514h118z" />
    <glyph glyph-name="circumflex" unicode="&#x2c6;" horiz-adv-x="500" 
d="M193 540l2 10l124 130h154l78 -130l-1 -10h-99l-56 94h-4l-91 -94h-107z" />
    <glyph glyph-name="caron" unicode="&#x2c7;" horiz-adv-x="500" 
d="M574 680l-2 -10l-123 -130h-154l-79 130l2 10h98l57 -94h4l90 94h107z" />
    <glyph glyph-name="uni02C9" unicode="&#x2c9;" horiz-adv-x="500" 
d="M312 573l15 85h299l-16 -85h-298z" />
    <glyph glyph-name="breve" unicode="&#x2d8;" horiz-adv-x="501" 
d="M355 537q-68 0 -106.5 42t-28.5 112h80q-4 -70 63 -70t88 70h88q-14 -71 -65 -112.5t-119 -41.5z" />
    <glyph glyph-name="dotaccent" unicode="&#x2d9;" horiz-adv-x="474" 
d="M282 556l19 111h119l-20 -111h-118z" />
    <glyph glyph-name="ring" unicode="&#x2da;" horiz-adv-x="494" 
d="M352 579q-44 0 -72 27t-28 68q0 56 39 94.5t95 38.5q44 0 72.5 -27t28.5 -68q0 -56 -39.5 -94.5t-95.5 -38.5zM358 634q31 0 49 20t18 52q0 20 -11.5 32.5t-33.5 12.5q-31 0 -50 -19.5t-19 -49.5q0 -21 12.5 -34.5t34.5 -13.5z" />
    <glyph glyph-name="ogonek" unicode="&#x2db;" horiz-adv-x="482" 
d="M49 -149q0 40 24 70.5t84 59.5l126 62l25 -43l-109 -62q-41 -24 -41 -57q0 -28 31 -28q34 0 95 37l-14 -88q-52 -28 -117 -28q-48 0 -76 21t-28 56z" />
    <glyph glyph-name="tilde" unicode="&#x2dc;" horiz-adv-x="497" 
d="M182 547q24 143 119 143q38 0 60 -25l36 -34q13 -13 25 -13q28 0 39 61h85q-23 -144 -123 -144q-36 0 -63 27l-31 29q-15 15 -26 15q-26 0 -39 -59h-82z" />
    <glyph glyph-name="hungarumlaut" unicode="&#x2dd;" horiz-adv-x="506" 
d="M346 540l1 10l81 130h126l-2 -10l-110 -130h-96zM161 540l2 10l81 130h126l-2 -10l-112 -130h-95z" />
    <glyph glyph-name="uni0394" unicode="&#x394;" horiz-adv-x="666" 
d="M-13 0l346 690h146l103 -690h-595zM163 101h287l-55 485h-6z" />
    <glyph glyph-name="uni03A9" unicode="&#x3a9;" horiz-adv-x="714" 
d="M412 600q-108 0 -165.5 -79.5t-57.5 -205.5q0 -76 21 -125t61 -89l-18 -101h-252l18 101h129q-85 89 -85 218q0 167 96.5 274t255.5 107q132 0 201 -69t69 -184q0 -222 -174 -346h118l-17 -101h-252l18 101q76 49 128 131t52 198q0 80 -38 125t-108 45z" />
    <glyph glyph-name="uni03BC" unicode="&#x3bc;" horiz-adv-x="534" 
d="M-25 -200l122 690h117l-51 -294q-13 -67 2.5 -93t55.5 -26q58 0 104 62l63 351h116l-86 -490h-86l-3 70h-6q-64 -80 -142 -80q-31 0 -51 25l-37 -215h-118z" />
    <glyph glyph-name="pi" unicode="&#x3c0;" horiz-adv-x="615" 
d="M391 399h-154l-69 -399h-118l70 399h-77l15 91h548l-15 -91h-82l-48 -271q-8 -47 24 -47q15 0 50 19l-16 -90q-36 -20 -89 -20q-112 0 -89 117z" />
    <glyph glyph-name="Wgrave" unicode="&#x1e80;" horiz-adv-x="938" 
d="M593 690l37 -423q4 -59 3 -136h11q19 78 41 136l165 423h129l-281 -690h-139l-37 386q-7 70 -4 161h-10q-28 -94 -59 -161l-177 -386h-138l-36 690h122l14 -419q3 -64 -4 -140h11q34 102 50 137l187 422h115zM503 740l-82 130l2 10h121l54 -130l-2 -10h-93z" />
    <glyph glyph-name="wgrave" unicode="&#x1e81;" horiz-adv-x="826" 
d="M608 490l124 10q47 -73 47 -179q0 -153 -73.5 -242t-184.5 -89q-54 0 -90 24.5t-53 64.5h-3q-32 -43 -69.5 -66t-95.5 -23q-69 0 -109.5 39t-40.5 112q0 21 6 53l30 165q10 54 -17 54q-20 0 -39 -12l12 85q42 14 79 14q89 0 87 -83q0 -12 -9 -68l-27 -151q-5 -28 -5 -47
q0 -74 62 -74q86 0 112 154l44 259h113l-50 -287q-6 -34 -6 -49q0 -77 72 -77q53 0 96 64t43 179q0 98 -55 170zM418 560l-82 130l2 10h121l54 -130l-2 -10h-93z" />
    <glyph glyph-name="Wacute" unicode="&#x1e82;" horiz-adv-x="938" 
d="M593 690l37 -423q4 -59 3 -136h11q19 78 41 136l165 423h129l-281 -690h-139l-37 386q-7 70 -4 161h-10q-28 -94 -59 -161l-177 -386h-138l-36 690h122l14 -419q3 -64 -4 -140h11q34 102 50 137l187 422h115zM487 740l2 10l98 130h137l-2 -10l-126 -130h-109z" />
    <glyph glyph-name="wacute" unicode="&#x1e83;" horiz-adv-x="826" 
d="M608 490l124 10q47 -73 47 -179q0 -153 -73.5 -242t-184.5 -89q-54 0 -90 24.5t-53 64.5h-3q-32 -43 -69.5 -66t-95.5 -23q-69 0 -109.5 39t-40.5 112q0 21 6 53l30 165q10 54 -17 54q-20 0 -39 -12l12 85q42 14 79 14q89 0 87 -83q0 -12 -9 -68l-27 -151q-5 -28 -5 -47
q0 -74 62 -74q86 0 112 154l44 259h113l-50 -287q-6 -34 -6 -49q0 -77 72 -77q53 0 96 64t43 179q0 98 -55 170zM399 560l2 10l98 130h137l-2 -10l-126 -130h-109z" />
    <glyph glyph-name="Wdieresis" unicode="&#x1e84;" horiz-adv-x="938" 
d="M593 690l37 -423q4 -59 3 -136h11q19 78 41 136l165 423h129l-281 -690h-139l-37 386q-7 70 -4 161h-10q-28 -94 -59 -161l-177 -386h-138l-36 690h122l14 -419q3 -64 -4 -140h11q34 102 50 137l187 422h115zM367 758l18 106h119l-19 -106h-118zM615 758l18 106h119
l-19 -106h-118z" />
    <glyph glyph-name="wdieresis" unicode="&#x1e85;" horiz-adv-x="826" 
d="M608 490l124 10q47 -73 47 -179q0 -153 -73.5 -242t-184.5 -89q-54 0 -90 24.5t-53 64.5h-3q-32 -43 -69.5 -66t-95.5 -23q-69 0 -109.5 39t-40.5 112q0 21 6 53l30 165q10 54 -17 54q-20 0 -39 -12l12 85q42 14 79 14q89 0 87 -83q0 -12 -9 -68l-27 -151q-5 -28 -5 -47
q0 -74 62 -74q86 0 112 154l44 259h113l-50 -287q-6 -34 -6 -49q0 -77 72 -77q53 0 96 64t43 179q0 98 -55 170zM520 578l18 106h109l-20 -106h-107zM288 578l19 106h108l-19 -106h-108z" />
    <glyph glyph-name="Ygrave" unicode="&#x1ef2;" horiz-adv-x="614" 
d="M195 0l48 266l-158 411l3 13h117l63 -171q33 -91 45 -150h10q69 114 94 149l124 172h128l-3 -13l-303 -411l-47 -266h-121zM344 740l-82 130l2 10h121l54 -130l-2 -10h-93z" />
    <glyph glyph-name="ygrave" unicode="&#x1ef3;" horiz-adv-x="540" 
d="M191 -1l-87 385q-5 25 -29 25q-17 0 -39 -11l15 88q36 14 73 14q38 0 55 -16.5t24 -53.5l44 -225q10 -48 12 -115h10q27 85 41 118l125 282h119l-2 -13l-270 -538q-40 -80 -84 -114.5t-117 -34.5q-51 0 -105 12l22 86q36 -11 79 -11q64 0 94 73zM303 560l-82 130l2 10
h121l54 -130l-2 -10h-93z" />
    <glyph glyph-name="endash" unicode="&#x2013;" horiz-adv-x="472" 
d="M45 229l16 90h359l-16 -90h-359z" />
    <glyph glyph-name="emdash" unicode="&#x2014;" horiz-adv-x="675" 
d="M44 228l16 91h564l-16 -91h-564z" />
    <glyph glyph-name="quoteleft" unicode="&#x2018;" horiz-adv-x="244" 
d="M227 528l-23 -136h-130l24 136q13 75 53 119.5t107 41.5l-15 -58q-34 0 -51.5 -26.5t-25.5 -76.5h61z" />
    <glyph glyph-name="quoteright" unicode="&#x2019;" horiz-adv-x="239" 
d="M105 554l24 136h130l-23 -136q-14 -75 -54 -119.5t-107 -41.5l16 57q33 0 50 26.5t25 77.5h-61z" />
    <glyph glyph-name="quotesinglbase" unicode="&#x201a;" horiz-adv-x="262" 
d="M17 -1l23 136h131l-24 -136q-14 -74 -54 -119t-106 -42l15 58q59 0 76 103h-61z" />
    <glyph glyph-name="quotedblleft" unicode="&#x201c;" horiz-adv-x="441" 
d="M424 528l-23 -136h-130l23 136q14 75 54 119.5t107 41.5l-16 -58q-59 0 -76 -103h61zM227 528l-23 -136h-130l24 136q13 75 53 119.5t107 41.5l-15 -58q-34 0 -51.5 -26.5t-25.5 -76.5h61z" />
    <glyph glyph-name="quotedblright" unicode="&#x201d;" horiz-adv-x="436" 
d="M105 554l24 136h130l-23 -136q-14 -75 -54 -119.5t-107 -41.5l16 57q33 0 50 26.5t25 77.5h-61zM303 554l23 136h130l-24 -136q-13 -74 -53 -119t-107 -42l15 57q34 0 51 26.5t25 77.5h-60z" />
    <glyph glyph-name="quotedblbase" unicode="&#x201e;" horiz-adv-x="460" 
d="M17 0l24 136h130l-24 -136q-13 -74 -53 -119t-106 -42l14 57q34 0 51 26.5t26 77.5h-62zM214 0l24 136h130l-24 -136q-13 -74 -53 -119t-107 -42l16 57q33 0 50 26.5t26 77.5h-62z" />
    <glyph glyph-name="dagger" unicode="&#x2020;" horiz-adv-x="467" 
d="M25 246l17 98l158 -13l49 359h104l-77 -359l169 13l-18 -98l-164 13l-67 -459h-104l95 459z" />
    <glyph glyph-name="daggerdbl" unicode="&#x2021;" horiz-adv-x="500" 
d="M-6 -12l17 98l163 -13l61 344l-168 -13l17 98l164 -12l21 200h105l-51 -200l171 12l-18 -98l-164 13l-61 -344l169 13l-17 -98l-166 12l-20 -200h-105l50 200z" />
    <glyph glyph-name="bullet" unicode="&#x2022;" horiz-adv-x="351" 
d="M180 205q-55 0 -90.5 34t-35.5 87q0 52 35.5 85.5t90.5 33.5t90.5 -33.5t35.5 -85.5q0 -53 -35.5 -87t-90.5 -34z" />
    <glyph glyph-name="ellipsis" unicode="&#x2026;" horiz-adv-x="768" 
d="M274 0l22 128h130l-23 -128h-129zM553 0l23 128h129l-23 -128h-129zM-2 0l22 128h131l-23 -128h-130z" />
    <glyph glyph-name="perthousand" unicode="&#x2030;" horiz-adv-x="1012" 
d="M796 -10q-58 0 -90.5 34.5t-32.5 85.5q0 71 45.5 122.5t111.5 51.5q58 0 90.5 -34.5t32.5 -87.5q0 -70 -46 -121t-111 -51zM800 65q33 0 54.5 25t21.5 62q0 25 -13.5 41t-36.5 16q-33 0 -54.5 -26t-21.5 -63q0 -25 13 -40t37 -15zM98 0l2 10l503 680h85l-2 -10l-503 -680
h-85zM498 -10q-57 0 -89.5 34.5t-32.5 85.5q0 71 45.5 122.5t111.5 51.5q58 0 90.5 -34.5t32.5 -87.5q0 -70 -46 -121t-112 -51zM503 65q33 0 54.5 24.5t21.5 61.5q0 26 -13.5 42t-36.5 16q-34 0 -55 -26t-21 -63q0 -24 13 -39.5t37 -15.5zM219 359q-69 0 -106 39.5
t-37 99.5q0 84 50.5 143t129.5 59q70 0 108.5 -40t38.5 -101q0 -83 -52.5 -141.5t-131.5 -58.5zM225 447q38 0 62.5 28t24.5 72q0 30 -15.5 48.5t-43.5 18.5q-39 0 -63 -30t-24 -73q0 -29 15 -46.5t44 -17.5z" />
    <glyph glyph-name="guilsinglleft" unicode="&#x2039;" horiz-adv-x="318" 
d="M180 452h116l-170 -179l-2 -10l110 -167h-104l-103 157l8 44z" />
    <glyph glyph-name="guilsinglright" unicode="&#x203a;" horiz-adv-x="318" 
d="M81 452h102l103 -155l-7 -44l-145 -157h-117l172 181l1 10z" />
    <glyph glyph-name="fraction" unicode="&#x2044;" horiz-adv-x="133" 
d="M-221 0l2 10l504 680h88l-2 -10l-503 -680h-89z" />
    <glyph glyph-name="zerosuperior" unicode="&#x2070;" horiz-adv-x="397" 
d="M227 394q-70 0 -105.5 40t-35.5 108q0 107 52 175t138 68q70 0 105.5 -40t35.5 -109q0 -106 -52.5 -174t-137.5 -68zM230 464q50 0 74 48.5t24 121.5q0 81 -54 81q-52 0 -75.5 -49.5t-23.5 -121.5q0 -80 55 -80z" />
    <glyph glyph-name="foursuperior" unicode="&#x2074;" horiz-adv-x="375" 
d="M54 478l9 56l214 246h104l-42 -237h54l-12 -65h-53l-14 -78h-88l13 78h-185zM150 542h103l34 159h-5l-132 -156v-3z" />
    <glyph glyph-name="fivesuperior" unicode="&#x2075;" horiz-adv-x="365" 
d="M76 523l83 2q-2 -12 -2 -18q0 -20 13 -34t41 -14q34 0 55.5 25t21.5 62q0 54 -56 54q-38 0 -61 -29h-78l56 209h238l-11 -65h-167l-22 -85h5q30 22 74 22q56 0 85 -26t29 -71q0 -72 -50.5 -116.5t-120.5 -44.5q-71 0 -104.5 29t-33.5 72q0 15 5 28z" />
    <glyph glyph-name="sixsuperior" unicode="&#x2076;" horiz-adv-x="387" 
d="M231 394q-73 0 -109.5 39.5t-36.5 108.5q0 107 53 175t142 68q72 0 101 -28.5t29 -63.5q0 -13 -4 -27l-87 -2q2 10 2 17q0 18 -11.5 30t-35.5 12q-44 0 -68.5 -37.5t-25.5 -86.5h3q43 43 105 43q52 0 80 -26t28 -68q0 -69 -47.5 -111.5t-117.5 -42.5zM181 511
q0 -24 14 -38t38 -14q31 0 52 21.5t21 54.5q0 47 -52 47q-31 0 -52 -19.5t-21 -51.5z" />
    <glyph glyph-name="sevensuperior" unicode="&#x2077;" horiz-adv-x="341" 
d="M96 652l22 128h291l-10 -53q-2 -7 -106.5 -149t-119.5 -178h-97l1 9q13 34 114 165.5t103 136.5h-121l-10 -59h-67z" />
    <glyph glyph-name="eightsuperior" unicode="&#x2078;" horiz-adv-x="389" 
d="M254 627q32 0 50 16t18 40q0 39 -51 39q-32 0 -50.5 -14.5t-18.5 -40.5q0 -17 13.5 -28.5t38.5 -11.5zM224 459q35 0 57 16.5t22 44.5q0 46 -60 46q-38 0 -59 -17.5t-21 -45.5q0 -20 16.5 -32t44.5 -12zM221 394q-69 0 -109.5 25.5t-40.5 69.5q0 47 30.5 76t62.5 35l1 3
q-48 11 -48 64q0 56 43.5 87t111.5 31q67 0 103 -22t36 -64q0 -44 -24.5 -69t-53.5 -31v-3q23 -5 41.5 -24t18.5 -52q0 -58 -49.5 -92t-122.5 -34z" />
    <glyph glyph-name="ninesuperior" unicode="&#x2079;" horiz-adv-x="387" 
d="M263 785q72 0 108.5 -39.5t36.5 -107.5q0 -108 -51.5 -176t-140.5 -68q-74 0 -104 29t-30 64q0 17 5 27l87 2q-2 -10 -2 -18q0 -41 47 -41q44 0 68.5 38t25.5 89h-3q-47 -47 -99 -47q-55 0 -84.5 27t-29.5 73q0 69 46.5 108.5t119.5 39.5zM312 669q0 23 -14.5 37
t-38.5 14q-33 0 -53 -20t-20 -55q0 -47 52 -47q32 0 53 19.5t21 51.5z" />
    <glyph glyph-name="zeroinferior" unicode="&#x2080;" horiz-adv-x="397" 
d="M127 -171q-70 0 -105.5 40t-35.5 108q0 107 52 175t138 68q70 0 105.5 -40t35.5 -109q0 -106 -52.5 -174t-137.5 -68zM130 -101q50 0 74 48.5t24 121.5q0 81 -54 81q-52 0 -75.5 -49.5t-23.5 -121.5q0 -80 55 -80z" />
    <glyph glyph-name="oneinferior" unicode="&#x2081;" horiz-adv-x="245" 
d="M13 -165l44 250h-80l12 64q52 0 76 14.5t31 51.5h70l-67 -380h-86z" />
    <glyph glyph-name="twoinferior" unicode="&#x2082;" horiz-adv-x="354" 
d="M83 -98l1 -3q28 5 72 5h90l-12 -69h-275l10 57l178 135q48 36 48 81q0 20 -12 33.5t-35 13.5q-63 0 -63 -87l-81 -4q0 70 37 113t114 43q65 0 97.5 -29.5t32.5 -77.5q0 -74 -88 -135l-69 -47q-11 -8 -26 -17t-19 -12z" />
    <glyph glyph-name="threeinferior" unicode="&#x2083;" horiz-adv-x="371" 
d="M-25 -29l85 2q-3 -11 -3 -22q0 -23 13.5 -39t42.5 -16q32 0 52.5 18t20.5 46q0 41 -54 41h-33l10 62h34q31 0 47 14t16 38q0 39 -49 39q-65 0 -70 -65l-78 1q0 58 43.5 94t108.5 36q63 0 98.5 -24t35.5 -69q0 -41 -26.5 -65t-51.5 -27l-1 -5q22 -3 40.5 -21t18.5 -50
q0 -59 -47.5 -94.5t-116.5 -35.5q-42 0 -71.5 11.5t-43.5 29.5t-19.5 35t-5.5 35q0 19 4 31z" />
    <glyph glyph-name="fourinferior" unicode="&#x2084;" horiz-adv-x="375" 
d="M-45 -87l9 56l214 246h104l-42 -237h54l-12 -65h-53l-14 -78h-88l13 78h-185zM51 -23h103l34 159h-5l-132 -156v-3z" />
    <glyph glyph-name="fiveinferior" unicode="&#x2085;" horiz-adv-x="365" 
d="M-24 -42l83 2q-2 -12 -2 -18q0 -20 13 -34t41 -14q34 0 55.5 25t21.5 62q0 54 -56 54q-38 0 -61 -29h-78l56 209h238l-11 -65h-167l-22 -85h5q30 22 74 22q56 0 85 -26t29 -71q0 -72 -50.5 -116.5t-120.5 -44.5q-71 0 -104.5 29t-33.5 72q0 15 5 28z" />
    <glyph glyph-name="sixinferior" unicode="&#x2086;" horiz-adv-x="387" 
d="M132 -171q-73 0 -109.5 39.5t-36.5 108.5q0 107 53 175t142 68q72 0 101 -28.5t29 -63.5q0 -13 -4 -27l-87 -2q2 10 2 17q0 18 -11.5 30t-35.5 12q-44 0 -68.5 -37.5t-25.5 -86.5h3q43 43 105 43q52 0 80 -26t28 -68q0 -69 -47.5 -111.5t-117.5 -42.5zM82 -54
q0 -24 14 -38t38 -14q31 0 52 21.5t21 54.5q0 47 -52 47q-31 0 -52 -19.5t-21 -51.5z" />
    <glyph glyph-name="seveninferior" unicode="&#x2087;" horiz-adv-x="342" 
d="M-3 87l22 128h291l-10 -53q-2 -7 -106.5 -149t-119.5 -178h-97l1 9q13 34 114 165.5t103 136.5h-121l-10 -59h-67z" />
    <glyph glyph-name="eightinferior" unicode="&#x2088;" horiz-adv-x="389" 
d="M155 62q32 0 50 16t18 40q0 39 -51 39q-32 0 -50.5 -14.5t-18.5 -40.5q0 -17 13.5 -28.5t38.5 -11.5zM125 -106q35 0 57 16.5t22 44.5q0 46 -60 46q-38 0 -59 -17.5t-21 -45.5q0 -20 16.5 -32t44.5 -12zM122 -171q-69 0 -109.5 25.5t-40.5 69.5q0 47 30.5 76t62.5 35l1 3
q-48 11 -48 64q0 56 43.5 87t111.5 31q67 0 103 -22t36 -64q0 -44 -24.5 -69t-53.5 -31v-3q23 -5 41.5 -24t18.5 -52q0 -58 -49.5 -92t-122.5 -34z" />
    <glyph glyph-name="nineinferior" unicode="&#x2089;" horiz-adv-x="388" 
d="M164 220q72 0 108.5 -39.5t36.5 -107.5q0 -108 -51.5 -176t-140.5 -68q-74 0 -104 29t-30 64q0 17 5 27l87 2q-2 -10 -2 -18q0 -41 47 -41q44 0 68.5 38t25.5 89h-3q-47 -47 -99 -47q-55 0 -84.5 27t-29.5 73q0 69 46.5 108.5t119.5 39.5zM213 104q0 23 -14.5 37
t-38.5 14q-34 0 -53.5 -19.5t-19.5 -55.5q0 -47 52 -47q32 0 53 19.5t21 51.5z" />
    <glyph glyph-name="Euro" unicode="&#x20ac;" horiz-adv-x="671" 
d="M53 379l38 66h63q38 120 124.5 187.5t209.5 67.5q140 0 207 -74l-63 -98q-23 34 -62 53t-83 19q-147 0 -202 -155h301l-42 -66h-277q-4 -22 -8 -70h245l-42 -67h-203q11 -151 135 -151q79 0 171 77l-6 -120q-79 -58 -182 -58q-118 0 -180.5 65.5t-67.5 186.5h-101l39 67
h63q3 35 9 70h-86z" />
    <glyph glyph-name="afii61289" unicode="&#x2113;" horiz-adv-x="436" 
d="M369 38q-62 -48 -135 -48q-58 0 -90.5 33t-32.5 99v101l-63 -63l-33 49l96 91v250q0 91 36 135.5t101 44.5q59 0 90 -35t31 -94q0 -149 -171 -320v-139q0 -44 13.5 -58.5t40.5 -14.5q47 0 93 48zM309 601q0 32 -16.5 48.5t-38.5 16.5q-56 0 -56 -88v-217q55 62 83 117.5
t28 122.5z" />
    <glyph glyph-name="uni2117" unicode="&#x2117;" horiz-adv-x="804" 
d="M274 137v413h153q90 0 135.5 -40.5t45.5 -110.5q0 -67 -46 -107t-135 -40h-58v-115h-95zM369 320h50q53 0 74.5 20t21.5 58q0 37 -21.5 56.5t-74.5 19.5h-50v-154zM55 345q0 155 101 255t257 100q155 0 255.5 -100.5t100.5 -254.5t-100.5 -254.5t-255.5 -100.5
q-156 0 -257 100t-101 255zM121 345q0 -130 81 -213.5t211 -83.5q129 0 209.5 83.5t80.5 213.5t-80.5 213.5t-209.5 83.5q-130 0 -211 -83.5t-81 -213.5z" />
    <glyph glyph-name="trademark" unicode="&#x2122;" horiz-adv-x="696" 
d="M335 389l53 301h85q17 -175 25 -250h4l113 250h91l-53 -301h-61l41 218h-4l-97 -218h-75l-23 218h-4l-34 -218h-61zM141 389l45 249h-82l9 52h225l-10 -52h-81l-44 -249h-62z" />
    <glyph glyph-name="Omega" unicode="&#x2126;" horiz-adv-x="714" 
d="M412 600q-108 0 -165.5 -79.5t-57.5 -205.5q0 -76 21 -125t61 -89l-18 -101h-252l18 101h129q-85 89 -85 218q0 167 96.5 274t255.5 107q132 0 201 -69t69 -184q0 -222 -174 -346h118l-17 -101h-252l18 101q76 49 128 131t52 198q0 80 -38 125t-108 45z" />
    <glyph glyph-name="estimated" unicode="&#x212e;" horiz-adv-x="760" 
d="M732 348h-527v-236q77 -77 189 -77q82 0 143 37.5t109 119.5l46 -28q-61 -94 -129 -135t-169 -41q-151 0 -244 103t-93 257q0 155 93 258t244 103q150 0 243.5 -100.5t94.5 -260.5zM205 396h380v189q-83 78 -192 78q-110 0 -188 -78v-189z" />
    <glyph glyph-name="onethird" unicode="&#x2153;" horiz-adv-x="800" 
d="M47 0l2 10l504 680h88l-2 -10l-503 -680h-89zM118 310l44 250h-80l12 64q52 0 76 14.5t31 51.5h70l-67 -380h-86zM427 137l85 2q-3 -10 -3 -22q0 -23 13.5 -39t42.5 -16q32 0 52.5 18t20.5 46q0 41 -54 41h-33l10 62h34q31 0 47 14t16 38q0 39 -49 39q-65 0 -70 -65
l-78 1q0 58 43.5 94t108.5 36q63 0 98.5 -24t35.5 -69q0 -41 -26.5 -65t-51.5 -27l-1 -5q22 -3 40.5 -21t18.5 -50q0 -59 -47.5 -94.5t-116.5 -35.5q-42 0 -71.5 11.5t-43.5 29.5t-19.5 35t-5.5 35q0 19 4 31z" />
    <glyph glyph-name="twothirds" unicode="&#x2154;" horiz-adv-x="892" 
d="M160 0l2 10l504 680h88l-2 -10l-503 -680h-89zM176 377l1 -3q28 5 72 5h90l-12 -69h-275l10 57l178 135q48 36 48 81q0 20 -12 33.5t-35 13.5q-63 0 -63 -87l-81 -4q0 70 37 113t114 43q65 0 97.5 -29.5t32.5 -77.5q0 -74 -88 -135l-69 -47q-11 -8 -26 -17t-19 -12z
M522 137l85 2q-3 -10 -3 -22q0 -23 13.5 -39t42.5 -16q32 0 52.5 18t20.5 46q0 41 -54 41h-33l10 62h34q31 0 47 14t16 38q0 39 -49 39q-65 0 -70 -65l-78 1q0 58 43.5 94t108.5 36q63 0 98.5 -24t35.5 -69q0 -41 -26.5 -65t-51.5 -27l-1 -5q22 -3 40.5 -21t18.5 -50
q0 -59 -47.5 -94.5t-116.5 -35.5q-42 0 -71.5 11.5t-43.5 29.5t-19.5 35t-5.5 35q0 19 4 31z" />
    <glyph glyph-name="oneeighth" unicode="&#x215b;" horiz-adv-x="808" 
d="M47 0l2 10l504 680h88l-2 -10l-503 -680h-89zM118 310l44 250h-80l12 64q52 0 76 14.5t31 51.5h70l-67 -380h-86zM597 228q32 0 50 16t18 40q0 39 -51 39q-32 0 -50.5 -14.5t-18.5 -40.5q0 -17 13.5 -28.5t38.5 -11.5zM567 60q35 0 57 16.5t22 44.5q0 46 -60 46
q-38 0 -59 -17.5t-21 -45.5q0 -20 16.5 -32t44.5 -12zM564 -5q-69 0 -109.5 25.5t-40.5 69.5q0 47 30.5 76t62.5 35l1 3q-48 11 -48 64q0 56 43.5 87t111.5 31q67 0 103 -22t36 -64q0 -44 -24.5 -69t-53.5 -31v-3q23 -5 41.5 -24t18.5 -52q0 -58 -49.5 -92t-122.5 -34z" />
    <glyph glyph-name="threeeighths" unicode="&#x215c;" horiz-adv-x="907" 
d="M150 0l2 10l504 680h88l-2 -10l-503 -680h-89zM699 228q32 0 50 16t18 40q0 39 -51 39q-32 0 -50.5 -14.5t-18.5 -40.5q0 -17 13.5 -28.5t38.5 -11.5zM669 60q35 0 57 16.5t22 44.5q0 46 -60 46q-38 0 -59 -17.5t-21 -45.5q0 -20 16.5 -32t44.5 -12zM666 -5
q-69 0 -109.5 25.5t-40.5 69.5q0 47 30.5 76t62.5 35l1 3q-48 11 -48 64q0 56 43.5 87t111.5 31q67 0 103 -22t36 -64q0 -44 -24.5 -69t-53.5 -31v-3q23 -5 41.5 -24t18.5 -52q0 -58 -49.5 -92t-122.5 -34zM67 446l85 2q-3 -11 -3 -22q0 -23 13.5 -39t42.5 -16q32 0 52.5 18
t20.5 46q0 41 -54 41h-33l10 62h34q31 0 47 14t16 38q0 39 -49 39q-65 0 -70 -65l-78 1q0 58 43.5 94t108.5 36q63 0 98.5 -24t35.5 -69q0 -41 -26.5 -65t-51.5 -27l-1 -5q22 -3 40.5 -21t18.5 -50q0 -59 -47.5 -94.5t-116.5 -35.5q-42 0 -71.5 11.5t-43.5 29.5t-19.5 35
t-5.5 35q0 19 4 31z" />
    <glyph glyph-name="fiveeighths" unicode="&#x215d;" horiz-adv-x="900" 
d="M142 0l2 10l504 680h88l-2 -10l-503 -680h-89zM65 433l83 2q-2 -12 -2 -18q0 -20 13 -34t41 -14q34 0 55.5 25t21.5 62q0 54 -56 54q-38 0 -61 -29h-78l56 209h238l-11 -65h-167l-22 -85h5q30 22 74 22q56 0 85 -26t29 -71q0 -72 -50.5 -116.5t-120.5 -44.5
q-71 0 -104.5 29t-33.5 72q0 15 5 28zM692 228q32 0 50 16t18 40q0 39 -51 39q-32 0 -50.5 -14.5t-18.5 -40.5q0 -17 13.5 -28.5t38.5 -11.5zM662 60q35 0 57 16.5t22 44.5q0 46 -60 46q-38 0 -59 -17.5t-21 -45.5q0 -20 16.5 -32t44.5 -12zM659 -5q-69 0 -109.5 25.5
t-40.5 69.5q0 47 30.5 76t62.5 35l1 3q-48 11 -48 64q0 56 43.5 87t111.5 31q67 0 103 -22t36 -64q0 -44 -24.5 -69t-53.5 -31v-3q23 -5 41.5 -24t18.5 -52q0 -58 -49.5 -92t-122.5 -34z" />
    <glyph glyph-name="seveneighths" unicode="&#x215e;" horiz-adv-x="812" 
d="M54 0l2 10l504 680h88l-2 -10l-503 -680h-89zM604 228q32 0 50 16t18 40q0 39 -51 39q-32 0 -50.5 -14.5t-18.5 -40.5q0 -17 13.5 -28.5t38.5 -11.5zM574 60q35 0 57 16.5t22 44.5q0 46 -60 46q-38 0 -59 -17.5t-21 -45.5q0 -20 16.5 -32t44.5 -12zM571 -5
q-69 0 -109.5 25.5t-40.5 69.5q0 47 30.5 76t62.5 35l1 3q-48 11 -48 64q0 56 43.5 87t111.5 31q67 0 103 -22t36 -64q0 -44 -24.5 -69t-53.5 -31v-3q23 -5 41.5 -24t18.5 -52q0 -58 -49.5 -92t-122.5 -34zM89 562l22 128h291l-10 -53q-2 -7 -106.5 -149t-119.5 -178h-97
l1 9q13 34 114 165.5t103 136.5h-121l-10 -59h-67z" />
    <glyph glyph-name="arrowleft" unicode="&#x2190;" 
d="M598 367v-84h-400q45 -45 69 -71l105 -112h-113l-187 203v44l187 201h112l-104 -111q-34 -39 -69 -70h400z" />
    <glyph glyph-name="arrowup" unicode="&#x2191;" 
d="M376 61h-84v399q-33 -37 -70 -68l-111 -105v113l201 187h44l203 -187v-114l-112 105q-43 40 -71 69v-399z" />
    <glyph glyph-name="arrowright" unicode="&#x2192;" 
d="M72 283v84h399q-37 33 -68 70l-105 111h113l187 -201v-44l-187 -203h-114l105 112q40 43 69 71h-399z" />
    <glyph glyph-name="arrowdown" unicode="&#x2193;" 
d="M292 587h84v-399l71 68l112 105v-113l-203 -187h-44l-201 187v112l111 -104q28 -24 70 -68v399z" />
    <glyph glyph-name="uni2196" unicode="&#x2196;" 
d="M551 168l-59 -59l-286 286q2 -56 2 -103v-154l-81 81v277l38 31h274l80 -81h-153q-58 0 -100 3z" />
    <glyph glyph-name="uni2197" unicode="&#x2197;" 
d="M189 106l-59 59l286 286q-29 -2 -103 -2h-154l80 80h277l32 -37v-275l-81 -79v153q0 58 3 100z" />
    <glyph glyph-name="uni2198" unicode="&#x2198;" 
d="M127 468l59 58l286 -286q-2 58 -2 104v153l80 -80v-277l-37 -31h-275l-80 80h154q58 0 99 -3z" />
    <glyph glyph-name="uni2199" unicode="&#x2199;" 
d="M488 529l59 -59l-285 -286q54 2 102 2h154l-80 -81h-277l-31 38v274l80 80v-153q0 -72 -2 -100z" />
    <glyph glyph-name="partialdiff" unicode="&#x2202;" horiz-adv-x="616" 
d="M168 540l-17 98q85 62 188 62q112 0 177 -77.5t65 -201.5q0 -119 -36 -215t-112 -156t-181 -60q-107 0 -167 52t-60 144q0 110 67.5 182t178.5 72q74 0 119.5 -30t58.5 -65h5q8 24 8 78q0 86 -40.5 134.5t-102.5 48.5q-67 0 -151 -66zM407 243q0 47 -29.5 76.5
t-76.5 29.5q-72 0 -112 -44t-40 -114q0 -49 27.5 -76.5t77.5 -27.5q63 0 108 44t45 112z" />
    <glyph glyph-name="Delta" unicode="&#x2206;" horiz-adv-x="666" 
d="M-13 0l346 690h146l103 -690h-595zM163 101h287l-55 485h-6z" />
    <glyph glyph-name="product" unicode="&#x220f;" horiz-adv-x="828" 
d="M110 -200v920h595v-920h-122v819h-352v-819h-121z" />
    <glyph glyph-name="summation" unicode="&#x2211;" horiz-adv-x="778" 
d="M673 -200h-525v82l255 390l-244 365v83h503v-101h-360l232 -347l-242 -371h381v-101z" />
    <glyph glyph-name="minus" unicode="&#x2212;" 
d="M533 229h-419l15 91h420z" />
    <glyph glyph-name="uni2215" unicode="&#x2215;" horiz-adv-x="133" 
d="M-221 0l2 10l504 680h88l-2 -10l-503 -680h-89z" />
    <glyph glyph-name="uni2219" unicode="&#x2219;" horiz-adv-x="263" 
d="M138 256q-33 0 -54.5 20.5t-21.5 51.5q0 32 21 52.5t55 20.5q32 0 53 -20.5t21 -52.5q0 -31 -21 -51.5t-53 -20.5z" />
    <glyph glyph-name="radical" unicode="&#x221a;" horiz-adv-x="581" 
d="M638 720l-356 -920h-109l-93 322l-78 -32l-21 90l165 68l81 -319l296 791h115z" />
    <glyph glyph-name="infinity" unicode="&#x221e;" horiz-adv-x="753" 
d="M696 266q0 -70 -41 -116.5t-106 -46.5q-84 0 -178 100q-3 -3 -15.5 -14.5l-16.5 -15l-15.5 -13.5t-17 -13.5t-16 -11t-17.5 -11t-18 -8.5t-20 -7t-20 -3.5t-22 -1.5q-64 0 -105.5 45t-41.5 114q0 67 40.5 113.5t104.5 46.5q51 0 91.5 -27t88.5 -77l15 15l16 16l15 14.5
t16.5 14.5t16 12.5t17.5 12l18 9t20 7.5t20.5 4t22.5 2q64 0 106 -46.5t42 -113.5zM602 263q0 36 -17 57t-46 21q-12 0 -23.5 -4.5t-24.5 -16l-19.5 -17.5t-21.5 -22.5t-17 -18.5q2 -2 9 -10t9.5 -10.5l9.5 -9.5t10.5 -10l10 -9t11 -8.5t11 -6.5t12 -5.5t12 -3t13.5 -1.5
q28 0 44.5 20t16.5 55zM310 262q-1 1 -8 9t-9.5 10t-10 10t-11 11t-10.5 9.5t-11.5 9.5l-11.5 7.5t-12.5 6.5t-11.5 3.5t-12 1.5q-28 0 -45.5 -21.5t-17.5 -55.5q0 -36 17.5 -55.5t47.5 -19.5q44 0 106 74z" />
    <glyph glyph-name="integral" unicode="&#x222b;" horiz-adv-x="464" 
d="M318 563l-103 -586q-32 -187 -195 -187q-128 0 -128 90q0 35 14 66l79 -5q-5 -17 -5 -26q0 -38 41 -38q60 0 73 80l104 586q32 187 194 187q77 0 102.5 -27t25.5 -68q0 -13 -13 -61l-79 5q6 21 6 26q0 38 -42 38q-60 0 -74 -80z" />
    <glyph glyph-name="approxequal" unicode="&#x2248;" 
d="M210 340h-84q18 55 55.5 92t85.5 37q35 0 97 -30q4 -2 13 -7l12.5 -7t11 -5.5t11 -5t9.5 -3.5t11 -2.5t10 -0.5q18 0 35 13.5t24 36.5h83q-12 -53 -51.5 -96t-91.5 -43q-39 0 -100 32q-52 27 -75 27q-42 0 -56 -38zM171 120h-83q18 55 54.5 91.5t84.5 36.5q37 0 97 -30
q4 -2 15.5 -8.5t15 -8t12 -5.5t13 -5l11.5 -2.5t13 -1.5q18 0 34.5 13.5t23.5 36.5h83q-13 -54 -51.5 -96.5t-90.5 -42.5q-40 0 -101 32q-52 27 -76 27q-42 0 -55 -37z" />
    <glyph glyph-name="notequal" unicode="&#x2260;" 
d="M216 0h-72l60 110h-110l16 90h143l82 151h-199l17 91h231l57 104h71l-57 -104h117l-16 -91h-150l-82 -151h206l-17 -90h-238z" />
    <glyph glyph-name="lessequal" unicode="&#x2264;" 
d="M124 311l18 102l452 184l-18 -108l-346 -127l-2 -10l302 -126l-18 -98zM490 10h-419l15 90h420z" />
    <glyph glyph-name="greaterequal" unicode="&#x2265;" 
d="M573 413l-17 -102l-453 -183l18 107l346 126l2 10l-301 127l18 99zM502 10h-420l17 90h419z" />
    <glyph glyph-name="lozenge" unicode="&#x25ca;" horiz-adv-x="563" 
d="M544 361l-262 -361h-106l-133 361l263 360h103zM437 365l-92 263l-196 -273l93 -261z" />
    <glyph glyph-name="uniF8FF" unicode="&#xf8ff;" horiz-adv-x="612" 
d="M50 720h512v-720h-512v720zM262 283h48v18q0 14 22 33.5t48 38t48 48.5t22 62q0 51 -36.5 83.5t-101.5 32.5q-39 0 -67 -14t-41.5 -36t-19 -41.5t-5.5 -38.5q0 -10 1 -15l47 -3q-1 6 -1 15q0 38 21.5 64t64.5 26q41 0 64 -20.5t23 -52.5q0 -25 -21.5 -50t-47 -42.5
t-47 -42t-21.5 -47.5v-18zM255 194v-71h68v71h-68z" />
    <glyph glyph-name="fi" unicode="&#xfb01;" horiz-adv-x="660" 
d="M240 413l-85 -478q-14 -78 -54.5 -111.5t-108.5 -33.5q-52 0 -94 21l20 84q27 -19 59 -19q21 0 39 16.5t25 53.5l83 467h-82l14 77h81l14 73q32 167 186 167q60 0 105 -21l-30 -87q-34 21 -71 21q-61 0 -75 -80l-13 -73h137l-14 -77h-136zM505 574l19 113h117l-19 -113
h-117zM607 490l-64 -363q-5 -26 -1 -37.5t19 -11.5q19 0 39 11l-13 -85q-40 -14 -79 -14q-40 0 -63.5 22.5t-23.5 66.5q0 13 5 43l63 368h118z" />
    <glyph glyph-name="fl" unicode="&#xfb02;" horiz-adv-x="642" 
d="M240 413l-85 -478q-14 -78 -54.5 -111.5t-108.5 -33.5q-52 0 -94 21l20 84q27 -19 59 -19q21 0 39 16.5t25 53.5l83 467h-82l14 77h81l14 73q32 167 186 167q60 0 105 -21l-30 -87q-34 21 -71 21q-61 0 -75 -80l-13 -73h137l-14 -77h-136zM622 720l-103 -580
q-3 -18 -3 -30q0 -18 8 -25.5t26 -7.5q23 0 50 12l-13 -85q-42 -14 -86 -14q-103 0 -103 101q0 26 5 51l103 578h116z" />
    <glyph glyph-name="CR" horiz-adv-x="0" 
 />
    <glyph glyph-name="grave.cap" horiz-adv-x="494" 
d="M412 730l-142 100l2 10h145l106 -100l-1 -10h-110z" />
    <glyph glyph-name="acute.cap" horiz-adv-x="494" 
d="M220 730l2 10l141 100h161l-2 -10l-178 -100h-124z" />
    <glyph glyph-name="circumflex.cap" horiz-adv-x="506" 
d="M238 727l1 10l116 130h140l71 -130l-2 -10h-90l-51 86h-5l-82 -86h-98z" />
    <glyph glyph-name="caron.cap" horiz-adv-x="506" 
d="M588 867l-1 -10l-116 -130h-140l-71 130l2 10h91l50 -88h4l83 88h98z" />
    <glyph glyph-name="caron.alt" horiz-adv-x="478" 
d="M292 690h136l-21 -116q-23 -137 -163 -130l14 55q75 -3 87 72h-74z" />
    <glyph glyph-name="tilde.cap" horiz-adv-x="500" 
d="M197 730q22 140 120 140q39 0 64 -26l36 -31q13 -13 25 -13q27 0 39 59h85q-23 -141 -126 -141q-37 0 -65 25l-30 28q-17 15 -25 15q-28 0 -39 -56h-84z" />
    <glyph glyph-name="dieresis.cap" horiz-adv-x="507" 
d="M448 749l18 106h109l-20 -106h-107zM216 749l19 106h108l-19 -106h-108z" />
    <glyph glyph-name="macron.cap" horiz-adv-x="500" 
d="M234 754l15 86h299l-16 -86h-298z" />
    <glyph glyph-name="breve.cap" horiz-adv-x="503" 
d="M379 712q-69 0 -106 40t-27 111h73q-5 -35 12.5 -55.5t53.5 -20.5t61 20.5t32 55.5h81q-15 -71 -64 -111t-116 -40z" />
    <glyph glyph-name="ring.cap" horiz-adv-x="494" 
d="M376 720q-44 0 -72 27t-28 68q0 57 39 95.5t95 38.5q44 0 72.5 -27.5t28.5 -68.5q0 -56 -39.5 -94.5t-95.5 -38.5zM382 776q31 0 49 19.5t18 51.5q0 45 -45 45q-31 0 -50 -19t-19 -51q0 -21 12.5 -33.5t34.5 -12.5z" />
    <glyph glyph-name="hungarumlaut.cap" horiz-adv-x="518" 
d="M66 730l1 10l116 106h146l-2 -10l-162 -106h-99zM277 730l2 10l115 106h147l-2 -10l-162 -106h-100z" />
    <glyph glyph-name="dotaccent.cap" horiz-adv-x="474" 
d="M308 740l17 98h119l-17 -98h-119z" />
    <glyph glyph-name="cedilla.cap" horiz-adv-x="482" 
d="M195 -68l85 22q18 -36 18 -78q0 -60 -36.5 -95t-104.5 -35q-56 0 -82 24l22 74q31 -23 55 -23q27 0 40.5 16.5t13.5 43.5q0 23 -11 51z" />
    <glyph glyph-name="ogonek.cap" horiz-adv-x="482" 
d="M49 -149q0 40 24 70.5t84 59.5l126 62l25 -43l-109 -62q-41 -24 -41 -57q0 -28 31 -28q34 0 95 37l-14 -88q-52 -28 -117 -28q-48 0 -76 21t-28 56z" />
    <glyph glyph-name="commaaccent" horiz-adv-x="478" 
d="M161 -57h136l-21 -115q-23 -137 -163 -130l14 54q73 -1 86 72h-74z" />
    <glyph glyph-name="commaaccent.alt" horiz-adv-x="478" 
d="M161 -57h136l-21 -115q-23 -137 -163 -130l14 54q73 -1 86 72h-74z" />
    <glyph glyph-name="commaaccent.cap" horiz-adv-x="477" 
d="M410 601h-132l18 100q12 65 47.5 95t109.5 26l-13 -53q-41 1 -58 -13t-23 -51h69z" />
    <glyph glyph-name="exclam.sc" horiz-adv-x="278" 
d="M98 187l1 188l25 143h110l-25 -143l-65 -188h-46zM25 0l19 112h125l-20 -112h-124z" />
    <glyph glyph-name="numbersign.sc" horiz-adv-x="547" 
d="M48 0l51 131h-85l11 62h100l47 121h-85l11 62h99l56 142h68l-57 -142h97l56 142h68l-54 -142h89l-10 -62h-106l-46 -121h88l-11 -62h-103l-50 -131h-70l52 131h-96l-50 -131h-70zM194 193h95l46 121h-95z" />
    <glyph glyph-name="dollar.sc" horiz-adv-x="500" 
d="M26 171l107 2q-5 -18 -5 -38q0 -57 60 -65l26 152l-44 14q-101 32 -101 117q0 74 51.5 121.5t144.5 49.5l10 58h51l-11 -58q79 -5 112 -40t33 -77q0 -28 -8 -48l-101 -1q5 15 5 34q0 49 -51 56l-26 -148l51 -16q103 -31 103 -115q0 -75 -54 -123.5t-151 -52.5l-13 -71
h-50l12 71q-87 5 -123.5 43t-36.5 85q0 25 9 50zM325 148q0 20 -14 33t-48 26l-25 -139q87 9 87 80zM173 374q0 -41 46 -56l12 -4l23 136q-81 -7 -81 -76z" />
    <glyph glyph-name="percent.sc" horiz-adv-x="664" 
d="M83 0l1 8l408 510h75l-1 -8l-407 -510h-76zM179 261q-58 0 -90 31t-32 78q0 64 43.5 109.5t105.5 45.5q59 0 90 -31.5t31 -79.5q0 -61 -43.5 -107t-104.5 -46zM182 338q28 0 45 19t17 47q0 19 -11 32.5t-31 13.5q-29 0 -46 -20.5t-17 -48.5q0 -19 11 -31t32 -12zM449 -8
q-58 0 -90 31t-32 78q0 64 43.5 109.5t103.5 45.5t91.5 -31t31.5 -79q0 -63 -43.5 -108.5t-104.5 -45.5zM453 70q27 0 44 18t17 47q0 20 -11 33t-31 13q-29 0 -46 -20t-17 -48q0 -19 11 -31t33 -12z" />
    <glyph glyph-name="ampersand.sc" horiz-adv-x="570" 
d="M14 117q0 36 14.5 64t40 46t45.5 27.5t47 18.5l-21 28q-31 40 -31 83q0 63 51 102t130 39q75 0 116 -31t41 -84q0 -96 -158 -156l69 -87q55 44 100 96l66 -54q-26 -29 -106 -104l68 -88l-2 -17h-106l-36 53q-84 -61 -163 -61q-77 0 -121 33.5t-44 91.5zM246 307
q98 38 98 87q0 21 -15.5 34.5t-42.5 13.5q-35 0 -56 -18.5t-21 -44.5q0 -28 20 -52zM123 139q0 -29 21.5 -46.5t51.5 -17.5q46 0 91 39l-84 110q-80 -31 -80 -85z" />
    <glyph glyph-name="section.sc" horiz-adv-x="512" 
d="M-2 7l108 2q-2 -10 -2 -23q0 -59 87 -59q103 0 103 57q0 15 -12.5 28.5t-34.5 20.5l-111 34q-51 16 -78 38t-27 61q0 44 26.5 77t73.5 48q-57 26 -57 82q0 74 63 113t149 39q56 0 96 -11.5t59 -31t26.5 -38t7.5 -38.5q0 -25 -6 -39l-108 -2q4 12 4 26q0 50 -81 50
q-92 0 -92 -60q0 -17 13.5 -30t34.5 -18l101 -28q54 -15 78.5 -39t24.5 -61q0 -91 -89 -125q56 -31 56 -85q0 -70 -60 -111.5t-166 -41.5q-58 0 -99 12.5t-60 33.5t-27 40.5t-8 40.5q0 19 7 38zM142 196q0 -20 9.5 -30t28.5 -17l95 -29q25 3 43.5 18t18.5 42
q0 20 -11.5 29.5t-33.5 16.5l-88 25q-31 -1 -46.5 -16.5t-15.5 -38.5z" />
    <glyph glyph-name="paragraph.sc" horiz-adv-x="527" 
d="M55 353q0 187 204 187h76l-121 -690h-78l67 382q-148 0 -148 121zM294 -150l122 690h76l-121 -690h-77z" />
    <glyph glyph-name="parenleft.sc" horiz-adv-x="285" 
d="M44 165q0 84 18 156.5t51 128t61.5 91t66.5 71.5l58 -27q-172 -179 -172 -428q0 -139 55 -236l-57 -27q-32 45 -56.5 116.5t-24.5 154.5z" />
    <glyph glyph-name="slash.sc" horiz-adv-x="340" 
d="M-13 0l270 518h80l-271 -518h-79z" />
    <glyph glyph-name="parenright.sc" horiz-adv-x="286" 
d="M229 347q0 -267 -198 -453l-58 27q33 36 58 70.5t53.5 88t44 122.5t15.5 147q0 71 -16 135t-38 101l58 27q81 -118 81 -265z" />
    <glyph glyph-name="bracketleft.sc" horiz-adv-x="293" 
d="M100 -48h102l-11 -57h-176l124 705h176l-10 -57h-101z" />
    <glyph glyph-name="backslash.sc" horiz-adv-x="322" 
d="M165 0l-81 518h69l83 -518h-71z" />
    <glyph glyph-name="bracketright.sc" horiz-adv-x="293" 
d="M-27 -48h103l104 591h-103l11 57h175l-124 -705h-175z" />
    <glyph glyph-name="braceleft.sc" horiz-adv-x="297" 
d="M44 -18q0 40 26.5 106.5t26.5 94.5q0 23 -16 31t-54 8l13 69q45 0 64 12.5t23 49.5q3 21 4 71.5t3 72.5q8 66 43 88.5t120 22.5l-12 -65q-35 0 -50.5 -11t-19.5 -40q-3 -20 -3.5 -70.5t-3.5 -73.5q-9 -70 -69 -91l-1 -6q43 -14 43 -63q0 -36 -26.5 -98.5t-26.5 -88.5
q0 -34 55 -34l-11 -65q-128 0 -128 80z" />
    <glyph glyph-name="bar.sc" horiz-adv-x="273" 
d="M92 -90v690h69v-690h-69z" />
    <glyph glyph-name="braceright.sc" horiz-adv-x="297" 
d="M151 16q-8 -66 -43.5 -90t-119.5 -24l12 65q35 0 51 11.5t20 40.5q2 21 3 71t4 75q9 76 70 93l1 6q-43 17 -43 62q0 33 25.5 96.5t25.5 86.5q0 34 -55 34l11 65q129 0 129 -78q0 -36 -26.5 -104.5t-26.5 -94.5q0 -23 16 -31.5t53 -8.5l-11 -69q-46 0 -64.5 -12.5
t-23.5 -49.5q-3 -21 -4 -70.5t-4 -73.5z" />
    <glyph glyph-name="zero.sc" horiz-adv-x="530" 
d="M222 -8q-90 0 -135.5 54t-45.5 146q0 146 68.5 239.5t187.5 93.5q89 0 135 -54.5t46 -146.5q0 -146 -68.5 -239t-187.5 -93zM228 82q50 0 82 37.5t43.5 88.5t11.5 114q0 114 -75 114q-70 0 -102.5 -70.5t-32.5 -171.5q0 -52 18.5 -82t54.5 -30z" />
    <glyph glyph-name="one.sc" horiz-adv-x="344" 
d="M82 0l61 346h-105l15 83q70 0 101 19.5t40 69.5h89l-91 -518h-110z" />
    <glyph glyph-name="two.sc" horiz-adv-x="472" 
d="M159 86l1 -5q30 7 97 7h123l-16 -88h-361l13 74l238 186q66 52 66 114q0 28 -16.5 47t-46.5 19q-41 0 -64 -26.5t-23 -70.5q0 -16 1 -24l-105 -7q-2 17 -1 33q1 30 12 59.5t33 57.5t62 45.5t92 17.5q85 0 127.5 -38.5t42.5 -99.5q0 -57 -29.5 -98.5t-87.5 -87.5l-93 -73
q-12 -10 -24 -17.5l-24 -14.5z" />
    <glyph glyph-name="three.sc" horiz-adv-x="495" 
d="M28 185l106 2q-4 -18 -4 -32q0 -31 18.5 -53t58.5 -22q44 0 72.5 25t28.5 65q0 59 -74 59h-45l14 81h44q88 0 88 75q0 54 -66 54q-49 0 -73 -26t-23 -64l-100 1q-1 68 50 121.5t153 53.5q82 0 127 -31.5t45 -93.5q0 -57 -33.5 -88.5t-71.5 -38.5l-1 -5q29 -6 54 -30
t25 -70q0 -79 -63.5 -127.5t-153.5 -48.5q-54 0 -92.5 15.5t-57 40t-26 47.5t-7.5 47q0 26 7 43z" />
    <glyph glyph-name="four.sc" horiz-adv-x="503" 
d="M1 110l12 70l288 338h131l-57 -325h72l-15 -83h-72l-19 -110h-112l20 110h-248zM125 193h142l25 141q7 40 19 83h-8q-15 -29 -52 -72l-126 -150v-2z" />
    <glyph glyph-name="five.sc" horiz-adv-x="486" 
d="M27 167l107 1q-3 -15 -3 -26q0 -28 17.5 -46.5t55.5 -18.5q48 0 77.5 34.5t29.5 87.5q0 36 -20.5 55.5t-56.5 19.5q-52 0 -84 -38h-100l76 282h313l-15 -84h-221l-32 -123h6q41 32 108 32t104 -36.5t37 -102.5q0 -93 -65.5 -152.5t-158.5 -59.5q-91 0 -136.5 39t-45.5 98
q0 24 7 38z" />
    <glyph glyph-name="six.sc" horiz-adv-x="516" 
d="M225 -8q-91 0 -137.5 53.5t-46.5 145.5q0 149 70 241.5t187 92.5q95 0 133.5 -38t38.5 -85q0 -22 -5 -37l-111 -2q3 13 3 24q0 25 -16 41t-49 16q-56 0 -90.5 -52t-40.5 -123h4q50 61 134 61q69 0 109.5 -37.5t40.5 -97.5q0 -94 -63 -148.5t-161 -54.5zM162 149
q0 -33 20 -52.5t52 -19.5q45 0 73.5 30t28.5 77q0 31 -18 50t-53 19q-43 0 -73 -29.5t-30 -74.5z" />
    <glyph glyph-name="seven.sc" horiz-adv-x="470" 
d="M58 347l32 171h382l-11 -67q-3 -8 -144 -203.5t-162 -247.5h-124l3 12q13 36 82 132l137 185t74 99h-169l-14 -81h-86z" />
    <glyph glyph-name="eight.sc" horiz-adv-x="517" 
d="M263 309q45 0 70 21.5t25 56.5q0 25 -20 40.5t-54 15.5q-43 0 -68 -20.5t-25 -56.5q0 -26 18.5 -41.5t53.5 -15.5zM221 75q49 0 79.5 24.5t30.5 65.5q0 30 -21 47.5t-61 17.5q-54 0 -82.5 -25t-28.5 -67q0 -29 22 -46t61 -17zM218 -8q-93 0 -145 35.5t-52 100.5
q0 59 41.5 98t81.5 46l1 6q-24 6 -43 27.5t-19 60.5q0 75 57 117t150 42q179 0 179 -123q0 -56 -33 -89.5t-69 -40.5l-1 -6q29 -4 53.5 -31t24.5 -71q0 -78 -65.5 -125t-160.5 -47z" />
    <glyph glyph-name="nine.sc" horiz-adv-x="515" 
d="M275 525q95 0 142 -53t47 -145q0 -147 -70 -241t-187 -94q-50 0 -86 12t-53 32t-24.5 39.5t-7.5 39.5q0 23 6 37l110 3q-4 -12 -4 -25q0 -25 15.5 -41t47.5 -16q59 0 95 55t39 122h-4q-17 -25 -54.5 -44t-84.5 -19q-67 0 -106.5 37t-39.5 99q0 90 62 146t157 56zM343 372
q0 32 -19 50t-52 18q-42 0 -72 -30.5t-30 -75.5q0 -31 19 -50t52 -19q43 0 72.5 30t29.5 77z" />
    <glyph glyph-name="question.sc" horiz-adv-x="449" 
d="M141 187q-2 8 -2 19q0 36 23 61t67 48q29 15 40 22t22.5 22t11.5 34q0 45 -55 45q-75 0 -77 -82l-111 1q0 77 53 122.5t140 45.5q82 0 126.5 -34t44.5 -89q0 -14 -2.5 -26.5t-5.5 -22t-11 -20t-12 -16.5t-15.5 -15t-15.5 -12.5t-18.5 -11l-17.5 -9t-19 -9t-17 -8.5
q-33 -16 -49 -28.5t-16 -27.5v-9h-84zM87 0l20 112h125l-19 -112h-126z" />
    <glyph glyph-name="a.sc" horiz-adv-x="542" 
d="M-29 0l270 518h141l87 -518h-114l-18 118h-185l-61 -118h-120zM187 201h144l-19 117q-11 70 -11 104h-6q-34 -81 -47 -106z" />
    <glyph glyph-name="b.sc" horiz-adv-x="534" 
d="M26 0l92 518h206q166 0 166 -111q0 -60 -33 -96.5t-73 -47.5l-1 -4q30 -7 51.5 -29t21.5 -66q0 -164 -217 -164h-213zM189 302h82q58 0 80 21t22 60q0 49 -72 49h-87zM152 87h89q55 0 78.5 19.5t23.5 62.5q0 27 -18 39t-59 12h-90z" />
    <glyph glyph-name="c.sc" horiz-adv-x="576" 
d="M326 434q-72 0 -118.5 -60t-46.5 -161q0 -61 27 -95t76 -34q56 0 89.5 30.5t40.5 84.5l116 -3q-4 -95 -70 -149.5t-179 -54.5q-107 0 -164.5 55t-57.5 158q0 149 81 234.5t211 85.5q62 0 106.5 -14t65.5 -38t30 -47t9 -49q0 -36 -10 -56l-117 -2q5 15 5 36q0 36 -24 57.5
t-70 21.5z" />
    <glyph glyph-name="d.sc" horiz-adv-x="584" 
d="M26 0l92 518h185q229 0 229 -209q0 -151 -75.5 -230t-226.5 -79h-204zM157 91h75q180 0 180 216q0 121 -120 121h-76z" />
    <glyph glyph-name="e.sc" horiz-adv-x="490" 
d="M26 0l92 518h362l-15 -90h-254l-22 -122h211l-15 -88h-210l-23 -128h253l-16 -90h-363z" />
    <glyph glyph-name="f.sc" horiz-adv-x="473" 
d="M26 0l92 518h356l-16 -91h-241l-25 -141h211l-16 -92h-211l-34 -194h-116z" />
    <glyph glyph-name="g.sc" horiz-adv-x="592" 
d="M269 77q51 0 85 28t43 71h-101l13 72h220l-44 -248h-78v68h-5q-66 -76 -161 -76t-148.5 56t-53.5 159q0 145 81.5 231.5t210.5 86.5q117 0 164.5 -42t47.5 -99q0 -26 -9 -55l-120 -2q5 17 5 33q0 35 -23.5 54.5t-68.5 19.5q-74 0 -120.5 -60t-46.5 -161q0 -63 29 -99.5
t80 -36.5z" />
    <glyph glyph-name="h.sc" horiz-adv-x="611" 
d="M26 0l92 518h114l-38 -212h228l38 212h114l-91 -518h-114l38 215h-228l-38 -215h-115z" />
    <glyph glyph-name="i.sc" horiz-adv-x="268" 
d="M26 0l92 518h113l-91 -518h-114z" />
    <glyph glyph-name="j.sc" horiz-adv-x="459" 
d="M12 182l111 -4q-11 -25 -11 -46q0 -48 54 -48q36 0 57 22.5t30 75.5l60 336h114l-60 -340q-33 -186 -205 -186q-83 0 -123.5 35.5t-40.5 94.5q0 30 14 60z" />
    <glyph glyph-name="k.sc" horiz-adv-x="532" 
d="M26 0l92 518h114l-40 -224l46 6q10 10 90.5 110.5t87.5 107.5h129l-1 -10q-10 -9 -105 -124t-105 -126q6 -9 60 -124t63 -123l-1 -11h-121q-5 6 -48 104.5t-51 106.5h-58l-37 -211h-115z" />
    <glyph glyph-name="l.sc" horiz-adv-x="448" 
d="M26 0l92 518h114l-75 -426h238l-16 -92h-353z" />
    <glyph glyph-name="m.sc" horiz-adv-x="708" 
d="M369 122h-90l-47 152q-13 40 -25 115h-6q-7 -75 -16 -129l-45 -260h-114l92 518h133l64 -204q19 -65 21 -77h6q22 40 46 77l133 204h150l-92 -518h-112l46 260q18 96 27 129h-7q-25 -59 -61 -113z" />
    <glyph glyph-name="n.sc" horiz-adv-x="608" 
d="M26 0l92 518h118l122 -279q16 -37 35 -93h5q4 60 14 115l45 257h114l-91 -518h-117l-122 275q-19 42 -36 95h-6q-4 -63 -14 -119l-44 -251h-115z" />
    <glyph glyph-name="o.sc" horiz-adv-x="607" 
d="M261 -8q-107 0 -164.5 55t-57.5 152q0 151 78 238.5t218 87.5q106 0 164 -55t58 -152q0 -151 -78.5 -238.5t-217.5 -87.5zM268 84q81 0 124.5 59.5t43.5 163.5q0 61 -27.5 94t-79.5 33q-82 0 -125.5 -60t-43.5 -165q0 -60 27.5 -92.5t80.5 -32.5z" />
    <glyph glyph-name="p.sc" horiz-adv-x="512" 
d="M26 0l92 518h190q178 0 178 -151q0 -92 -56 -155t-169 -63h-94l-25 -149h-116zM184 238h69q59 0 86.5 33.5t27.5 83.5q0 33 -19.5 53.5t-60.5 20.5h-70z" />
    <glyph glyph-name="q.sc" horiz-adv-x="607" 
d="M241 -7q-96 3 -149 57.5t-53 147.5q0 152 78 239.5t217 87.5q107 0 165.5 -55t58.5 -152q0 -117 -47 -195.5t-140 -107.5v-3q97 -71 180 -85l1 -12l-75 -72q-50 5 -118 52.5t-118 97.5zM269 84q81 0 124.5 59.5t43.5 163.5q0 61 -27.5 94t-80.5 33q-82 0 -125.5 -60
t-43.5 -165q0 -60 28 -92.5t81 -32.5z" />
    <glyph glyph-name="r.sc" horiz-adv-x="539" 
d="M26 0l92 518h192q179 0 179 -140q0 -65 -37.5 -110.5t-96.5 -62.5l-1 -5q10 -12 52.5 -96t54.5 -90l-2 -14h-119q-14 9 -50 91t-44 89h-73l-31 -180h-116zM186 266h74q57 0 82.5 27t25.5 71q0 29 -19.5 47t-59.5 18h-74z" />
    <glyph glyph-name="s.sc" horiz-adv-x="509" 
d="M27 172l111 2q-4 -18 -4 -33q0 -62 84 -62q48 0 75.5 19t27.5 50q0 41 -49 56l-97 31q-106 33 -106 119q0 76 58.5 123.5t156.5 47.5q102 0 142.5 -36t40.5 -84q0 -27 -8 -48l-109 -2q5 15 5 33q0 51 -75 51q-46 0 -70 -19t-24 -48q0 -42 49 -56l100 -30
q106 -31 106 -120q0 -77 -61.5 -125.5t-164.5 -48.5q-57 0 -97.5 13t-61 35t-29 43.5t-8.5 44.5q0 20 8 44z" />
    <glyph glyph-name="t.sc" horiz-adv-x="472" 
d="M125 0l75 426h-155l17 92h424l-16 -92h-156l-75 -426h-114z" />
    <glyph glyph-name="u.sc" horiz-adv-x="590" 
d="M60 232l51 286h114l-50 -283q-15 -84 5 -117.5t78 -33.5t89.5 33t46.5 118l50 283h115l-51 -286q-23 -128 -84.5 -184t-169.5 -56q-117 0 -167 56.5t-27 183.5z" />
    <glyph glyph-name="v.sc" horiz-adv-x="528" 
d="M145 0l-84 518h114l36 -282q10 -87 11 -129h8q28 72 56 129l136 282h125l-266 -518h-136z" />
    <glyph glyph-name="w.sc" horiz-adv-x="789" 
d="M483 518l31 -296q1 -7 3 -103h9q11 47 33 103l117 296h121l-215 -518h-132l-32 268q-5 44 -5 119h-8q-20 -69 -44 -119l-125 -268h-131l-33 518h112l12 -293q1 -45 -2 -106h8q21 65 39 104l135 295h107z" />
    <glyph glyph-name="x.sc" horiz-adv-x="526" 
d="M258 199h-8q-25 -40 -68 -97l-78 -102h-126l1 11l196 250l-106 245l2 12h115l41 -102q18 -43 31 -96h9q46 71 66 97l77 101h126l-2 -12l-193 -245l108 -250l-1 -11h-116l-41 103q-12 29 -33 96z" />
    <glyph glyph-name="y.sc" horiz-adv-x="517" 
d="M151 0l33 196l-128 310l2 12h110l53 -141q20 -56 26 -86h10q22 39 54 83l105 144h124l-1 -12l-239 -310l-36 -196h-113z" />
    <glyph glyph-name="z.sc" horiz-adv-x="489" 
d="M-9 0l15 78l251 281q38 44 65 64v6q-44 -4 -73 -4h-167l16 93h386l-12 -70l-259 -289q-37 -43 -65 -64l1 -6q52 5 72 5h182l-17 -94h-395z" />
    <glyph glyph-name="agrave.sc" horiz-adv-x="542" 
d="M-29 0l270 518h141l87 -518h-114l-18 118h-185l-61 -118h-120zM187 201h144l-19 117q-11 70 -11 104h-6q-34 -81 -47 -106zM281 575l-87 130l2 10h123l58 -130l-2 -10h-94z" />
    <glyph glyph-name="aacute.sc" horiz-adv-x="542" 
d="M-29 0l270 518h141l87 -518h-114l-18 118h-185l-61 -118h-120zM187 201h144l-19 117q-11 70 -11 104h-6q-34 -81 -47 -106zM258 575l2 10l96 130h138l-2 -10l-127 -130h-107z" />
    <glyph glyph-name="acircumflex.sc" horiz-adv-x="542" 
d="M-29 0l270 518h141l87 -518h-114l-18 118h-185l-61 -118h-120zM187 201h144l-19 117q-11 70 -11 104h-6q-34 -81 -47 -106zM153 575l2 10l115 130h140l71 -130l-2 -10h-91l-49 87h-5l-82 -87h-99z" />
    <glyph glyph-name="atilde.sc" horiz-adv-x="542" 
d="M-29 0l270 518h141l87 -518h-114l-18 118h-185l-61 -118h-120zM187 201h144l-19 117q-11 70 -11 104h-6q-34 -81 -47 -106zM146 582q22 143 121 143q34 0 59 -25l35 -35q12 -12 26 -12q28 0 39 61h83q-22 -144 -123 -144q-41 0 -66 27l-28 29q-15 15 -25 15
q-26 0 -39 -59h-82z" />
    <glyph glyph-name="adieresis.sc" horiz-adv-x="542" 
d="M-29 0l270 518h141l87 -518h-114l-18 118h-185l-61 -118h-120zM187 201h144l-19 117q-11 70 -11 104h-6q-34 -81 -47 -106zM381 587l18 106h108l-19 -106h-107zM149 587l19 106h108l-19 -106h-108z" />
    <glyph glyph-name="amacron.sc" horiz-adv-x="542" 
d="M-29 0l270 518h141l87 -518h-114l-18 118h-185l-61 -118h-120zM187 201h144l-19 117q-11 70 -11 104h-6q-34 -81 -47 -106zM175 594l15 86h299l-16 -86h-298z" />
    <glyph glyph-name="abreve.sc" horiz-adv-x="542" 
d="M-29 0l270 518h141l87 -518h-114l-18 118h-185l-61 -118h-120zM187 201h144l-19 117q-11 70 -11 104h-6q-34 -81 -47 -106zM316 572q-68 0 -105 40t-27 110h74q-5 -35 12.5 -55t53.5 -20t60.5 20t32.5 55h80q-15 -70 -64 -110t-117 -40z" />
    <glyph glyph-name="aring.sc" horiz-adv-x="560" 
d="M-30 0l275 509q-28 26 -28 71q0 57 40.5 96.5t97.5 39.5q43 0 70 -28t27 -69q0 -73 -60 -113l96 -506h-115l-22 119h-198l-63 -119h-120zM190 199h155l-22 119q-13 58 -14 104h-6q-19 -45 -51 -106zM325 540q31 0 48 20t17 52q0 46 -44 46q-32 0 -51 -19.5t-19 -51.5
q0 -21 13 -34t36 -13z" />
    <glyph glyph-name="aringacute.sc" horiz-adv-x="560" 
d="M-30 0l269 497q-26 23 -26 59q0 39 29 68.5t74 37.5l58 79h126l-2 -10l-87 -84q36 -25 36 -65q0 -54 -53 -87l94 -495h-115l-22 119h-198l-63 -119h-120zM190 199h155l-22 119q-11 51 -14 104h-6q-19 -45 -51 -106zM321 524q30 0 47 15t17 38q0 17 -12 27.5t-35 10.5
q-31 0 -48.5 -14.5t-17.5 -38.5q0 -17 13 -27.5t36 -10.5z" />
    <glyph glyph-name="aogonek.sc" horiz-adv-x="542" 
d="M210 -149q0 40 24 70.5t84 59.5l38 19h-1l-18 118h-185l-61 -118h-120l270 518h141l87 -518l-109 -62q-41 -24 -41 -57q0 -28 31 -28q34 0 95 37l-14 -88q-52 -28 -117 -28q-48 0 -76 21t-28 56zM187 201h144l-19 117q-11 59 -11 104h-6q-25 -60 -48 -106z" />
    <glyph glyph-name="ae.sc" horiz-adv-x="797" 
d="M315 0l21 119h-159l-81 -119h-135l364 518h463l-16 -91h-268l-22 -120h223l-16 -90h-222l-22 -125h268l-16 -92h-382zM225 199h125l40 231h-8z" />
    <glyph glyph-name="aeacute.sc" horiz-adv-x="797" 
d="M315 0l21 119h-159l-81 -119h-135l364 518h463l-16 -91h-268l-22 -120h223l-16 -90h-222l-22 -125h268l-16 -92h-382zM225 199h125l40 231h-8zM484 575l2 10l96 130h138l-2 -10l-127 -130h-107z" />
    <glyph glyph-name="cacute.sc" horiz-adv-x="576" 
d="M326 434q-72 0 -118.5 -60t-46.5 -161q0 -61 27 -95t76 -34q56 0 89.5 30.5t40.5 84.5l116 -3q-4 -95 -70 -149.5t-179 -54.5q-107 0 -164.5 55t-57.5 158q0 149 81 234.5t211 85.5q62 0 106.5 -14t65.5 -38t30 -47t9 -49q0 -36 -10 -56l-117 -2q5 15 5 36q0 36 -24 57.5
t-70 21.5zM297 575l2 10l96 130h138l-2 -10l-127 -130h-107z" />
    <glyph glyph-name="ccircumflex.sc" horiz-adv-x="576" 
d="M326 434q-72 0 -118.5 -60t-46.5 -161q0 -61 27 -95t76 -34q56 0 89.5 30.5t40.5 84.5l116 -3q-4 -95 -70 -149.5t-179 -54.5q-107 0 -164.5 55t-57.5 158q0 149 81 234.5t211 85.5q62 0 106.5 -14t65.5 -38t30 -47t9 -49q0 -36 -10 -56l-117 -2q5 15 5 36q0 36 -24 57.5
t-70 21.5zM204 575l2 10l115 130h140l71 -130l-2 -10h-91l-49 87h-5l-82 -87h-99z" />
    <glyph glyph-name="ccaron.sc" horiz-adv-x="576" 
d="M326 434q-72 0 -118.5 -60t-46.5 -161q0 -61 27 -95t76 -34q56 0 89.5 30.5t40.5 84.5l116 -3q-4 -95 -70 -149.5t-179 -54.5q-107 0 -164.5 55t-57.5 158q0 149 81 234.5t211 85.5q62 0 106.5 -14t65.5 -38t30 -47t9 -49q0 -36 -10 -56l-117 -2q5 15 5 36q0 36 -24 57.5
t-70 21.5zM550 715l-2 -10l-115 -130h-141l-70 130l2 10h89l52 -87h4l82 87h99z" />
    <glyph glyph-name="cdotaccent.sc" horiz-adv-x="576" 
d="M326 434q-72 0 -118.5 -60t-46.5 -161q0 -61 27 -95t76 -34q56 0 89.5 30.5t40.5 84.5l116 -3q-4 -95 -70 -149.5t-179 -54.5q-107 0 -164.5 55t-57.5 158q0 149 81 234.5t211 85.5q62 0 106.5 -14t65.5 -38t30 -47t9 -49q0 -36 -10 -56l-117 -2q5 15 5 36q0 36 -24 57.5
t-70 21.5zM292 584l19 112h119l-20 -112h-118z" />
    <glyph glyph-name="ccedilla.sc" horiz-adv-x="576" 
d="M326 434q-72 0 -118.5 -60t-46.5 -161q0 -61 27 -95t76 -34q56 0 89.5 30.5t40.5 84.5l116 -3q-4 -95 -70 -149.5t-179 -54.5q-107 0 -164.5 55t-57.5 158q0 149 81 234.5t211 85.5q62 0 106.5 -14t65.5 -38t30 -47t9 -49q0 -36 -10 -56l-117 -2q5 15 5 36q0 36 -24 57.5
t-70 21.5zM210 -68l85 22q18 -36 18 -78q0 -60 -36.5 -95t-104.5 -35q-56 0 -82 24l22 74q31 -23 55 -23q27 0 40.5 16.5t13.5 43.5q0 23 -11 51z" />
    <glyph glyph-name="dcaron.sc" horiz-adv-x="584" 
d="M26 0l92 518h185q229 0 229 -209q0 -151 -75.5 -230t-226.5 -79h-204zM157 91h75q180 0 180 216q0 121 -120 121h-76zM492 715l-2 -10l-115 -130h-141l-70 130l2 10h89l52 -87h4l82 87h99z" />
    <glyph glyph-name="dcroat.sc" horiz-adv-x="585" 
d="M10 223l13 75h56l40 220h185q229 0 229 -209q0 -151 -75.5 -230t-226.5 -79h-204l39 223h-56zM158 91h75q180 0 180 216q0 121 -120 121h-76l-24 -130h120l-14 -75h-118z" />
    <glyph glyph-name="eth.sc" horiz-adv-x="585" 
d="M10 223l13 75h56l40 220h185q229 0 229 -209q0 -151 -75.5 -230t-226.5 -79h-204l39 223h-56zM158 91h75q180 0 180 216q0 121 -120 121h-76l-24 -130h120l-14 -75h-118z" />
    <glyph glyph-name="egrave.sc" horiz-adv-x="490" 
d="M26 0l92 518h362l-15 -90h-254l-22 -122h211l-15 -88h-210l-23 -128h253l-16 -90h-363zM261 575l-87 130l2 10h123l58 -130l-2 -10h-94z" />
    <glyph glyph-name="eacute.sc" horiz-adv-x="490" 
d="M26 0l92 518h362l-15 -90h-254l-22 -122h211l-15 -88h-210l-23 -128h253l-16 -90h-363zM238 575l2 10l96 130h138l-2 -10l-127 -130h-107z" />
    <glyph glyph-name="ecircumflex.sc" horiz-adv-x="490" 
d="M26 0l92 518h362l-15 -90h-254l-22 -122h211l-15 -88h-210l-23 -128h253l-16 -90h-363zM146 575l2 10l115 130h140l71 -130l-2 -10h-91l-49 87h-5l-82 -87h-99z" />
    <glyph glyph-name="ecaron.sc" horiz-adv-x="490" 
d="M26 0l92 518h362l-15 -90h-254l-22 -122h211l-15 -88h-210l-23 -128h253l-16 -90h-363zM496 715l-2 -10l-115 -130h-141l-70 130l2 10h89l52 -87h4l82 87h99z" />
    <glyph glyph-name="edieresis.sc" horiz-adv-x="490" 
d="M26 0l92 518h362l-15 -90h-254l-22 -122h211l-15 -88h-210l-23 -128h253l-16 -90h-363zM375 587l18 106h108l-19 -106h-107zM143 587l19 106h108l-19 -106h-108z" />
    <glyph glyph-name="emacron.sc" horiz-adv-x="490" 
d="M26 0l92 518h362l-15 -90h-254l-22 -122h211l-15 -88h-210l-23 -128h253l-16 -90h-363zM154 594l15 86h299l-16 -86h-298z" />
    <glyph glyph-name="ebreve.sc" horiz-adv-x="490" 
d="M26 0l92 518h362l-15 -90h-254l-22 -122h211l-15 -88h-210l-23 -128h253l-16 -90h-363zM305 572q-68 0 -105 40t-27 110h74q-5 -35 12.5 -55t53.5 -20t60.5 20t32.5 55h80q-15 -70 -64 -110t-117 -40z" />
    <glyph glyph-name="edotaccent.sc" horiz-adv-x="490" 
d="M26 0l92 518h362l-15 -90h-254l-22 -122h211l-15 -88h-210l-23 -128h253l-16 -90h-363zM249 584l19 112h119l-20 -112h-118z" />
    <glyph glyph-name="eogonek.sc" horiz-adv-x="490" 
d="M26 0l92 518h362l-15 -90h-254l-22 -122h211l-15 -88h-210l-23 -128h253l-16 -90l-109 -62q-41 -24 -41 -57q0 -28 31 -28q34 0 95 37l-14 -88q-52 -28 -117 -28q-48 0 -76 21t-28 56q0 40 24 70.5t84 59.5l38 19h-250z" />
    <glyph glyph-name="gcircumflex.sc" horiz-adv-x="592" 
d="M269 77q51 0 85 28t43 71h-101l13 72h220l-44 -248h-78v68h-5q-66 -76 -161 -76t-148.5 56t-53.5 159q0 145 81.5 231.5t210.5 86.5q117 0 164.5 -42t47.5 -99q0 -26 -9 -55l-120 -2q5 17 5 33q0 35 -23.5 54.5t-68.5 19.5q-74 0 -120.5 -60t-46.5 -161q0 -63 29 -99.5
t80 -36.5zM178 575l2 10l115 130h140l71 -130l-2 -10h-91l-49 87h-5l-82 -87h-99z" />
    <glyph glyph-name="gbreve.sc" horiz-adv-x="592" 
d="M269 77q51 0 85 28t43 71h-101l13 72h220l-44 -248h-78v68h-5q-66 -76 -161 -76t-148.5 56t-53.5 159q0 145 81.5 231.5t210.5 86.5q117 0 164.5 -42t47.5 -99q0 -26 -9 -55l-120 -2q5 17 5 33q0 35 -23.5 54.5t-68.5 19.5q-74 0 -120.5 -60t-46.5 -161q0 -63 29 -99.5
t80 -36.5zM339 572q-68 0 -105 40t-27 110h74q-5 -35 12.5 -55t53.5 -20t60.5 20t32.5 55h80q-15 -70 -64 -110t-117 -40z" />
    <glyph glyph-name="gdotaccent.sc" horiz-adv-x="592" 
d="M269 77q51 0 85 28t43 71h-101l13 72h220l-44 -248h-78v68h-5q-66 -76 -161 -76t-148.5 56t-53.5 159q0 145 81.5 231.5t210.5 86.5q117 0 164.5 -42t47.5 -99q0 -26 -9 -55l-120 -2q5 17 5 33q0 35 -23.5 54.5t-68.5 19.5q-74 0 -120.5 -60t-46.5 -161q0 -63 29 -99.5
t80 -36.5zM292 584l19 112h119l-20 -112h-118z" />
    <glyph glyph-name="gcommaaccent.sc" horiz-adv-x="592" 
d="M269 77q51 0 85 28t43 71h-101l13 72h220l-44 -248h-78v68h-5q-66 -76 -161 -76t-148.5 56t-53.5 159q0 145 81.5 231.5t210.5 86.5q117 0 164.5 -42t47.5 -99q0 -26 -9 -55l-120 -2q5 17 5 33q0 35 -23.5 54.5t-68.5 19.5q-74 0 -120.5 -60t-46.5 -161q0 -63 29 -99.5
t80 -36.5zM203 -57h136l-21 -115q-23 -137 -163 -130l14 54q73 -1 86 72h-74z" />
    <glyph glyph-name="hcircumflex.sc" horiz-adv-x="611" 
d="M26 0l92 518h114l-38 -212h228l38 212h114l-91 -518h-114l38 215h-228l-38 -215h-115zM189 575l2 10l115 130h140l71 -130l-2 -10h-91l-49 87h-5l-82 -87h-99z" />
    <glyph glyph-name="hbar.sc" horiz-adv-x="611" 
d="M55 396l11 64h42l10 58h114l-11 -58h228l11 58h114l-10 -58h40l-12 -64h-39l-70 -396h-114l38 215h-228l-38 -215h-115l71 396h-42zM194 306h228l16 90h-228z" />
    <glyph glyph-name="igrave.sc" horiz-adv-x="268" 
d="M26 0l92 518h113l-91 -518h-114zM137 575l-87 130l2 10h123l58 -130l-2 -10h-94z" />
    <glyph glyph-name="iacute.sc" horiz-adv-x="268" 
d="M26 0l92 518h113l-91 -518h-114zM125 575l2 10l96 130h138l-2 -10l-127 -130h-107z" />
    <glyph glyph-name="ibreve.sc" horiz-adv-x="268" 
d="M26 0l92 518h113l-91 -518h-114zM183 572q-68 0 -105 40t-27 110h74q-5 -35 12.5 -55t53.5 -20t60.5 20t32.5 55h80q-15 -70 -64 -110t-117 -40z" />
    <glyph glyph-name="icircumflex.sc" horiz-adv-x="268" 
d="M26 0l92 518h113l-91 -518h-114zM11 575l2 10l115 130h140l71 -130l-2 -10h-91l-49 87h-5l-82 -87h-99z" />
    <glyph glyph-name="itilde.sc" horiz-adv-x="268" 
d="M26 0l92 518h113l-91 -518h-114zM14 582q22 143 121 143q34 0 59 -25l35 -35q12 -12 26 -12q28 0 39 61h83q-22 -144 -123 -144q-41 0 -66 27l-28 29q-15 15 -25 15q-26 0 -39 -59h-82z" />
    <glyph glyph-name="idieresis.sc" horiz-adv-x="268" 
d="M26 0l92 518h113l-91 -518h-114zM245 587l18 106h108l-19 -106h-107zM13 587l19 106h108l-19 -106h-108z" />
    <glyph glyph-name="imacron.sc" horiz-adv-x="268" 
d="M26 0l92 518h113l-91 -518h-114zM34 594l15 86h299l-16 -86h-298z" />
    <glyph glyph-name="idotaccent.sc" horiz-adv-x="268" 
d="M26 0l92 518h113l-91 -518h-114zM125 584l19 112h119l-20 -112h-118z" />
    <glyph glyph-name="iogonek.sc" horiz-adv-x="268" 
d="M26 0l92 518h113l-91 -518l-109 -62q-41 -24 -41 -57q0 -28 31 -28q34 0 95 37l-14 -88q-52 -28 -117 -28q-48 0 -76 21t-28 56q0 40 24 70.5t84 59.5l38 19h-1z" />
    <glyph glyph-name="jcircumflex.sc" horiz-adv-x="459" 
d="M12 182l111 -4q-11 -25 -11 -46q0 -48 54 -48q36 0 57 22.5t30 75.5l60 336h114l-60 -340q-33 -186 -205 -186q-83 0 -123.5 35.5t-40.5 94.5q0 30 14 60zM207 575l2 10l115 130h140l71 -130l-2 -10h-91l-49 87h-5l-82 -87h-99z" />
    <glyph glyph-name="kcommaaccent.sc" horiz-adv-x="532" 
d="M26 0l92 518h114l-40 -224l46 6q10 10 90.5 110.5t87.5 107.5h129l-1 -10q-10 -9 -105 -124t-105 -126q6 -9 60 -124t63 -123l-1 -11h-121q-5 6 -48 104.5t-51 106.5h-58l-37 -211h-115zM166 -57h136l-21 -115q-23 -137 -163 -130l14 54q73 -1 86 72h-74z" />
    <glyph glyph-name="lacute.sc" horiz-adv-x="448" 
d="M26 0l92 518h114l-75 -426h238l-16 -92h-353zM128 575l2 10l96 130h138l-2 -10l-127 -130h-107z" />
    <glyph glyph-name="lcaron.sc" horiz-adv-x="448" 
d="M26 0l92 518h114l-75 -426h238l-16 -92h-353zM343 518h136l-21 -116q-23 -137 -163 -130l14 55q75 -3 87 72h-74z" />
    <glyph glyph-name="lcommaaccent.sc" horiz-adv-x="448" 
d="M26 0l92 518h114l-75 -426h238l-16 -92h-353zM137 -57h136l-21 -115q-23 -137 -163 -130l14 54q73 -1 86 72h-74z" />
    <glyph glyph-name="lslash.sc" horiz-adv-x="449" 
d="M12 156l-27 68l90 50l44 244h113l-31 -179l72 41l27 -69l-115 -64l-28 -155h239l-17 -92h-352l33 182z" />
    <glyph glyph-name="ldot.sc" horiz-adv-x="448" 
d="M26 0l92 518h114l-75 -426h238l-16 -92h-353zM346 218q-33 0 -54.5 20.5t-21.5 51.5q0 32 21 52.5t55 20.5q32 0 53 -20.5t21 -52.5q0 -31 -21 -51.5t-53 -20.5z" />
    <glyph glyph-name="nacute.sc" horiz-adv-x="608" 
d="M26 0l92 518h118l122 -279q16 -37 35 -93h5q4 60 14 115l45 257h114l-91 -518h-117l-122 275q-19 42 -36 95h-6q-4 -63 -14 -119l-44 -251h-115zM297 575l2 10l96 130h138l-2 -10l-127 -130h-107z" />
    <glyph glyph-name="ncaron.sc" horiz-adv-x="608" 
d="M26 0l92 518h118l122 -279q16 -37 35 -93h5q4 60 14 115l45 257h114l-91 -518h-117l-122 275q-19 42 -36 95h-6q-4 -63 -14 -119l-44 -251h-115zM540 715l-2 -10l-115 -130h-141l-70 130l2 10h89l52 -87h4l82 87h99z" />
    <glyph glyph-name="ntilde.sc" horiz-adv-x="608" 
d="M26 0l92 518h118l122 -279q16 -37 35 -93h5q4 60 14 115l45 257h114l-91 -518h-117l-122 275q-19 42 -36 95h-6q-4 -63 -14 -119l-44 -251h-115zM189 582q22 143 121 143q34 0 59 -25l35 -35q12 -12 26 -12q28 0 39 61h83q-22 -144 -123 -144q-41 0 -66 27l-28 29
q-15 15 -25 15q-26 0 -39 -59h-82z" />
    <glyph glyph-name="ncommaaccent.sc" horiz-adv-x="608" 
d="M26 0l92 518h118l122 -279q16 -37 35 -93h5q4 60 14 115l45 257h114l-91 -518h-117l-122 275q-19 42 -36 95h-6q-4 -63 -14 -119l-44 -251h-115zM202 -57h136l-21 -115q-23 -137 -163 -130l14 54q73 -1 86 72h-74z" />
    <glyph glyph-name="ograve.sc" horiz-adv-x="607" 
d="M261 -8q-107 0 -164.5 55t-57.5 152q0 151 78 238.5t218 87.5q106 0 164 -55t58 -152q0 -151 -78.5 -238.5t-217.5 -87.5zM268 84q81 0 124.5 59.5t43.5 163.5q0 61 -27.5 94t-79.5 33q-82 0 -125.5 -60t-43.5 -165q0 -60 27.5 -92.5t80.5 -32.5zM297 575l-87 130l2 10
h123l58 -130l-2 -10h-94z" />
    <glyph glyph-name="oacute.sc" horiz-adv-x="607" 
d="M261 -8q-107 0 -164.5 55t-57.5 152q0 151 78 238.5t218 87.5q106 0 164 -55t58 -152q0 -151 -78.5 -238.5t-217.5 -87.5zM268 84q81 0 124.5 59.5t43.5 163.5q0 61 -27.5 94t-79.5 33q-82 0 -125.5 -60t-43.5 -165q0 -60 27.5 -92.5t80.5 -32.5zM288 575l2 10l96 130
h138l-2 -10l-127 -130h-107z" />
    <glyph glyph-name="ocircumflex.sc" horiz-adv-x="607" 
d="M261 -8q-107 0 -164.5 55t-57.5 152q0 151 78 238.5t218 87.5q106 0 164 -55t58 -152q0 -151 -78.5 -238.5t-217.5 -87.5zM268 84q81 0 124.5 59.5t43.5 163.5q0 61 -27.5 94t-79.5 33q-82 0 -125.5 -60t-43.5 -165q0 -60 27.5 -92.5t80.5 -32.5zM186 575l2 10l115 130
h140l71 -130l-2 -10h-91l-49 87h-5l-82 -87h-99z" />
    <glyph glyph-name="otilde.sc" horiz-adv-x="607" 
d="M261 -8q-107 0 -164.5 55t-57.5 152q0 151 78 238.5t218 87.5q106 0 164 -55t58 -152q0 -151 -78.5 -238.5t-217.5 -87.5zM268 84q81 0 124.5 59.5t43.5 163.5q0 61 -27.5 94t-79.5 33q-82 0 -125.5 -60t-43.5 -165q0 -60 27.5 -92.5t80.5 -32.5zM184 582q22 143 121 143
q34 0 59 -25l35 -35q12 -12 26 -12q28 0 39 61h83q-22 -144 -123 -144q-41 0 -66 27l-28 29q-15 15 -25 15q-26 0 -39 -59h-82z" />
    <glyph glyph-name="odieresis.sc" horiz-adv-x="607" 
d="M261 -8q-107 0 -164.5 55t-57.5 152q0 151 78 238.5t218 87.5q106 0 164 -55t58 -152q0 -151 -78.5 -238.5t-217.5 -87.5zM268 84q81 0 124.5 59.5t43.5 163.5q0 61 -27.5 94t-79.5 33q-82 0 -125.5 -60t-43.5 -165q0 -60 27.5 -92.5t80.5 -32.5zM417 587l18 106h108
l-19 -106h-107zM185 587l19 106h108l-19 -106h-108z" />
    <glyph glyph-name="omacron.sc" horiz-adv-x="607" 
d="M261 -8q-107 0 -164.5 55t-57.5 152q0 151 78 238.5t218 87.5q106 0 164 -55t58 -152q0 -151 -78.5 -238.5t-217.5 -87.5zM268 84q81 0 124.5 59.5t43.5 163.5q0 61 -27.5 94t-79.5 33q-82 0 -125.5 -60t-43.5 -165q0 -60 27.5 -92.5t80.5 -32.5zM210 594l15 86h299
l-16 -86h-298z" />
    <glyph glyph-name="obreve.sc" horiz-adv-x="607" 
d="M261 -8q-107 0 -164.5 55t-57.5 152q0 151 78 238.5t218 87.5q106 0 164 -55t58 -152q0 -151 -78.5 -238.5t-217.5 -87.5zM268 84q81 0 124.5 59.5t43.5 163.5q0 61 -27.5 94t-79.5 33q-82 0 -125.5 -60t-43.5 -165q0 -60 27.5 -92.5t80.5 -32.5zM355 572q-68 0 -105 40
t-27 110h74q-5 -35 12.5 -55t53.5 -20t60.5 20t32.5 55h80q-15 -70 -64 -110t-117 -40z" />
    <glyph glyph-name="ohungarumlaut.sc" horiz-adv-x="607" 
d="M261 -8q-107 0 -164.5 55t-57.5 152q0 151 78 238.5t218 87.5q106 0 164 -55t58 -152q0 -151 -78.5 -238.5t-217.5 -87.5zM268 84q81 0 124.5 59.5t43.5 163.5q0 61 -27.5 94t-79.5 33q-82 0 -125.5 -60t-43.5 -165q0 -60 27.5 -92.5t80.5 -32.5zM396 575l2 10l81 130
h125l-1 -10l-110 -130h-97zM212 575l1 10l81 130h127l-2 -10l-112 -130h-95z" />
    <glyph glyph-name="oslash.sc" horiz-adv-x="607" 
d="M262 -8q-82 0 -138 36l-25 -28h-77l60 63q-42 52 -42 136q0 151 77.5 238.5t217.5 87.5q88 0 142 -40l31 33h74l-65 -69q41 -52 41 -131q0 -151 -79 -238.5t-217 -87.5zM158 208q0 -36 8 -57l238 259q-29 27 -74 27q-84 0 -128 -61t-44 -168zM268 81q83 0 127.5 60
t44.5 167q0 30 -8 52l-234 -257q25 -22 70 -22z" />
    <glyph glyph-name="oslashacute.sc" horiz-adv-x="607" 
d="M275 575l2 10l96 130h138l-2 -10l-127 -130h-107zM262 -8q-82 0 -138 36l-25 -28h-77l60 63q-42 52 -42 136q0 151 77.5 238.5t217.5 87.5q88 0 142 -40l31 33h74l-65 -69q41 -52 41 -131q0 -151 -79 -238.5t-217 -87.5zM158 208q0 -36 8 -57l238 259q-29 27 -74 27
q-84 0 -128 -61t-44 -168zM268 81q83 0 127.5 60t44.5 167q0 30 -8 52l-234 -257q25 -22 70 -22z" />
    <glyph glyph-name="oe.sc" horiz-adv-x="831" 
d="M364 0l5 27q-58 -35 -121 -35q-101 0 -155 55t-54 152q0 150 78 238t209 88q81 0 124 -37l6 30h366l-16 -91h-253l-21 -120h208l-16 -90h-209l-21 -125h253l-17 -92h-366zM267 84q78 0 124 71l38 216q-19 63 -101 63t-125 -60t-43 -165q0 -125 107 -125z" />
    <glyph glyph-name="racute.sc" horiz-adv-x="539" 
d="M26 0l92 518h192q179 0 179 -140q0 -65 -37.5 -110.5t-96.5 -62.5l-1 -5q10 -12 52.5 -96t54.5 -90l-2 -14h-119q-14 9 -50 91t-44 89h-73l-31 -180h-116zM186 266h74q57 0 82.5 27t25.5 71q0 29 -19.5 47t-59.5 18h-74zM221 575l2 10l96 130h138l-2 -10l-127 -130h-107z
" />
    <glyph glyph-name="rcaron.sc" horiz-adv-x="539" 
d="M26 0l92 518h192q179 0 179 -140q0 -65 -37.5 -110.5t-96.5 -62.5l-1 -5q10 -12 52.5 -96t54.5 -90l-2 -14h-119q-14 9 -50 91t-44 89h-73l-31 -180h-116zM186 266h74q57 0 82.5 27t25.5 71q0 29 -19.5 47t-59.5 18h-74zM483 715l-2 -10l-115 -130h-141l-70 130l2 10h89
l52 -87h4l82 87h99z" />
    <glyph glyph-name="rcommaaccent.sc" horiz-adv-x="539" 
d="M26 0l92 518h192q179 0 179 -140q0 -65 -37.5 -110.5t-96.5 -62.5l-1 -5q10 -12 52.5 -96t54.5 -90l-2 -14h-119q-14 9 -50 91t-44 89h-73l-31 -180h-116zM186 266h74q57 0 82.5 27t25.5 71q0 29 -19.5 47t-59.5 18h-74zM150 -57h136l-21 -115q-23 -137 -163 -130l14 54
q73 -1 86 72h-74z" />
    <glyph glyph-name="sacute.sc" horiz-adv-x="509" 
d="M27 172l111 2q-4 -18 -4 -33q0 -62 84 -62q48 0 75.5 19t27.5 50q0 41 -49 56l-97 31q-106 33 -106 119q0 76 58.5 123.5t156.5 47.5q102 0 142.5 -36t40.5 -84q0 -27 -8 -48l-109 -2q5 15 5 33q0 51 -75 51q-46 0 -70 -19t-24 -48q0 -42 49 -56l100 -30
q106 -31 106 -120q0 -77 -61.5 -125.5t-164.5 -48.5q-57 0 -97.5 13t-61 35t-29 43.5t-8.5 44.5q0 20 8 44zM230 575l2 10l96 130h138l-2 -10l-127 -130h-107z" />
    <glyph glyph-name="scircumflex.sc" horiz-adv-x="509" 
d="M27 172l111 2q-4 -18 -4 -33q0 -62 84 -62q48 0 75.5 19t27.5 50q0 41 -49 56l-97 31q-106 33 -106 119q0 76 58.5 123.5t156.5 47.5q102 0 142.5 -36t40.5 -84q0 -27 -8 -48l-109 -2q5 15 5 33q0 51 -75 51q-46 0 -70 -19t-24 -48q0 -42 49 -56l100 -30
q106 -31 106 -120q0 -77 -61.5 -125.5t-164.5 -48.5q-57 0 -97.5 13t-61 35t-29 43.5t-8.5 44.5q0 20 8 44zM148 574l2 10l115 130h140l71 -130l-2 -10h-91l-49 87h-5l-82 -87h-99z" />
    <glyph glyph-name="scaron.sc" horiz-adv-x="509" 
d="M27 172l111 2q-4 -18 -4 -33q0 -62 84 -62q48 0 75.5 19t27.5 50q0 41 -49 56l-97 31q-106 33 -106 119q0 76 58.5 123.5t156.5 47.5q102 0 142.5 -36t40.5 -84q0 -27 -8 -48l-109 -2q5 15 5 33q0 51 -75 51q-46 0 -70 -19t-24 -48q0 -42 49 -56l100 -30
q106 -31 106 -120q0 -77 -61.5 -125.5t-164.5 -48.5q-57 0 -97.5 13t-61 35t-29 43.5t-8.5 44.5q0 20 8 44zM495 715l-2 -10l-115 -130h-141l-70 130l2 10h89l52 -87h4l82 87h99z" />
    <glyph glyph-name="scedilla.sc" horiz-adv-x="509" 
d="M27 172l111 2q-4 -18 -4 -33q0 -62 84 -62q48 0 75.5 19t27.5 50q0 41 -49 56l-97 31q-106 33 -106 119q0 76 58.5 123.5t156.5 47.5q102 0 142.5 -36t40.5 -84q0 -27 -8 -48l-109 -2q5 15 5 33q0 51 -75 51q-46 0 -70 -19t-24 -48q0 -42 49 -56l100 -30
q106 -31 106 -120q0 -77 -61.5 -125.5t-164.5 -48.5q-57 0 -97.5 13t-61 35t-29 43.5t-8.5 44.5q0 20 8 44zM175 -68l85 22q18 -36 18 -78q0 -60 -36.5 -95t-104.5 -35q-56 0 -82 24l22 74q31 -23 55 -23q27 0 40.5 16.5t13.5 43.5q0 23 -11 51z" />
    <glyph glyph-name="scommaaccent.sc" horiz-adv-x="509" 
d="M27 172l111 2q-4 -18 -4 -33q0 -62 84 -62q48 0 75.5 19t27.5 50q0 41 -49 56l-97 31q-106 33 -106 119q0 76 58.5 123.5t156.5 47.5q102 0 142.5 -36t40.5 -84q0 -27 -8 -48l-109 -2q5 15 5 33q0 51 -75 51q-46 0 -70 -19t-24 -48q0 -42 49 -56l100 -30
q106 -31 106 -120q0 -77 -61.5 -125.5t-164.5 -48.5q-57 0 -97.5 13t-61 35t-29 43.5t-8.5 44.5q0 20 8 44zM142 -57h136l-21 -115q-23 -137 -163 -130l14 54q73 -1 86 72h-74z" />
    <glyph glyph-name="tcaron.sc" horiz-adv-x="472" 
d="M125 0l75 426h-155l17 92h424l-16 -92h-156l-75 -426h-114zM465 715l-2 -10l-115 -130h-141l-70 130l2 10h89l52 -87h4l82 87h99z" />
    <glyph glyph-name="tcommaaccent.sc" horiz-adv-x="472" 
d="M125 0l75 426h-155l17 92h424l-16 -92h-156l-75 -426h-114zM132 -68l85 22q18 -36 18 -78q0 -60 -36.5 -95t-104.5 -35q-56 0 -82 24l22 74q31 -23 55 -23q27 0 40.5 16.5t13.5 43.5q0 23 -11 51z" />
    <glyph glyph-name="uni021A.sc" horiz-adv-x="472" 
d="M125 0l75 426h-155l17 92h424l-16 -92h-156l-75 -426h-114zM106 -57h136l-21 -115q-23 -137 -163 -130l14 54q73 -1 86 72h-74z" />
    <glyph glyph-name="tbar.sc" horiz-adv-x="473" 
d="M91 190l14 74h68l28 162h-155l17 92h424l-16 -92h-156l-29 -162h71l-14 -74h-69l-34 -190h-114l33 190h-68z" />
    <glyph glyph-name="thorn.sc" horiz-adv-x="511" 
d="M26 0l91 518h118l-14 -75h73q92 0 137.5 -40t45.5 -106q0 -92 -62 -151t-184 -59h-72l-16 -87h-117zM173 169h65q62 0 94.5 31.5t32.5 79.5q0 34 -23 55.5t-69 21.5h-67z" />
    <glyph glyph-name="ugrave.sc" horiz-adv-x="590" 
d="M60 232l51 286h114l-50 -283q-15 -84 5 -117.5t78 -33.5t89.5 33t46.5 118l50 283h115l-51 -286q-23 -128 -84.5 -184t-169.5 -56q-117 0 -167 56.5t-27 183.5zM306 575l-87 130l2 10h123l58 -130l-2 -10h-94z" />
    <glyph glyph-name="uacute.sc" horiz-adv-x="590" 
d="M60 232l51 286h114l-50 -283q-15 -84 5 -117.5t78 -33.5t89.5 33t46.5 118l50 283h115l-51 -286q-23 -128 -84.5 -184t-169.5 -56q-117 0 -167 56.5t-27 183.5zM284 575l2 10l96 130h138l-2 -10l-127 -130h-107z" />
    <glyph glyph-name="ucircumflex.sc" horiz-adv-x="590" 
d="M60 232l51 286h114l-50 -283q-15 -84 5 -117.5t78 -33.5t89.5 33t46.5 118l50 283h115l-51 -286q-23 -128 -84.5 -184t-169.5 -56q-117 0 -167 56.5t-27 183.5zM176 575l2 10l115 130h140l71 -130l-2 -10h-91l-49 87h-5l-82 -87h-99z" />
    <glyph glyph-name="utilde.sc" horiz-adv-x="590" 
d="M60 232l51 286h114l-50 -283q-15 -84 5 -117.5t78 -33.5t89.5 33t46.5 118l50 283h115l-51 -286q-23 -128 -84.5 -184t-169.5 -56q-117 0 -167 56.5t-27 183.5zM180 582q22 143 121 143q34 0 59 -25l35 -35q12 -12 26 -12q28 0 39 61h83q-22 -144 -123 -144q-41 0 -66 27
l-28 29q-15 15 -25 15q-26 0 -39 -59h-82z" />
    <glyph glyph-name="udieresis.sc" horiz-adv-x="590" 
d="M60 232l51 286h114l-50 -283q-15 -84 5 -117.5t78 -33.5t89.5 33t46.5 118l50 283h115l-51 -286q-23 -128 -84.5 -184t-169.5 -56q-117 0 -167 56.5t-27 183.5zM406 587l18 106h108l-19 -106h-107zM174 587l19 106h108l-19 -106h-108z" />
    <glyph glyph-name="umacron.sc" horiz-adv-x="590" 
d="M60 232l51 286h114l-50 -283q-15 -84 5 -117.5t78 -33.5t89.5 33t46.5 118l50 283h115l-51 -286q-23 -128 -84.5 -184t-169.5 -56q-117 0 -167 56.5t-27 183.5zM201 594l15 86h299l-16 -86h-298z" />
    <glyph glyph-name="ubreve.sc" horiz-adv-x="590" 
d="M60 232l51 286h114l-50 -283q-15 -84 5 -117.5t78 -33.5t89.5 33t46.5 118l50 283h115l-51 -286q-23 -128 -84.5 -184t-169.5 -56q-117 0 -167 56.5t-27 183.5zM348 572q-68 0 -105 40t-27 110h74q-5 -35 12.5 -55t53.5 -20t60.5 20t32.5 55h80q-15 -70 -64 -110
t-117 -40z" />
    <glyph glyph-name="uring.sc" horiz-adv-x="590" 
d="M60 232l51 286h114l-50 -283q-15 -84 5 -117.5t78 -33.5t89.5 33t46.5 118l50 283h115l-51 -286q-23 -128 -84.5 -184t-169.5 -56q-117 0 -167 56.5t-27 183.5zM337 536q-44 0 -72 27.5t-28 69.5q0 57 39.5 96t95.5 39q43 0 71.5 -27.5t28.5 -68.5q0 -58 -39 -97t-96 -39
zM344 593q31 0 48.5 20t17.5 52q0 46 -45 46q-32 0 -50 -19.5t-18 -50.5q0 -22 12 -35t35 -13z" />
    <glyph glyph-name="uhungarumlaut.sc" horiz-adv-x="590" 
d="M60 232l51 286h114l-50 -283q-15 -84 5 -117.5t78 -33.5t89.5 33t46.5 118l50 283h115l-51 -286q-23 -128 -84.5 -184t-169.5 -56q-117 0 -167 56.5t-27 183.5zM385 575l2 10l81 130h125l-1 -10l-110 -130h-97zM201 575l1 10l81 130h127l-2 -10l-112 -130h-95z" />
    <glyph glyph-name="uogonek.sc" horiz-adv-x="590" 
d="M68 -149q0 40 24 70.5t84 59.5l27 14q-91 10 -128 67t-17 170l51 286h114l-50 -283q-15 -84 5 -117.5t78 -33.5t89.5 33t46.5 118l50 283h115l-51 -286q-18 -105 -62.5 -161t-118.5 -72l-107 -61q-41 -24 -41 -57q0 -28 31 -28q34 0 95 37l-14 -88q-52 -28 -117 -28
q-48 0 -76 21t-28 56z" />
    <glyph glyph-name="wacute.sc" horiz-adv-x="789" 
d="M483 518l31 -296q1 -7 3 -103h9q11 47 33 103l117 296h121l-215 -518h-132l-32 268q-5 44 -5 119h-8q-20 -69 -44 -119l-125 -268h-131l-33 518h112l12 -293q1 -45 -2 -106h8q21 65 39 104l135 295h107zM384 575l2 10l96 130h138l-2 -10l-127 -130h-107z" />
    <glyph glyph-name="wcircumflex.sc" horiz-adv-x="789" 
d="M483 518l31 -296q1 -7 3 -103h9q11 47 33 103l117 296h121l-215 -518h-132l-32 268q-5 44 -5 119h-8q-20 -69 -44 -119l-125 -268h-131l-33 518h112l12 -293q1 -45 -2 -106h8q21 65 39 104l135 295h107zM272 575l2 10l115 130h140l71 -130l-2 -10h-91l-49 87h-5l-82 -87
h-99z" />
    <glyph glyph-name="wdieresis.sc" horiz-adv-x="789" 
d="M483 518l31 -296q1 -7 3 -103h9q11 47 33 103l117 296h121l-215 -518h-132l-32 268q-5 44 -5 119h-8q-20 -69 -44 -119l-125 -268h-131l-33 518h112l12 -293q1 -45 -2 -106h8q21 65 39 104l135 295h107zM502 587l18 106h108l-19 -106h-107zM270 587l19 106h108l-19 -106
h-108z" />
    <glyph glyph-name="wgrave.sc" horiz-adv-x="789" 
d="M483 518l31 -296q1 -7 3 -103h9q11 47 33 103l117 296h121l-215 -518h-132l-32 268q-5 44 -5 119h-8q-20 -69 -44 -119l-125 -268h-131l-33 518h112l12 -293q1 -45 -2 -106h8q21 65 39 104l135 295h107zM394 575l-87 130l2 10h123l58 -130l-2 -10h-94z" />
    <glyph glyph-name="yacute.sc" horiz-adv-x="517" 
d="M151 0l33 196l-128 310l2 12h110l53 -141q20 -56 26 -86h10q22 39 54 83l105 144h124l-1 -12l-239 -310l-36 -196h-113zM232 575l2 10l96 130h138l-2 -10l-127 -130h-107z" />
    <glyph glyph-name="ycircumflex.sc" horiz-adv-x="517" 
d="M151 0l33 196l-128 310l2 12h110l53 -141q20 -56 26 -86h10q22 39 54 83l105 144h124l-1 -12l-239 -310l-36 -196h-113zM133 575l2 10l115 130h140l71 -130l-2 -10h-91l-49 87h-5l-82 -87h-99z" />
    <glyph glyph-name="ydieresis.sc" horiz-adv-x="517" 
d="M151 0l33 196l-128 310l2 12h110l53 -141q20 -56 26 -86h10q22 39 54 83l105 144h124l-1 -12l-239 -310l-36 -196h-113zM360 587l18 106h108l-19 -106h-107zM128 587l19 106h108l-19 -106h-108z" />
    <glyph glyph-name="ygrave.sc" horiz-adv-x="517" 
d="M151 0l33 196l-128 310l2 12h110l53 -141q20 -56 26 -86h10q22 39 54 83l105 144h124l-1 -12l-239 -310l-36 -196h-113zM253 575l-87 130l2 10h123l58 -130l-2 -10h-94z" />
    <glyph glyph-name="zacute.sc" horiz-adv-x="489" 
d="M-9 0l15 78l251 281q38 44 65 64v6q-44 -4 -73 -4h-167l16 93h386l-12 -70l-259 -289q-37 -43 -65 -64l1 -6q52 5 72 5h182l-17 -94h-395zM229 575l2 10l96 130h138l-2 -10l-127 -130h-107z" />
    <glyph glyph-name="zcaron.sc" horiz-adv-x="489" 
d="M-9 0l15 78l251 281q38 44 65 64v6q-44 -4 -73 -4h-167l16 93h386l-12 -70l-259 -289q-37 -43 -65 -64l1 -6q52 5 72 5h182l-17 -94h-395zM484 715l-2 -10l-115 -130h-141l-70 130l2 10h89l52 -87h4l82 87h99z" />
    <glyph glyph-name="zdotaccent.sc" horiz-adv-x="489" 
d="M-9 0l15 78l251 281q38 44 65 64v6q-44 -4 -73 -4h-167l16 93h386l-12 -70l-259 -289q-37 -43 -65 -64l1 -6q52 5 72 5h182l-17 -94h-395zM229 584l19 112h119l-20 -112h-118z" />
    <glyph glyph-name="ij.sc" horiz-adv-x="748" 
d="M26 0l92 518h113l-91 -518h-114zM301 182l111 -4q-11 -25 -11 -46q0 -48 54 -48q36 0 57 22.5t30 75.5l60 336h114l-60 -340q-33 -186 -205 -186q-83 0 -123.5 35.5t-40.5 94.5q0 30 14 60z" />
    <glyph glyph-name="germandbls.sc" horiz-adv-x="1002" 
d="M27 172l111 2q-4 -18 -4 -33q0 -62 84 -62q48 0 75.5 19t27.5 50q0 41 -49 56l-97 31q-106 33 -106 119q0 76 58.5 123.5t156.5 47.5q102 0 142.5 -36t40.5 -84q0 -27 -8 -48l-109 -2q5 15 5 33q0 51 -75 51q-46 0 -70 -19t-24 -48q0 -42 49 -56l100 -30
q106 -31 106 -120q0 -77 -61.5 -125.5t-164.5 -48.5q-57 0 -97.5 13t-61 35t-29 43.5t-8.5 44.5q0 20 8 44zM520 172l111 2q-4 -18 -4 -33q0 -62 84 -62q48 0 75.5 19t27.5 50q0 41 -49 56l-97 31q-106 33 -106 119q0 76 58.5 123.5t156.5 47.5q102 0 142.5 -36t40.5 -84
q0 -27 -8 -48l-109 -2q5 15 5 33q0 51 -75 51q-46 0 -70 -19t-24 -48q0 -42 49 -56l100 -30q106 -31 106 -120q0 -77 -61.5 -125.5t-164.5 -48.5q-57 0 -97.5 13t-61 35t-29 43.5t-8.5 44.5q0 20 8 44z" />
    <glyph glyph-name="fi.sc" horiz-adv-x="743" 
d="M26 0l92 518h356l-16 -91h-241l-25 -141h211l-16 -92h-211l-34 -194h-116zM501 0l92 518h113l-91 -518h-114z" />
    <glyph glyph-name="fl.sc" horiz-adv-x="923" 
d="M26 0l92 518h356l-16 -91h-241l-25 -141h211l-16 -92h-211l-34 -194h-116zM501 0l92 518h114l-75 -426h238l-16 -92h-353z" />
    <glyph glyph-name="eng.sc" horiz-adv-x="609" 
d="M26 0l92 518h118l125 -279q23 -60 33 -98h7q1 54 11 120l45 257h114l-94 -534q-26 -142 -152 -142q-41 0 -79 11l24 75q28 -8 49 -8q36 0 49 67l4 20l-123 251q-33 68 -46 120h-7q-1 -58 -12 -130l-43 -248h-115z" />
    <glyph glyph-name="grave.sc" horiz-adv-x="531" 
d="M424 575l-87 130l2 10h123l58 -130l-2 -10h-94z" />
    <glyph glyph-name="acute.sc" horiz-adv-x="488" 
d="M221 575l2 10l96 130h138l-2 -10l-127 -130h-107z" />
    <glyph glyph-name="circumflex.sc" horiz-adv-x="500" 
d="M211 575l2 10l115 130h140l71 -130l-2 -10h-91l-49 87h-5l-82 -87h-99z" />
    <glyph glyph-name="caron.sc" horiz-adv-x="500" 
d="M562 715l-2 -10l-115 -130h-141l-70 130l2 10h89l52 -87h4l82 87h99z" />
    <glyph glyph-name="caronalt.sc" horiz-adv-x="477" 
d="M294 705h136l-20 -116q-23 -137 -163 -130l14 55q73 -3 87 72h-74z" />
    <glyph glyph-name="tilde.sc" horiz-adv-x="497" 
d="M185 582q22 143 121 143q34 0 59 -25l35 -35q12 -12 26 -12q28 0 39 61h83q-22 -144 -123 -144q-41 0 -66 27l-28 29q-15 15 -25 15q-26 0 -39 -59h-82z" />
    <glyph glyph-name="dieresis.sc" horiz-adv-x="507" 
d="M447 587l18 106h108l-19 -106h-107zM215 587l19 106h108l-19 -106h-108z" />
    <glyph glyph-name="macron.sc" horiz-adv-x="500" 
d="M205 594l15 86h299l-16 -86h-298z" />
    <glyph glyph-name="breve.sc" horiz-adv-x="501" 
d="M351 572q-68 0 -105 40t-27 110h74q-5 -35 12.5 -55t53.5 -20t60.5 20t32.5 55h80q-15 -70 -64 -110t-117 -40z" />
    <glyph glyph-name="ring.sc" horiz-adv-x="494" 
d="M354 593q-44 0 -72 27.5t-28 69.5q0 57 39.5 96t95.5 39q43 0 71.5 -27.5t28.5 -68.5q0 -58 -39 -97t-96 -39zM361 650q31 0 48.5 20t17.5 52q0 46 -45 46q-32 0 -50 -19.5t-18 -50.5q0 -22 12 -35t35 -13z" />
    <glyph glyph-name="hungarumlaut.sc" horiz-adv-x="506" 
d="M348 575l2 10l81 130h125l-1 -10l-110 -130h-97zM164 575l1 10l81 130h127l-2 -10l-112 -130h-95z" />
    <glyph glyph-name="dotaccent.sc" horiz-adv-x="474" 
d="M276 584l19 112h119l-20 -112h-118z" />
    <glyph glyph-name="exclamdown.sc" horiz-adv-x="277" 
d="M151 231l-2 -188l-25 -143h-109l25 143l64 188h47zM225 418l-20 -112h-125l19 112h126z" />
    <glyph glyph-name="questiondown.sc" horiz-adv-x="441" 
d="M278 238q2 -8 2 -19q0 -36 -23.5 -59.5t-68.5 -47.5q-26 -14 -39 -22.5t-23 -23.5t-10 -34q0 -20 13.5 -32.5t39.5 -12.5q72 0 77 82l114 -1q-7 -72 -57 -120t-150 -48q-74 0 -116 34t-42 87q0 78 78 123q13 8 61 30q36 17 47 29t11 35h86zM331 425l-20 -112h-126l21 112
h125z" />
    <glyph glyph-name="Euro.sc" horiz-adv-x="570" 
d="M39 282l32 53h52q29 91 97 140.5t169 49.5q120 0 171 -53l-54 -83q-38 49 -116 49q-107 0 -150 -103h234l-34 -53h-215q-3 -17 -5 -48h190l-35 -54h-155q13 -100 105 -100q63 0 135 59l-4 -103q-73 -44 -147 -44q-95 0 -148 51t-58 137h-82l33 54h50q2 24 6 48h-71z" />
    <glyph glyph-name="cent.sc" horiz-adv-x="414" 
d="M169 -40h-51l13 38q-50 12 -78 49t-28 92q0 102 57 169t158 67q12 0 18 -1l13 39h51l-16 -46q43 -12 72 -41l-47 -70q-22 27 -49 38l-78 -230q48 3 99 45l6 -80q-53 -37 -127 -37h-2zM122 150q0 -55 34 -76l78 229q-49 -2 -80.5 -45t-31.5 -108z" />
    <glyph glyph-name="sterling.sc" horiz-adv-x="512" 
d="M41 264h75q-7 38 -7 66q0 90 57.5 142.5t147.5 52.5q93 0 132 -39.5t39 -91.5q0 -26 -9 -51l-111 -2q6 14 6 32q0 26 -15 43t-46 17q-36 1 -60 -25t-24 -77q0 -27 9 -67h151l-9 -56h-134v-2q0 -30 -14.5 -55.5t-28.5 -36.5t-35 -24v-5q31 7 104 7h138l-16 -92h-380l11 67
q104 45 104 126q0 10 -1 15h-94z" />
    <glyph glyph-name="florin.sc" horiz-adv-x="382" 
d="M27 -34l68 232h-81l21 69h81l44 154q38 127 150 127q39 0 83 -11l-31 -76q-26 9 -45 9q-31 0 -48 -50l-45 -153h102l-21 -69h-101l-69 -236q-37 -121 -149 -121q-48 0 -79 11l30 76q30 -8 46 -8q17 0 27 10.5t17 35.5z" />
    <glyph glyph-name="yen.sc" horiz-adv-x="553" 
d="M87 196l8 54h91l-109 256l2 12h110l45 -117q15 -38 32 -105h9q47 72 71 104l87 118h119l-1 -12l-201 -256h91l-10 -54h-116l-9 -54h115l-10 -55h-115l-16 -87h-114l16 87h-115l10 55h115l9 54h-114z" />
    <glyph glyph-name="perthousand.sc" horiz-adv-x="853" 
d="M659 -8q-48 0 -74.5 26t-26.5 66q0 53 37 91.5t87 38.5t76 -26t26 -67q0 -53 -36.5 -91t-88.5 -38zM663 55q23 0 37.5 16.5t14.5 41.5q0 16 -9.5 26.5t-26.5 10.5q-24 0 -38.5 -16.5t-14.5 -40.5q0 -16 10 -27t27 -11zM86 0l1 8l406 510h76l-1 -8l-407 -510h-75zM178 261
q-57 0 -88 31t-31 77q0 65 43.5 110.5t106.5 45.5q58 0 88.5 -30.5t30.5 -78.5q0 -63 -44.5 -109t-105.5 -46zM183 337q28 0 45.5 19t17.5 47q0 20 -11.5 33.5t-31.5 13.5q-28 0 -45 -20.5t-17 -48.5q0 -19 11 -31.5t31 -12.5zM418 -8q-48 0 -74 26t-26 66q0 53 37 91.5
t88 38.5q49 0 75 -26t26 -66q0 -54 -36.5 -92t-89.5 -38zM422 55q24 0 38.5 16.5t14.5 41.5q0 16 -9 26.5t-26 10.5q-24 0 -39 -16t-15 -41q0 -16 9.5 -27t26.5 -11z" />
    <glyph glyph-name="zero.tf" 
d="M282 -10q-106 0 -160.5 70.5t-54.5 188.5q0 197 88.5 324t251.5 127q107 0 161.5 -71t54.5 -190q0 -198 -89 -323.5t-252 -125.5zM300 91q89 0 144 89t55 260q0 158 -109 158q-89 0 -143.5 -90t-54.5 -260q0 -157 108 -157z" />
    <glyph glyph-name="one.tf" 
d="M43 0l17 99h216l64 364h-186l16 93h82q73 0 104 28.5t45 105.5h100l-104 -591h177l-18 -99h-513z" />
    <glyph glyph-name="two.tf" 
d="M211 97l2 -6q52 10 132 10h206l-17 -101h-504l15 84l346 255q55 40 81 77.5t26 85.5q0 44 -30.5 72.5t-85.5 28.5q-65 0 -105 -37.5t-42 -98.5q-1 -14 2 -38l-117 -11q-5 24 -2 53q2 38 18.5 76.5t47.5 73.5t86.5 57t125.5 22q111 0 170 -52t59 -135q0 -75 -40 -131.5
t-114 -108.5l-166 -116q-59 -41 -94 -60z" />
    <glyph glyph-name="three.tf" 
d="M54 239l120 3q-6 -20 -6 -40q0 -51 31 -82t97 -31q71 0 116 36.5t45 96.5q0 91 -124 91h-67l17 94h67q74 0 109.5 31t35.5 81q0 39 -30 60.5t-81 21.5q-68 0 -107.5 -33t-43.5 -97l-114 2q8 108 82.5 167.5t194.5 59.5q102 0 163 -41.5t61 -118.5q0 -43 -16 -77
t-41.5 -53t-47 -29t-41.5 -14l-1 -7q38 -6 74 -41t36 -98q0 -105 -82.5 -168t-209.5 -63q-58 0 -103 14t-70.5 35t-42.5 48.5t-22.5 51.5t-5.5 48q0 29 7 52z" />
    <glyph glyph-name="four.tf" 
d="M26 154l14 78l404 458h148l-78 -440h96l-17 -96h-96l-27 -154h-123l28 154h-349zM169 249h224l37 208q15 78 26 117h-10q-51 -73 -75 -100l-202 -222v-3z" />
    <glyph glyph-name="five.tf" 
d="M61 220l122 4q-6 -18 -6 -37q0 -43 29 -71.5t92 -28.5q77 0 124 49t47 125q0 112 -132 112q-38 0 -73.5 -15.5t-55.5 -37.5h-112l99 370h419l-17 -96h-317l-49 -185h8q71 48 160 48q94 0 146 -49t52 -133q0 -129 -87 -207t-222 -78q-110 0 -173 50.5t-63 129.5q0 23 9 50
z" />
    <glyph glyph-name="six.tf" 
d="M303 -10q-116 0 -174.5 70t-58.5 191q0 197 93 323t252 126q62 0 107 -16.5t66.5 -43.5t30.5 -52.5t9 -52.5q0 -28 -8 -47l-124 -4q6 16 6 35q0 39 -25 63t-76 24q-87 0 -143 -75.5t-56 -185.5h5q27 37 78 66t116 29q98 0 148.5 -47.5t50.5 -126.5q0 -131 -83 -203.5
t-214 -72.5zM203 197q0 -50 31 -80t82 -30q73 0 115.5 42t42.5 117q0 47 -28.5 75t-84.5 28q-65 0 -111.5 -42.5t-46.5 -109.5z" />
    <glyph glyph-name="seven.tf" 
d="M104 468l40 222h535l-13 -72q-5 -14 -108.5 -141l-216.5 -273.5t-138 -203.5h-131l2 14q22 54 127.5 186.5l209.5 253.5t112 135h-301l-20 -121h-98z" />
    <glyph glyph-name="eight.tf" 
d="M356 406q70 0 106.5 32.5t36.5 83.5q0 38 -29.5 60.5t-80.5 22.5q-65 0 -103.5 -30t-38.5 -84q0 -39 27.5 -62t81.5 -23zM299 85q73 0 119 35.5t46 96.5q0 46 -31.5 71.5t-92.5 25.5q-82 0 -124.5 -36t-42.5 -100q0 -42 33.5 -67.5t92.5 -25.5zM282 -10q-109 0 -173.5 46
t-64.5 124q0 44 17 81.5t42.5 61t51 37.5t47.5 19l2 8q-30 7 -54.5 37.5t-24.5 80.5q0 102 76 158.5t206 56.5q102 0 159.5 -40.5t57.5 -113.5q0 -79 -41.5 -123t-89.5 -56l-2 -8q36 -8 67.5 -45.5t31.5 -95.5q0 -103 -86.5 -165.5t-221.5 -62.5z" />
    <glyph glyph-name="nine.tf" 
d="M384 700q118 0 176.5 -70t58.5 -192q0 -198 -93 -323t-256 -125q-59 0 -102.5 16.5t-65.5 43t-31.5 53t-9.5 52.5q0 31 9 47l122 4q-5 -20 -5 -34q0 -39 25 -63.5t76 -24.5q47 0 85.5 24.5t61.5 64t36 83.5t15 89h-5q-25 -39 -74 -67t-119 -28q-96 0 -147 48.5t-51 131.5
q0 126 82.5 198t211.5 72zM487 494q0 49 -31.5 79t-81.5 30q-73 0 -115.5 -42.5t-42.5 -117.5q0 -47 28.5 -74.5t83.5 -27.5q65 0 112 43t47 110z" />
    <glyph glyph-name="zero.tosf" 
d="M282 -10q-111 0 -170 55.5t-59 149.5q0 138 84.5 222t234.5 84q111 0 170 -55.5t59 -150.5q0 -138 -84.5 -221.5t-234.5 -83.5zM298 79q85 0 130 58.5t45 152.5q0 121 -116 121q-86 0 -130.5 -58t-44.5 -152q0 -57 28.5 -89.5t87.5 -32.5z" />
    <glyph glyph-name="one.tosf" 
d="M39 0l18 99h215l51 291l-185 -25l17 99l309 36l-71 -401h177l-17 -99h-514z" />
    <glyph glyph-name="two.tosf" 
d="M259 96v-6q43 9 94 9h207l-17 -99h-508l14 83l286 137q68 32 96 55.5t28 60.5q0 31 -29.5 50t-79.5 19q-62 0 -99.5 -24t-37.5 -67q0 -12 5 -35l-118 -20q-7 19 -7 51q0 76 67.5 133t197.5 57q111 0 170.5 -40t59.5 -106q0 -32 -12.5 -59t-26.5 -44t-43 -36t-44 -26
l-47 -22l-78 -36q-18 -9 -43.5 -19.5t-34.5 -15.5z" />
    <glyph glyph-name="three.tosf" 
d="M20 39l120 3q-6 -20 -6 -40q0 -51 31 -82t97 -31q71 0 116 36.5t45 96.5q0 91 -124 91h-67l17 94h67q74 0 109.5 31t35.5 81q0 39 -30 60.5t-81 21.5q-68 0 -107.5 -33t-43.5 -97l-114 2q8 108 82.5 167.5t194.5 59.5q102 0 163 -41.5t61 -118.5q0 -43 -16 -77t-41.5 -53
t-47 -29t-41.5 -14l-1 -7q38 -6 74 -41t36 -98q0 -105 -82.5 -168t-209.5 -63q-58 0 -103 14t-70.5 35t-42.5 48.5t-22.5 51.5t-5.5 48q0 29 7 52z" />
    <glyph glyph-name="four.tosf" 
d="M-3 -46l14 78l404 458h148l-78 -440h96l-17 -96h-96l-27 -154h-123l28 154h-349zM140 49h224l37 208q15 78 26 117h-10q-51 -73 -75 -100l-202 -222v-3z" />
    <glyph glyph-name="five.tosf" 
d="M28 20l122 4q-6 -18 -6 -37q0 -43 29 -71.5t92 -28.5q77 0 124 49t47 125q0 112 -132 112q-38 0 -73.5 -15.5t-55.5 -37.5h-112l99 370h419l-17 -96h-317l-49 -185h8q71 48 160 48q94 0 146 -49t52 -133q0 -129 -87 -207t-222 -78q-110 0 -173 50.5t-63 129.5q0 23 9 50z
" />
    <glyph glyph-name="six.tosf" 
d="M303 -10q-116 0 -174.5 70t-58.5 191q0 197 93 323t252 126q62 0 107 -16.5t66.5 -43.5t30.5 -52.5t9 -52.5q0 -28 -8 -47l-124 -4q6 16 6 35q0 39 -25 63t-76 24q-87 0 -143 -75.5t-56 -185.5h5q27 37 78 66t116 29q98 0 148.5 -47.5t50.5 -126.5q0 -131 -83 -203.5
t-214 -72.5zM203 197q0 -50 31 -80t82 -30q73 0 115.5 42t42.5 117q0 47 -28.5 75t-84.5 28q-65 0 -111.5 -42.5t-46.5 -109.5z" />
    <glyph glyph-name="seven.tosf" 
d="M65 268l40 222h535l-13 -72q-5 -14 -108.5 -141l-216.5 -273.5t-138 -203.5h-131l2 14q22 54 127.5 186.5l209.5 253.5t112 135h-301l-20 -121h-98z" />
    <glyph glyph-name="eight.tosf" 
d="M356 406q70 0 106.5 32.5t36.5 83.5q0 38 -29.5 60.5t-80.5 22.5q-65 0 -103.5 -30t-38.5 -84q0 -39 27.5 -62t81.5 -23zM299 85q73 0 119 35.5t46 96.5q0 46 -31.5 71.5t-92.5 25.5q-82 0 -124.5 -36t-42.5 -100q0 -42 33.5 -67.5t92.5 -25.5zM282 -10q-109 0 -173.5 46
t-64.5 124q0 44 17 81.5t42.5 61t51 37.5t47.5 19l2 8q-30 7 -54.5 37.5t-24.5 80.5q0 102 76 158.5t206 56.5q102 0 159.5 -40.5t57.5 -113.5q0 -79 -41.5 -123t-89.5 -56l-2 -8q36 -8 67.5 -45.5t31.5 -95.5q0 -103 -86.5 -165.5t-221.5 -62.5z" />
    <glyph glyph-name="nine.tosf" 
d="M354 500q118 0 176.5 -70t58.5 -192q0 -198 -93 -323t-256 -125q-59 0 -102.5 16.5t-65.5 43t-31.5 53t-9.5 52.5q0 31 9 47l122 4q-5 -20 -5 -34q0 -39 25 -63.5t76 -24.5q47 0 85.5 24.5t61.5 64t36 83.5t15 89h-5q-25 -39 -74 -67t-119 -28q-96 0 -147 48.5t-51 131.5
q0 126 82.5 198t211.5 72zM457 294q0 49 -31.5 79t-81.5 30q-73 0 -115.5 -42.5t-42.5 -117.5q0 -47 28.5 -74.5t83.5 -27.5q65 0 112 43t47 110z" />
    <glyph glyph-name="Euro.tf" 
d="M53 379l36 66h64q37 121 125 188t217 67q133 0 196 -74l-57 -98q-23 33 -63 52.5t-85 19.5q-74 0 -125.5 -40.5t-77.5 -114.5h301l-40 -66h-279q-4 -22 -8 -70h244l-38 -67h-206q5 -73 39.5 -112t97.5 -39q79 0 172 78l-7 -119q-88 -60 -195 -60q-109 0 -171 67t-65 185
h-98l35 67h64q3 35 9 70h-85z" />
    <glyph glyph-name="cent.tf" 
d="M293 -50h-64l16 48q-130 34 -130 192q0 137 72 223.5t208 86.5q15 0 22 -1l16 47h65l-20 -57q63 -16 98 -54l-52 -81q-32 37 -74 53l-115 -335q74 0 145 52l6 -85q-71 -49 -171 -49h-8zM225 197q0 -83 50 -112l114 333q-82 -1 -123 -60t-41 -161z" />
    <glyph glyph-name="sterling.tf" 
d="M71 341h109q-12 68 -12 104q0 121 78 188t201 67q56 0 98.5 -16.5t64.5 -43t32.5 -54t10.5 -55.5q0 -25 -11 -64l-118 -2q8 36 8 49q0 38 -24 62.5t-77 24.5q-60 0 -101 -37.5t-41 -116.5q0 -36 14 -106h214l-11 -67h-192q1 -7 1 -19q0 -100 -106 -160l1 -5q50 9 137 9
h193l-17 -99h-485l13 71q141 68 141 176q0 9 -2 27h-130z" />
    <glyph glyph-name="florin.tf" 
d="M163 -52l97 332h-108l22 78h109l56 207q48 165 173 165q53 0 99 -16l-32 -84q-32 13 -59 13q-43 0 -64 -74l-58 -211h135l-23 -78h-135l-98 -339q-44 -151 -177 -151q-51 0 -88 16l33 85q33 -13 58 -13q21 0 35.5 16.5t24.5 53.5z" />
    <glyph glyph-name="yen.tf" 
d="M105 263l12 67h133l-143 347l3 13h115l68 -171q24 -58 41 -145h12q36 65 95 144l127 172h128l-3 -13l-265 -347h133l-12 -67h-161l-14 -77h161l-12 -66h-161l-22 -120h-120l21 120h-161l12 66h161l14 77h-162z" />
    <glyph glyph-name="dollar.tf" 
d="M60 229l120 4q-8 -28 -8 -55q0 -82 97 -94l38 217l-57 19q-133 45 -133 156q0 94 69 155t191 68l14 77h65l-14 -77q56 -4 95.5 -20.5t58 -40.5t25.5 -45.5t7 -44.5q0 -39 -12 -69l-116 -3q8 21 8 50q0 69 -82 79l-38 -212l65 -19q135 -39 135 -154q0 -96 -71.5 -158.5
t-199.5 -70.5l-16 -95h-65l16 95q-59 3 -101.5 20t-63.5 43t-30 52t-9 54q0 39 12 69zM382 278l-13 4l-35 -199q64 7 98 38t34 76q0 29 -19 48t-65 33zM236 501q0 -64 80 -86l11 -3l34 194q-64 -5 -94.5 -33.5t-30.5 -71.5z" />
    <glyph glyph-name="zero.osf" horiz-adv-x="622" 
d="M270 -10q-114 0 -173.5 55t-59.5 148q0 138 79.5 222.5t219.5 84.5q112 0 172 -55t60 -148q0 -138 -79 -222.5t-219 -84.5zM273 79q80 0 123.5 59.5t43.5 153.5q0 119 -108 119q-81 0 -123.5 -59t-42.5 -153q0 -120 107 -120z" />
    <glyph glyph-name="one.osf" horiz-adv-x="518" 
d="M1 0l18 99h172l51 291l-161 -25l18 99l284 36l-71 -401h154l-17 -99h-448z" />
    <glyph glyph-name="two.osf" horiz-adv-x="566" 
d="M222 97v-6q38 8 86 8h177l-17 -99h-463l15 83l254 137q63 34 87.5 57.5t24.5 61.5q0 31 -24 48.5t-63 17.5q-51 0 -83 -25t-32 -70q0 -17 2 -31l-117 -20q-6 20 -6 48q0 77 62 135t176 58q106 0 160 -39.5t54 -107.5q0 -31 -11 -58t-24 -44t-39 -35.5t-39.5 -26
l-42.5 -22.5z" />
    <glyph glyph-name="three.osf" horiz-adv-x="561" 
d="M-6 40l118 3q-6 -26 -6 -45q0 -45 24.5 -76.5t76.5 -31.5q59 0 98.5 38t39.5 99q0 42 -25.5 64.5t-73.5 22.5h-57l17 94h57q60 0 90.5 32.5t30.5 82.5q0 37 -23.5 58t-64.5 21q-62 0 -94.5 -36.5t-35.5 -93.5l-111 2q3 100 66.5 163.5t178.5 63.5q97 0 152.5 -40
t55.5 -114q0 -45 -14.5 -80t-37.5 -54.5t-42.5 -30t-38.5 -14.5l-1 -7q34 -6 64.5 -40t30.5 -95q0 -105 -76.5 -170t-188.5 -65q-52 0 -92.5 13.5t-64 34t-38 47.5t-19.5 50.5t-5 46.5q0 30 9 57z" />
    <glyph glyph-name="four.osf" horiz-adv-x="575" 
d="M-29 -46l12 78l371 458h147l-79 -440h90l-17 -96h-89l-27 -154h-123l26 154h-311zM115 49h187l37 208q15 78 26 117h-10q-54 -88 -69 -107l-171 -215v-3z" />
    <glyph glyph-name="five.osf" horiz-adv-x="547" 
d="M-6 20l119 4q-5 -22 -5 -41q0 -41 23 -68.5t72 -27.5q65 0 105.5 51.5t40.5 128.5q0 52 -27 79t-76 27q-32 0 -61.5 -15.5t-47.5 -37.5h-113l97 370h378l-17 -96h-276l-45 -185h6q61 48 129 48q88 0 134.5 -47.5t46.5 -129.5q0 -130 -79.5 -210t-197.5 -80
q-108 0 -161.5 48t-53.5 126q0 34 9 56z" />
    <glyph glyph-name="six.osf" horiz-adv-x="607" 
d="M273 -10q-108 0 -162.5 69t-54.5 188q0 196 87.5 324.5t231.5 128.5q49 0 87 -11.5t59.5 -28.5t35.5 -39.5t19 -42.5t5 -40q0 -26 -8 -50l-124 -4q6 22 6 37q0 38 -21 61.5t-66 23.5q-53 0 -95 -45.5t-62 -101.5t-24 -110h5q21 33 67 62t113 29q89 0 134 -47t45 -129
q0 -120 -78.5 -197t-199.5 -77zM188 194q0 -48 26.5 -77.5t69.5 -29.5q60 0 100.5 47t40.5 115q0 46 -24 73t-72 27q-58 0 -99.5 -44t-41.5 -111z" />
    <glyph glyph-name="seven.osf" horiz-adv-x="542" 
d="M35 274l39 216h468l-12 -72q-5 -14 -94 -141l-186 -273t-118 -204h-136l1 14q19 54 109 186.5l179.5 254t96.5 134.5h-230l-20 -115h-97z" />
    <glyph glyph-name="eight.osf" horiz-adv-x="607" 
d="M324 406q62 0 95.5 33t33.5 83q0 39 -26 61t-70 22q-58 0 -91.5 -30.5t-33.5 -85.5q0 -37 23.5 -60t68.5 -23zM267 85q66 0 107.5 36.5t41.5 98.5q0 44 -27.5 69t-80.5 25q-72 0 -110.5 -37.5t-38.5 -100.5q0 -42 29 -66.5t79 -24.5zM263 -10q-109 0 -171 45.5t-62 122.5
q0 84 50 136.5t101 64.5l1 8q-27 7 -50 37t-23 79q0 102 70 159.5t183 57.5q104 0 159.5 -39.5t55.5 -112.5q0 -79 -39.5 -123t-85.5 -58l-2 -8q33 -8 62 -45t29 -95q0 -103 -79 -166t-199 -63z" />
    <glyph glyph-name="nine.osf" horiz-adv-x="600" 
d="M314 500q116 0 170 -68t54 -189q0 -197 -86.5 -325t-233.5 -128q-60 0 -103 16.5t-64 43t-29.5 51.5t-8.5 51q0 28 9 50l123 4q-7 -19 -7 -37q0 -38 22 -61.5t66 -23.5q79 0 128.5 80.5t51.5 176.5h-5q-29 -39 -76 -65t-105 -26q-84 0 -131 47t-47 124q0 129 77 204
t195 75zM406 302q0 47 -26 74t-70 27q-60 0 -100 -44.5t-40 -118.5q0 -45 24 -72t70 -27q58 0 100 46t42 115z" />
    <glyph glyph-name="zero.denom" horiz-adv-x="397" 
d="M156 -6q-70 0 -105.5 40t-35.5 108q0 107 52 175t138 68q70 0 105.5 -40t35.5 -109q0 -106 -52.5 -174t-137.5 -68zM159 64q50 0 74 48.5t24 121.5q0 81 -54 81q-52 0 -75.5 -49.5t-23.5 -121.5q0 -80 55 -80z" />
    <glyph glyph-name="one.denom" horiz-adv-x="245" 
d="M43 0l44 250h-80l12 64q52 0 76 14.5t31 51.5h70l-67 -380h-86z" />
    <glyph glyph-name="two.denom" horiz-adv-x="355" 
d="M112 67l1 -3q27 5 72 5h90l-12 -69h-275l10 57l178 135q48 36 48 81q0 20 -12 33.5t-35 13.5q-63 0 -63 -87l-81 -4q0 70 37 113t114 43q65 0 97.5 -29.5t32.5 -77.5q0 -74 -88 -135l-69 -47q-11 -8 -26 -17t-19 -12z" />
    <glyph glyph-name="three.denom" horiz-adv-x="371" 
d="M5 136l85 2q-3 -10 -3 -22q0 -23 13.5 -39t42.5 -16q32 0 52.5 18t20.5 46q0 41 -54 41h-33l10 62h34q31 0 47 14t16 38q0 39 -49 39q-65 0 -70 -65l-78 1q0 58 43.5 94t108.5 36q63 0 98.5 -24t35.5 -69q0 -41 -26.5 -65t-51.5 -27l-1 -5q22 -3 40.5 -21t18.5 -50
q0 -59 -47.5 -94.5t-116.5 -35.5q-42 0 -71.5 11.5t-43.5 29.5t-19.5 35t-5.5 35q0 19 4 31z" />
    <glyph glyph-name="four.denom" horiz-adv-x="375" 
d="M-16 78l9 56l214 246h104l-42 -237h54l-12 -65h-53l-14 -78h-88l13 78h-185zM80 142h103l34 159h-5l-132 -156v-3z" />
    <glyph glyph-name="five.denom" horiz-adv-x="365" 
d="M5 123l83 2q-2 -12 -2 -18q0 -20 13 -34t41 -14q34 0 55.5 25t21.5 62q0 54 -56 54q-38 0 -61 -29h-78l56 209h238l-11 -65h-167l-22 -85h5q30 22 74 22q56 0 85 -26t29 -71q0 -72 -50.5 -116.5t-120.5 -44.5q-71 0 -104.5 29t-33.5 72q0 15 5 28z" />
    <glyph glyph-name="six.denom" horiz-adv-x="387" 
d="M161 -6q-73 0 -109.5 39.5t-36.5 108.5q0 107 53 175t142 68q72 0 101 -28.5t29 -63.5q0 -13 -4 -27l-87 -2q2 10 2 17q0 18 -11.5 30t-35.5 12q-44 0 -68.5 -37.5t-25.5 -86.5h3q43 43 105 43q52 0 80 -26t28 -68q0 -69 -47.5 -111.5t-117.5 -42.5zM111 111
q0 -24 14 -38t38 -14q31 0 52 21.5t21 54.5q0 47 -52 47q-31 0 -52 -19.5t-21 -51.5z" />
    <glyph glyph-name="seven.denom" horiz-adv-x="341" 
d="M26 252l22 128h291l-10 -53q-2 -7 -106.5 -149t-119.5 -178h-97l1 9q13 34 114 165.5t103 136.5h-121l-10 -59h-67z" />
    <glyph glyph-name="eight.denom" horiz-adv-x="389" 
d="M184 227q32 0 50 16t18 40q0 39 -51 39q-32 0 -50.5 -14.5t-18.5 -40.5q0 -17 13.5 -28.5t38.5 -11.5zM154 59q35 0 57 16.5t22 44.5q0 46 -60 46q-38 0 -59 -17.5t-21 -45.5q0 -20 16.5 -32t44.5 -12zM151 -6q-69 0 -109.5 25.5t-40.5 69.5q0 47 30.5 76t62.5 35l1 3
q-48 11 -48 64q0 56 43.5 87t111.5 31q67 0 103 -22t36 -64q0 -44 -24.5 -69t-53.5 -31v-3q23 -5 41.5 -24t18.5 -52q0 -58 -49.5 -92t-122.5 -34z" />
    <glyph glyph-name="nine.denom" horiz-adv-x="387" 
d="M192 385q72 0 108.5 -39.5t36.5 -107.5q0 -108 -51.5 -176t-140.5 -68q-74 0 -104 29t-30 64q0 17 5 27l87 2q-2 -10 -2 -18q0 -41 47 -41q44 0 68.5 38t25.5 89h-3q-47 -47 -99 -47q-55 0 -84.5 27t-29.5 73q0 69 46.5 108.5t119.5 39.5zM241 269q0 23 -14.5 37
t-38.5 14q-34 0 -53.5 -20t-19.5 -55q0 -47 52 -47q32 0 53 19.5t21 51.5z" />
    <glyph glyph-name="zero.num" horiz-adv-x="397" 
d="M212 309q-70 0 -105.5 40t-35.5 108q0 107 52 175t138 68q70 0 105.5 -40t35.5 -109q0 -106 -52.5 -174t-137.5 -68zM215 379q50 0 74 48.5t24 121.5q0 81 -54 81q-52 0 -75.5 -49.5t-23.5 -121.5q0 -80 55 -80z" />
    <glyph glyph-name="one.num" horiz-adv-x="245" 
d="M98 315l44 250h-80l12 64q52 0 76 14.5t31 51.5h70l-67 -380h-86z" />
    <glyph glyph-name="two.num" horiz-adv-x="355" 
d="M168 382l1 -3q27 5 72 5h90l-12 -69h-275l10 57l178 135q48 36 48 81q0 20 -12 33.5t-35 13.5q-63 0 -63 -87l-81 -4q0 70 37 113t114 43q65 0 97.5 -29.5t32.5 -77.5q0 -74 -88 -135l-69 -47q-11 -8 -26 -17t-19 -12z" />
    <glyph glyph-name="three.num" horiz-adv-x="371" 
d="M60 451l85 2q-3 -11 -3 -22q0 -23 13.5 -39t42.5 -16q32 0 52.5 18t20.5 46q0 41 -54 41h-33l10 62h34q31 0 47 14t16 38q0 39 -49 39q-65 0 -70 -65l-78 1q0 58 43.5 94t108.5 36q63 0 98.5 -24t35.5 -69q0 -41 -26.5 -65t-51.5 -27l-1 -5q22 -3 40.5 -21t18.5 -50
q0 -59 -47.5 -94.5t-116.5 -35.5q-42 0 -71.5 11.5t-43.5 29.5t-19.5 35t-5.5 35q0 19 4 31z" />
    <glyph glyph-name="four.num" horiz-adv-x="375" 
d="M39 393l9 56l214 246h104l-42 -237h54l-12 -65h-53l-14 -78h-88l13 78h-185zM135 457h103l34 159h-5l-132 -156v-3z" />
    <glyph glyph-name="five.num" horiz-adv-x="365" 
d="M61 438l83 2q-2 -12 -2 -18q0 -20 13 -34t41 -14q34 0 55.5 25t21.5 62q0 54 -56 54q-38 0 -61 -29h-78l56 209h238l-11 -65h-167l-22 -85h5q30 22 74 22q56 0 85 -26t29 -71q0 -72 -50.5 -116.5t-120.5 -44.5q-71 0 -104.5 29t-33.5 72q0 16 5 28z" />
    <glyph glyph-name="six.num" horiz-adv-x="386" 
d="M216 309q-73 0 -109.5 39.5t-36.5 108.5q0 107 53 175t142 68q72 0 101 -28.5t29 -63.5q0 -13 -4 -27l-87 -2q2 10 2 17q0 18 -11.5 30t-35.5 12q-44 0 -68.5 -37.5t-25.5 -86.5h3q43 43 105 43q52 0 80 -26t28 -68q0 -69 -47.5 -111.5t-117.5 -42.5zM166 426
q0 -24 14 -38t38 -14q31 0 52 21.5t21 54.5q0 47 -52 47q-31 0 -52 -19.5t-21 -51.5z" />
    <glyph glyph-name="seven.num" horiz-adv-x="341" 
d="M81 567l22 128h291l-10 -53q-2 -7 -106.5 -149t-119.5 -178h-97l1 9q13 34 114 165.5t103 136.5h-121l-10 -59h-67z" />
    <glyph glyph-name="eight.num" horiz-adv-x="389" 
d="M239 542q32 0 50 16t18 40q0 39 -51 39q-32 0 -50.5 -14.5t-18.5 -40.5q0 -17 13.5 -28.5t38.5 -11.5zM209 374q35 0 57 16.5t22 44.5q0 46 -60 46q-38 0 -59 -17.5t-21 -45.5q0 -20 16.5 -32t44.5 -12zM206 309q-69 0 -109.5 25.5t-40.5 69.5q0 47 30.5 76t62.5 35l1 3
q-48 11 -48 64q0 56 43.5 87t111.5 31q67 0 103 -22t36 -64q0 -44 -24.5 -69t-53.5 -31v-3q23 -5 41.5 -24t18.5 -52q0 -58 -49.5 -92t-122.5 -34z" />
    <glyph glyph-name="nine.num" horiz-adv-x="388" 
d="M248 700q72 0 108.5 -39.5t36.5 -107.5q0 -108 -51.5 -176t-140.5 -68q-74 0 -104 29t-30 64q0 17 5 27l87 2q-2 -10 -2 -18q0 -41 47 -41q44 0 68.5 38t25.5 89h-3q-47 -47 -99 -47q-55 0 -84.5 27t-29.5 73q0 69 46.5 108.5t119.5 39.5zM297 584q0 23 -14.5 37
t-38.5 14q-34 0 -53.5 -19.5t-19.5 -55.5q0 -47 52 -47q32 0 53 19.5t21 51.5z" />
    <glyph glyph-name="parenleft.case" horiz-adv-x="286" 
d="M41 206q0 92 17.5 177.5t42 146t62.5 119.5t66 93t66 74l60 -30q-220 -255 -220 -588q0 -186 62 -310l-71 -29q-34 55 -59.5 147.5t-25.5 199.5z" />
    <glyph glyph-name="parenright.case" horiz-adv-x="284" 
d="M261 474q0 -349 -253 -615l-61 29q42 49 73.5 96t68.5 120.5t57.5 168.5t20.5 202q0 93 -18 177t-43 134l71 30q84 -141 84 -342z" />
    <glyph glyph-name="hyphen.case" horiz-adv-x="376" 
d="M54 298l16 91h268l-15 -91h-269z" />
    <glyph glyph-name="bracketleft.case" horiz-adv-x="286" 
d="M92 -73h132l-11 -67h-214l166 940h214l-13 -67h-131z" />
    <glyph glyph-name="bracketright.case" horiz-adv-x="288" 
d="M-64 -73h131l143 806h-132l12 67h212l-165 -940h-213z" />
    <glyph glyph-name="braceleft.case" horiz-adv-x="301" 
d="M39 -22q0 47 34 138.5t34 131.5q0 30 -18.5 41.5t-62.5 11.5l15 81q55 0 76.5 17.5t28.5 71.5q4 30 7 98t6 94q10 87 52 117t142 30l-14 -76q-43 0 -63 -14.5t-26 -58.5q-4 -27 -7 -94.5t-6 -96.5q-5 -41 -21 -68.5t-30.5 -36.5t-38.5 -19l-1 -8q54 -19 54 -79
q0 -50 -34 -141t-34 -126q0 -26 16.5 -36t51.5 -10l-13 -76q-148 0 -148 108z" />
    <glyph glyph-name="bar.case" horiz-adv-x="288" 
d="M112 -120v920h81v-920h-81z" />
    <glyph glyph-name="braceright.case" horiz-adv-x="301" 
d="M159 22q-10 -89 -51.5 -120.5t-141.5 -31.5l14 76q43 0 63 15t26 61q4 30 7 95t7 95q8 63 31 89.5t58 36.5l1 8q-53 25 -53 80q0 45 33.5 138t33.5 124q0 26 -16.5 36t-51.5 10l13 76q148 0 148 -104q0 -44 -34 -139t-34 -132q0 -30 18.5 -41.5t62.5 -11.5l-14 -81
q-56 0 -78 -17.5t-29 -71.5q-4 -29 -7 -94.5t-6 -95.5z" />
    <glyph glyph-name="guilsinglleft.case" horiz-adv-x="318" 
d="M191 522h116l-170 -179l-2 -10l110 -167h-104l-103 157l8 44z" />
    <glyph glyph-name="guilsinglright.case" horiz-adv-x="320" 
d="M94 522h102l103 -155l-7 -44l-145 -157h-117l172 181l1 10z" />
    <glyph glyph-name="guillemotleft.case" horiz-adv-x="520" 
d="M191 522h116l-170 -179l-2 -10l110 -167h-104l-103 157l8 44zM391 522h118l-171 -179l-2 -10l110 -167h-104l-102 157l8 44z" />
    </font>
</defs>
</svg>
